<?xml version="1.0" encoding="UTF-8" standalone="no"?>
<!-- Created with Inkscape (http://www.inkscape.org/) -->

<svg
   xmlns:dc="http://purl.org/dc/elements/1.1/"
   xmlns:cc="http://creativecommons.org/ns#"
   xmlns:rdf="http://www.w3.org/1999/02/22-rdf-syntax-ns#"
   xmlns:svg="http://www.w3.org/2000/svg"
   xmlns="http://www.w3.org/2000/svg"
   xmlns:sodipodi="http://sodipodi.sourceforge.net/DTD/sodipodi-0.dtd"
   xmlns:inkscape="http://www.inkscape.org/namespaces/inkscape"
   id="svg2"
   version="1.1"
   inkscape:version="0.91 r13725"
   xml:space="preserve"
   width="297mm"
   height="210mm"
   viewBox="0 0 1052.3622 744.09449"
   sodipodi:docname="Galileo_Pendulum2.svg"><metadata
     id="metadata8"><rdf:RDF><cc:Work
         rdf:about=""><dc:format>image/svg+xml</dc:format><dc:type
           rdf:resource="http://purl.org/dc/dcmitype/StillImage" /><dc:title></dc:title></cc:Work></rdf:RDF></metadata><defs
     id="defs6" /><sodipodi:namedview
     pagecolor="#ffffff"
     bordercolor="#666666"
     borderopacity="1"
     objecttolerance="10"
     gridtolerance="10"
     guidetolerance="10"
     inkscape:pageopacity="0"
     inkscape:pageshadow="2"
     inkscape:window-width="1366"
     inkscape:window-height="707"
     id="namedview4"
     showgrid="false"
     inkscape:zoom="0.87468909"
     inkscape:cx="475.47535"
     inkscape:cy="405.6524"
     inkscape:window-x="0"
     inkscape:window-y="0"
     inkscape:window-maximized="1"
     inkscape:current-layer="g10"
     units="mm" /><g
     id="g10"
     inkscape:groupmode="layer"
     inkscape:label="Galileo_Pendulum"
     transform="matrix(1.25,0,0,-1.25,0,744.09449)"><g
       id="g3477"
       transform="translate(-31.930604,32.336371)"><path
         d="m 341.81984,401.6153 7.19425,-1.4388 8.6338,-2.878 0,-5.7557 -8.6338,-2.878 -7.19425,-1.4391 0,-7.19468 7.19425,-2.87762 7.19484,-4.31673 -1.43868,-5.75661 -7.1947,-1.43809 -8.63379,0 -1.43911,-7.19484 7.19483,-4.31705 5.75572,-4.31675 -1.43911,-5.75573 -8.63336,0 -7.19469,0 -2.87808,-5.75572 5.75572,-4.31705 5.75616,-7.19483 -2.87808,-4.31661 -7.19483,0 -8.63381,2.87765 -2.87764,-5.75573 4.31676,-5.75571 4.31661,-7.1947 -2.87765,-4.31675 -7.19468,1.43896 -7.19484,2.87779 -4.31661,-5.75572 4.31661,-5.75572 2.87808,-7.19483 -4.31705,-4.31705 -7.19482,2.87808 -5.75573,4.31662 -5.75572,-4.31662 2.87779,-7.19483 1.43897,-7.19469 -4.31676,-2.87765 -7.19469,4.31662 -5.75572,4.31676 -5.75572,-2.87765 2.87764,-8.6338 0,-7.19483 -4.31661,-2.87808 -7.19483,5.75616 -4.31704,5.75571 -5.75572,-2.87807 0,-7.19469 0,-8.63336 -5.75573,-1.43911 -4.31675,5.75572 -4.31705,7.19483 -7.19482,-1.43911 0,-8.6338 -1.43854,-7.19469 -5.75616,-1.43868 -4.31675,7.19484 -2.87764,7.19425 -7.1947,0 -1.43911,-7.19425 -2.87793,-8.6338 -5.75572,0 -2.87807,8.6338 -1.43868,7.19425 -7.19469,0 -2.87808,-7.19425 -4.31675,-7.19484 -5.75573,1.43868 -1.43897,7.19469 0,8.6338 -7.19482,1.43911 -4.31705,-7.19483 -4.31675,-5.75572 -5.75573,1.43911 0,8.63336 0,7.19469 -5.75572,2.87807 -4.31704,-5.75571 -7.19483,-5.75616 -4.31661,2.87808 0,7.19483 2.87807,8.6338 -5.75615,2.87765 -5.75572,-4.31676 -7.19469,-4.31662 -4.31676,2.87765 1.43911,7.19469 2.87765,7.19483 -5.75572,4.31662 -5.75573,-4.31662 -7.194832,-2.87808 -4.31661,4.31705 2.87765,7.19483 4.317042,5.75572 -4.317042,5.75572 -7.19484,-2.87779 -7.19468,-1.43896 -2.87765,4.31675 4.31661,7.1947 4.31719,5.75571 -2.87808,5.75573 -8.6338,-2.87765 -7.19483,0 -2.87764,4.31661 5.75572,7.19483 5.75572,4.31705 -2.87808,5.75572 -7.19468,0 -8.63337,0 -1.43911,5.75573 5.75572,4.31675 7.19483,4.31705 -1.43911,7.19484 -8.63336,0 -7.19469,1.43809 -1.43911,5.75661 7.19483,4.31673 7.19469,2.87762 0,7.19468 -7.19469,1.4391 -8.6338,2.878 0,5.7557 8.6338,2.878 7.19469,1.4388 0,7.1947 -7.19469,2.878 -7.19483,4.3168 1.43911,5.7557 7.19469,1.439 8.63336,0 1.43911,7.1948 -7.19483,4.317 -5.75572,4.3168 1.43911,5.7557 8.63337,0 7.19468,0 2.87808,5.7557 -5.75572,4.3171 -5.75572,7.1948 2.87764,4.3166 7.19483,0 8.6338,-2.8781 2.87808,5.7557 -4.31719,5.7562 -4.31661,7.1947 2.87765,4.3168 7.19468,-1.4392 7.19484,-2.8776 4.317042,5.7557 -4.317042,5.7558 -2.87765,7.1948 4.31661,4.3166 7.194832,-2.8776 5.75573,-4.3171 5.75572,4.3171 -2.87765,7.1948 -1.43911,7.1946 4.31676,2.8777 7.19469,-4.3166 5.75572,-4.3175 5.75615,2.8784 -2.87807,8.6338 0,7.1948 4.31661,2.8777 7.19483,-5.7557 4.31704,-5.7558 5.75572,2.8777 0,7.1951 0,8.6334 5.75573,1.4391 4.31675,-5.7558 4.31705,-7.1948 7.19482,1.4391 0,8.6329 1.43897,7.1952 5.75573,1.4391 4.31675,-7.1948 2.87808,-7.1947 7.19469,0 1.43868,7.1947 2.87807,8.6337 5.75572,0 2.87793,-8.6337 1.43911,-7.1947 7.1947,0 2.87764,7.1947 4.31675,7.1948 5.75616,-1.4391 1.43854,-7.1952 0,-8.6329 7.19482,-1.4391 4.31705,7.1948 4.31675,5.7558 5.75573,-1.4391 0,-8.6334 0,-7.1951 5.75572,-2.8777 4.31704,5.7558 7.19483,5.7557 4.31661,-2.8777 0,-7.1948 -2.87764,-8.6338 5.75572,-2.8784 5.75572,4.3175 7.19469,4.3166 4.31676,-2.8777 -1.43897,-7.1946 -2.87779,-7.1948 5.75572,-4.3171 5.75573,4.3171 7.19482,2.8776 4.31705,-4.3166 -2.87808,-7.1948 -4.31661,-5.7558 4.31661,-5.7557 7.19484,2.8776 7.19468,1.4392 2.87765,-4.3168 -4.31661,-7.1947 -4.31676,-5.7562 2.87764,-5.7557 8.63381,2.8781 7.19483,0 2.87808,-4.3166 -5.75616,-7.1948 -5.75572,-4.3171 2.87808,-5.7557 7.19469,0 8.63336,0 1.43911,-5.7557 -5.75572,-4.3168 -7.19483,-4.317 1.43911,-7.1948 8.63379,0 7.1947,-1.439 1.43868,-5.7557 -7.19484,-4.3168 -7.19425,-2.878 0,-7.1947 z"
         style="fill:none;stroke:#ff0000;stroke-width:0.54512;stroke-linecap:butt;stroke-linejoin:miter;stroke-miterlimit:2.63446259;stroke-dasharray:none;stroke-opacity:1"
         id="path14"
         inkscape:connector-curvature="0" /><path
         inkscape:connector-curvature="0"
         id="path16"
         style="fill:none;stroke:#ff0000;stroke-width:0.54512;stroke-linecap:butt;stroke-linejoin:miter;stroke-miterlimit:2.63446259;stroke-dasharray:none;stroke-opacity:1"
         d="m 203.55877,400.205 c 2.98051,0 5.39669,-2.4162 5.39669,-5.3967 0,-2.9806 -2.41618,-5.3967 -5.39669,-5.3967 -2.98058,0 -5.39669,2.4161 -5.39669,5.3967 0,2.9805 2.41611,5.3967 5.39669,5.3967 z" /><path
         inkscape:connector-curvature="0"
         id="path18"
         style="fill:none;stroke:#ff0000;stroke-width:0.54512;stroke-linecap:butt;stroke-linejoin:miter;stroke-miterlimit:2.63446259;stroke-dasharray:none;stroke-opacity:1"
         d="m 211.82279,512.2687 c 58.56524,-4.0607 105.33858,-50.9475 109.22113,-109.5609 m -0.013,-15.99129 C 317.06011,328.21226 270.35464,281.43456 211.88037,277.35188 m -16.78793,0.0102 C 136.69796,281.51085 90.073168,328.24086 86.089018,386.67997 m -0.0365,15.70143 c 3.71935,58.596 50.298762,105.5479 108.735152,109.851" /><path
         inkscape:connector-curvature="0"
         id="path20"
         style="fill:none;stroke:#ff0000;stroke-width:0.54512;stroke-linecap:butt;stroke-linejoin:miter;stroke-miterlimit:2.63446259;stroke-dasharray:none;stroke-opacity:1"
         d="m 321.02729,386.53458 -93.86217,0 m -46.67597,0 -94.544792,0 m 0,15.67222 94.204092,0 m 46.67611,0 94.20273,0" /><path
         inkscape:connector-curvature="0"
         id="path22"
         style="fill:none;stroke:#ff0000;stroke-width:0.54512;stroke-linecap:butt;stroke-linejoin:miter;stroke-miterlimit:2.63446259;stroke-dasharray:none;stroke-opacity:1"
         d="m 195.64969,417.7088 0,94.2035 m 16.01276,0 0,-93.5222 m 0,-45.9945 -0.34049,-95.56622 m -15.67227,0 0,94.54425" /><path
         inkscape:connector-curvature="0"
         id="path24"
         style="fill:none;stroke:#ff0000;stroke-width:0.54512;stroke-linecap:butt;stroke-linejoin:miter;stroke-miterlimit:2.63446259;stroke-dasharray:none;stroke-opacity:1"
         d="m 180.11384,402.0473 c 2.32984,7.5547 8.21094,13.5519 15.69366,16.0417 m 16.17133,-0.2335 c 7.15013,-2.6129 12.74388,-8.4586 15.01206,-15.7673 m -0.19127,-15.1491 c -2.37148,-7.00668 -7.82288,-12.59347 -14.74236,-15.14906 m -16.60054,-0.14276 c -6.9556,2.43301 -12.48148,7.91099 -14.97956,14.83572" /></g><g
       id="g3581"
       transform="translate(-126.5905,-168.51028)"><path
         inkscape:connector-curvature="0"
         id="path26"
         style="fill:none;stroke:#ff0000;stroke-width:0.54512;stroke-linecap:butt;stroke-linejoin:miter;stroke-miterlimit:2.63446259;stroke-dasharray:none;stroke-opacity:1"
         d="m 328.89269,283.13506 c 2.43853,0 4.41547,-1.97674 4.41547,-4.41547 0,-2.43873 -1.97694,-4.41548 -4.41547,-4.41548 -2.43859,0 -4.41547,1.97675 -4.41547,4.41548 0,2.43873 1.97688,4.41547 4.41547,4.41547 z" /><path
         inkscape:connector-curvature="0"
         id="path28"
         style="fill:none;stroke:#ff0000;stroke-width:0.54512;stroke-linecap:butt;stroke-linejoin:miter;stroke-miterlimit:2.63446259;stroke-dasharray:none;stroke-opacity:1"
         d="m 350.69749,295.23011 c 2.43853,0 4.41547,-1.97674 4.41547,-4.41547 0,-2.43873 -1.97694,-4.41547 -4.41547,-4.41547 -2.43853,0 -4.41547,1.97674 -4.41547,4.41547 0,2.43873 1.97694,4.41547 4.41547,4.41547 z" /><path
         inkscape:connector-curvature="0"
         id="path30"
         style="fill:none;stroke:#ff0000;stroke-width:0.54512;stroke-linecap:butt;stroke-linejoin:miter;stroke-miterlimit:2.63446259;stroke-dasharray:none;stroke-opacity:1"
         d="m 375.73894,295.05956 c 2.43859,0 4.41547,-1.97674 4.41547,-4.41547 0,-2.43873 -1.97688,-4.41548 -4.41547,-4.41548 -2.43853,0 -4.41547,1.97675 -4.41547,4.41548 0,2.43873 1.97694,4.41547 4.41547,4.41547 z" /><path
         inkscape:connector-curvature="0"
         id="path32"
         style="fill:none;stroke:#ff0000;stroke-width:0.54512;stroke-linecap:butt;stroke-linejoin:miter;stroke-miterlimit:2.63446259;stroke-dasharray:none;stroke-opacity:1"
         d="m 397.88451,282.45379 c 2.43852,0 4.41547,-1.97667 4.41547,-4.41547 0,-2.43873 -1.97695,-4.41547 -4.41547,-4.41547 -2.43853,0 -4.41547,1.97674 -4.41547,4.41547 0,2.4388 1.97694,4.41547 4.41547,4.41547 z" /><path
         inkscape:connector-curvature="0"
         id="path34"
         style="fill:none;stroke:#ff0000;stroke-width:0.54512;stroke-linecap:butt;stroke-linejoin:miter;stroke-miterlimit:2.63446259;stroke-dasharray:none;stroke-opacity:1"
         d="m 410.83118,260.98949 c 2.43852,0 4.41547,-1.97667 4.41547,-4.41547 0,-2.43873 -1.97695,-4.41547 -4.41547,-4.41547 -2.4386,0 -4.41548,1.97674 -4.41548,4.41547 0,2.4388 1.97688,4.41547 4.41548,4.41547 z" /><path
         inkscape:connector-curvature="0"
         id="path36"
         style="fill:none;stroke:#ff0000;stroke-width:0.54512;stroke-linecap:butt;stroke-linejoin:miter;stroke-miterlimit:2.63446259;stroke-dasharray:none;stroke-opacity:1"
         d="m 410.14971,235.26657 c 2.43852,0 4.41547,-1.97667 4.41547,-4.41547 0,-2.43873 -1.97695,-4.41547 -4.41547,-4.41547 -2.43853,0 -4.41547,1.97674 -4.41547,4.41547 0,2.4388 1.97694,4.41547 4.41547,4.41547 z" /><path
         inkscape:connector-curvature="0"
         id="path38"
         style="fill:none;stroke:#ff0000;stroke-width:0.54512;stroke-linecap:butt;stroke-linejoin:miter;stroke-miterlimit:2.63446259;stroke-dasharray:none;stroke-opacity:1"
         d="m 397.71416,212.95072 c 2.43852,0 4.41547,-1.97674 4.41547,-4.41547 0,-2.4388 -1.97695,-4.41547 -4.41547,-4.41547 -2.4386,0 -4.41547,1.97667 -4.41547,4.41547 0,2.43873 1.97687,4.41547 4.41547,4.41547 z" /><path
         inkscape:connector-curvature="0"
         id="path40"
         style="fill:none;stroke:#ff0000;stroke-width:0.54512;stroke-linecap:butt;stroke-linejoin:miter;stroke-miterlimit:2.63446259;stroke-dasharray:none;stroke-opacity:1"
         d="m 376.07971,200.85587 c 2.43852,0 4.41547,-1.97674 4.41547,-4.41547 0,-2.43873 -1.97695,-4.41547 -4.41547,-4.41547 -2.4386,0 -4.41547,1.97674 -4.41547,4.41547 0,2.43873 1.97687,4.41547 4.41547,4.41547 z" /><path
         inkscape:connector-curvature="0"
         id="path42"
         style="fill:none;stroke:#ff0000;stroke-width:0.54512;stroke-linecap:butt;stroke-linejoin:miter;stroke-miterlimit:2.63446259;stroke-dasharray:none;stroke-opacity:1"
         d="m 315.94623,260.98949 c 2.43852,0 4.41547,-1.97667 4.41547,-4.41547 0,-2.43873 -1.97695,-4.41547 -4.41547,-4.41547 -2.4386,0 -4.41548,1.97674 -4.41548,4.41547 0,2.4388 1.97688,4.41547 4.41548,4.41547 z" /><path
         inkscape:connector-curvature="0"
         id="path44"
         style="fill:none;stroke:#ff0000;stroke-width:0.54512;stroke-linecap:butt;stroke-linejoin:miter;stroke-miterlimit:2.63446259;stroke-dasharray:none;stroke-opacity:1"
         d="m 316.45707,235.26657 c 2.4386,0 4.41547,-1.97667 4.41547,-4.41547 0,-2.43873 -1.97687,-4.41547 -4.41547,-4.41547 -2.43852,0 -4.41547,1.97674 -4.41547,4.41547 0,2.4388 1.97695,4.41547 4.41547,4.41547 z" /><path
         inkscape:connector-curvature="0"
         id="path46"
         style="fill:none;stroke:#ff0000;stroke-width:0.54512;stroke-linecap:butt;stroke-linejoin:miter;stroke-miterlimit:2.63446259;stroke-dasharray:none;stroke-opacity:1"
         d="m 328.89269,213.29142 c 2.43853,0 4.41547,-1.97674 4.41547,-4.41547 0,-2.43873 -1.97694,-4.41547 -4.41547,-4.41547 -2.43859,0 -4.41547,1.97674 -4.41547,4.41547 0,2.43873 1.97688,4.41547 4.41547,4.41547 z" /><path
         inkscape:connector-curvature="0"
         id="path48"
         style="fill:none;stroke:#ff0000;stroke-width:0.54512;stroke-linecap:butt;stroke-linejoin:miter;stroke-miterlimit:2.63446259;stroke-dasharray:none;stroke-opacity:1"
         d="m 350.52714,200.41971 c 2.53379,0 4.58793,-2.08665 4.58793,-4.66078 0,-2.57412 -2.05414,-4.66077 -4.58793,-4.66077 -2.53379,0 -4.588,2.08665 -4.588,4.66077 0,2.57413 2.05421,4.66078 4.588,4.66078 z" /><path
         inkscape:connector-curvature="0"
         id="path50"
         style="fill:none;stroke:#ff0000;stroke-width:0.54512;stroke-linecap:butt;stroke-linejoin:miter;stroke-miterlimit:2.63446259;stroke-dasharray:none;stroke-opacity:1"
         d="m 363.36812,248.83406 c 2.98072,0 5.39724,-2.41658 5.39724,-5.3973 0,-2.98071 -2.41652,-5.39723 -5.39724,-5.39723 -2.98071,0 -5.3973,2.41652 -5.3973,5.39723 0,2.98072 2.41659,5.3973 5.3973,5.3973 z" /><path
         inkscape:connector-curvature="0"
         id="path52"
         style="fill:none;stroke:#ff0000;stroke-width:0.54512;stroke-linecap:butt;stroke-linejoin:miter;stroke-miterlimit:2.63446259;stroke-dasharray:none;stroke-opacity:1"
         d="m 363.36812,305.14421 c 33.86933,0 61.3258,-27.48113 61.3258,-61.3816 0,-33.90027 -27.45647,-61.3814 -61.3258,-61.3814 -33.86932,0 -61.32579,27.48113 -61.32579,61.3814 0,33.90047 27.45647,61.3816 61.32579,61.3816 z" /><path
         inkscape:connector-curvature="0"
         id="path54"
         style="fill:none;stroke:#ff0000;stroke-width:0.54512;stroke-linecap:butt;stroke-linejoin:miter;stroke-miterlimit:2.63446259;stroke-dasharray:none;stroke-opacity:1"
         d="m 369.23804,282.98167 c 17.1751,-2.55013 30.75765,-16.11429 33.336,-33.28039 m -0.01,-11.94494 c -2.61623,-17.2213 -16.3104,-30.80378 -33.586,-33.25184 m -11.44275,0.0313 c -17.18211,2.53147 -30.77775,16.08486 -33.37347,33.24626 m -0.085,11.36779 c 2.37366,17.4726 16.12921,31.32785 33.55316,33.85196" /><path
         inkscape:connector-curvature="0"
         id="path56"
         style="fill:none;stroke:#ff0000;stroke-width:0.54512;stroke-linecap:butt;stroke-linejoin:miter;stroke-miterlimit:2.63446259;stroke-dasharray:none;stroke-opacity:1"
         d="m 369.54685,267.50824 c 8.59321,-2.22975 15.35685,-9.00095 17.57522,-17.59893 m 0.007,-12.26636 c -2.17973,-8.48792 -8.78768,-15.20033 -17.21557,-17.52785 m -12.10507,-0.25014 c -8.81466,2.04222 -15.80896,8.83673 -18.13819,17.53794 m -0.0572,12.50239 c 2.23302,8.66094 9.07802,15.46921 17.75981,17.6499" /><path
         inkscape:connector-curvature="0"
         id="path58"
         style="fill:none;stroke:#ff0000;stroke-width:0.54512;stroke-linecap:butt;stroke-linejoin:miter;stroke-miterlimit:2.63446259;stroke-dasharray:none;stroke-opacity:1"
         d="m 402.51265,237.42661 -15.55984,0 m -47.18702,0 -15.54859,0 m -0.063,12.2652 15.27106,0 m 47.69807,0 15.45068,0.009" /><path
         inkscape:connector-curvature="0"
         id="path60"
         style="fill:none;stroke:#ff0000;stroke-width:0.54512;stroke-linecap:butt;stroke-linejoin:miter;stroke-miterlimit:2.63446259;stroke-dasharray:none;stroke-opacity:1"
         d="m 369.23804,282.98167 0.42104,-15.52576 m 0,-47.69814 -0.68106,-15.25327 m -11.44275,0.0313 -0.14139,15.222 m 0,47.86849 0.23604,15.37552" /></g><g
       id="g3489"
       transform="translate(-141.87426,-75.667108)"><path
         inkscape:connector-curvature="0"
         id="path62"
         style="fill:none;stroke:#ff0000;stroke-width:0.54512;stroke-linecap:butt;stroke-linejoin:miter;stroke-miterlimit:2.63446259;stroke-dasharray:none;stroke-opacity:1"
         d="m 330.70889,532.4838 c 0,6.7739 5.49134,12.2652 12.2652,12.2652 6.77387,0 12.2652,-5.4913 12.2652,-12.2652 0,-6.7738 -5.49133,-12.2652 -12.2652,-12.2652 -6.77386,0 -12.2652,5.4914 -12.2652,12.2652 z" /><path
         inkscape:connector-curvature="0"
         id="path64"
         style="fill:none;stroke:#ff0000;stroke-width:0.54512;stroke-linecap:butt;stroke-linejoin:miter;stroke-miterlimit:2.63446259;stroke-dasharray:none;stroke-opacity:1"
         d="m 337.57741,532.4838 c 0,2.9806 2.4161,5.3967 5.39668,5.3967 2.98052,0 5.39669,-2.4161 5.39669,-5.3967 0,-2.9805 -2.41617,-5.3966 -5.39669,-5.3966 -2.98058,0 -5.39668,2.4161 -5.39668,5.3966 z" /></g><g
       id="g3501"
       transform="translate(-106.95099,-79.547473)"><path
         inkscape:connector-curvature="0"
         id="path66"
         style="fill:none;stroke:#ff0000;stroke-width:0.54512;stroke-linecap:butt;stroke-linejoin:miter;stroke-miterlimit:2.63446259;stroke-dasharray:none;stroke-opacity:1"
         d="m 359.32776,532.4838 c 0,6.7739 5.49134,12.2652 12.2652,12.2652 6.77387,0 12.2652,-5.4913 12.2652,-12.2652 0,-6.7738 -5.49133,-12.2652 -12.2652,-12.2652 -6.77386,0 -12.2652,5.4914 -12.2652,12.2652 z" /><path
         inkscape:connector-curvature="0"
         id="path68"
         style="fill:none;stroke:#ff0000;stroke-width:0.54512;stroke-linecap:butt;stroke-linejoin:miter;stroke-miterlimit:2.63446259;stroke-dasharray:none;stroke-opacity:1"
         d="m 366.19627,532.4838 c 0,2.9806 2.41611,5.3967 5.39669,5.3967 2.98051,0 5.39669,-2.4161 5.39669,-5.3967 0,-2.9805 -2.41618,-5.3966 -5.39669,-5.3966 -2.98058,0 -5.39669,2.4161 -5.39669,5.3966 z" /></g><g
       id="g3485"
       transform="translate(-112.1248,-7.7607292)"><path
         inkscape:connector-curvature="0"
         id="path70"
         style="fill:none;stroke:#ff0000;stroke-width:0.54512;stroke-linecap:butt;stroke-linejoin:miter;stroke-miterlimit:2.63446259;stroke-dasharray:none;stroke-opacity:1"
         d="m 296.63883,531.121 c 0,6.7738 5.49133,12.2652 12.2652,12.2652 6.77386,0 12.2652,-5.4914 12.2652,-12.2652 0,-6.7739 -5.49134,-12.2652 -12.2652,-12.2652 -6.77387,0 -12.2652,5.4913 -12.2652,12.2652 z" /><path
         inkscape:connector-curvature="0"
         id="path72"
         style="fill:none;stroke:#ff0000;stroke-width:0.54512;stroke-linecap:butt;stroke-linejoin:miter;stroke-miterlimit:2.63446259;stroke-dasharray:none;stroke-opacity:1"
         d="m 303.50734,531.121 c 0,2.9806 2.41617,5.3967 5.39669,5.3967 2.98058,0 5.39668,-2.4161 5.39668,-5.3967 0,-2.9805 -2.4161,-5.3967 -5.39668,-5.3967 -2.98052,0 -5.39669,2.4162 -5.39669,5.3967 z" /></g><g
       id="g3497"
       transform="translate(-289.32811,-48.504557)"><path
         inkscape:connector-curvature="0"
         id="path74"
         style="fill:none;stroke:#ff0000;stroke-width:0.54512;stroke-linecap:butt;stroke-linejoin:miter;stroke-miterlimit:2.63446259;stroke-dasharray:none;stroke-opacity:1"
         d="m 353.87656,501.1397 c 0,6.7738 5.49134,12.2652 12.2652,12.2652 6.77387,0 12.2652,-5.4914 12.2652,-12.2652 0,-6.7739 -5.49133,-12.2652 -12.2652,-12.2652 -6.77386,0 -12.2652,5.4913 -12.2652,12.2652 z" /><path
         inkscape:connector-curvature="0"
         id="path76"
         style="fill:none;stroke:#ff0000;stroke-width:0.54512;stroke-linecap:butt;stroke-linejoin:miter;stroke-miterlimit:2.63446259;stroke-dasharray:none;stroke-opacity:1"
         d="m 360.74507,501.1397 c 0,2.9805 2.41618,5.3966 5.39669,5.3966 2.98058,0 5.39669,-2.4161 5.39669,-5.3966 0,-2.9806 -2.41611,-5.3967 -5.39669,-5.3967 -2.98051,0 -5.39669,2.4161 -5.39669,5.3967 z" /></g><g
       id="g3509"
       transform="translate(-197.49283,-165.56222)"><path
         inkscape:connector-curvature="0"
         id="path78"
         style="fill:none;stroke:#ff0000;stroke-width:0.54512;stroke-linecap:butt;stroke-linejoin:miter;stroke-miterlimit:2.63446259;stroke-dasharray:none;stroke-opacity:1"
         d="m 383.85816,502.5025 c 0,6.7739 5.49134,12.2652 12.2652,12.2652 6.77387,0 12.2652,-5.4913 12.2652,-12.2652 0,-6.7738 -5.49133,-12.2652 -12.2652,-12.2652 -6.77386,0 -12.2652,5.4914 -12.2652,12.2652 z" /><path
         inkscape:connector-curvature="0"
         id="path80"
         style="fill:none;stroke:#ff0000;stroke-width:0.54512;stroke-linecap:butt;stroke-linejoin:miter;stroke-miterlimit:2.63446259;stroke-dasharray:none;stroke-opacity:1"
         d="m 390.72667,502.5025 c 0,2.9805 2.41611,5.3967 5.39669,5.3967 2.98051,0 5.39669,-2.4162 5.39669,-5.3967 0,-2.9806 -2.41618,-5.3967 -5.39669,-5.3967 -2.98058,0 -5.39669,2.4161 -5.39669,5.3967 z" /></g><g
       id="g3493"
       transform="translate(-107.59772,8.4074561)"><path
         inkscape:connector-curvature="0"
         id="path82"
         style="fill:none;stroke:#ff0000;stroke-width:0.54512;stroke-linecap:butt;stroke-linejoin:miter;stroke-miterlimit:2.63446259;stroke-dasharray:none;stroke-opacity:1"
         d="m 321.16923,502.5025 c 0,6.7739 5.49133,12.2652 12.2652,12.2652 6.77386,0 12.2652,-5.4913 12.2652,-12.2652 0,-6.7738 -5.49134,-12.2652 -12.2652,-12.2652 -6.77387,0 -12.2652,5.4914 -12.2652,12.2652 z" /><path
         inkscape:connector-curvature="0"
         id="path84"
         style="fill:none;stroke:#ff0000;stroke-width:0.54512;stroke-linecap:butt;stroke-linejoin:miter;stroke-miterlimit:2.63446259;stroke-dasharray:none;stroke-opacity:1"
         d="m 328.03774,502.5025 c 0,2.9805 2.41617,5.3967 5.39669,5.3967 2.98058,0 5.39668,-2.4162 5.39668,-5.3967 0,-2.9806 -2.4161,-5.3967 -5.39668,-5.3967 -2.98052,0 -5.39669,2.4161 -5.39669,5.3967 z" /></g><g
       id="g3505"
       transform="translate(-134.11354,-130.63894)"><path
         inkscape:connector-curvature="0"
         id="path86"
         style="fill:none;stroke:#ff0000;stroke-width:0.54512;stroke-linecap:butt;stroke-linejoin:miter;stroke-miterlimit:2.63446259;stroke-dasharray:none;stroke-opacity:1"
         d="m 387.94663,531.1212 c 0,6.7738 5.49133,12.2652 12.2652,12.2652 6.77387,0 12.2652,-5.4914 12.2652,-12.2652 0,-6.7739 -5.49133,-12.2652 -12.2652,-12.2652 -6.77387,0 -12.2652,5.4913 -12.2652,12.2652 z" /><path
         inkscape:connector-curvature="0"
         id="path88"
         style="fill:none;stroke:#ff0000;stroke-width:0.54512;stroke-linecap:butt;stroke-linejoin:miter;stroke-miterlimit:2.63446259;stroke-dasharray:none;stroke-opacity:1"
         d="m 394.81514,531.1212 c 0,2.9805 2.41611,5.3967 5.39669,5.3967 2.98051,0 5.39669,-2.4162 5.39669,-5.3967 0,-2.9805 -2.41618,-5.3967 -5.39669,-5.3967 -2.98058,0 -5.39669,2.4162 -5.39669,5.3967 z" /></g><g
       id="g3521"
       transform="translate(-359.17468,-112.53057)"><path
         inkscape:connector-curvature="0"
         id="path90"
         style="fill:none;stroke:#ff0000;stroke-width:0.54512;stroke-linecap:butt;stroke-linejoin:miter;stroke-miterlimit:2.63446259;stroke-dasharray:none;stroke-opacity:1"
         d="m 423.32465,512.4783 c 0,6.7739 5.49133,12.2652 12.2652,12.2652 6.77386,0 12.2652,-5.4913 12.2652,-12.2652 0,-6.7739 -5.49134,-12.2652 -12.2652,-12.2652 -6.77387,0 -12.2652,5.4913 -12.2652,12.2652 z" /><path
         inkscape:connector-curvature="0"
         id="path92"
         style="fill:none;stroke:#ff0000;stroke-width:0.54512;stroke-linecap:butt;stroke-linejoin:miter;stroke-miterlimit:2.63446259;stroke-dasharray:none;stroke-opacity:1"
         d="m 430.19316,512.4783 c 0,2.9805 2.41617,5.3967 5.39669,5.3967 2.98058,0 5.39668,-2.4162 5.39668,-5.3967 0,-2.9806 -2.4161,-5.3967 -5.39668,-5.3967 -2.98052,0 -5.39669,2.4161 -5.39669,5.3967 z" /></g><path
       d="m 260.71362,233.69004 17.71633,0 0,-39.2487 -17.71633,0 0,39.2487 z"
       style="fill:none;stroke:#ff0000;stroke-width:0.54512;stroke-linecap:butt;stroke-linejoin:miter;stroke-miterlimit:2.63446259;stroke-dasharray:none;stroke-opacity:1"
       id="path94"
       inkscape:connector-curvature="0" /><g
       id="g3461"
       transform="translate(-41.926321,20.251435)"><path
         d="m 225.89631,166.28037 2.93776,0 4.40532,-1.46888 8.81137,-2.93731 0,-4.40488 -8.81137,-2.93732 -4.40532,-1.46888 -2.93776,0 0,-8.81137 1.46888,0 4.4062,-1.46844 7.3422,-5.8742 -1.468,-4.40605 -8.81152,-1.46814 -5.87419,0 -1.46918,1.46814 -2.93688,-8.81151 1.46844,0 4.40562,-4.40532 5.87419,-5.8742 -2.93688,-4.40605 -8.81137,1.46888 -4.40532,1.46799 -1.46932,1.46918 -5.87405,-7.34337 1.4683,-1.468 2.93732,-4.4062 4.40575,-7.342487 -4.40575,-4.4062 -7.34293,4.4062 -4.40576,2.93732 -1.46844,1.468 -7.34293,-5.8742 1.46873,-1.46844 1.46844,-4.4062 1.46844,-8.81137 -4.40561,-2.93688 -5.8742,5.8742 -4.40576,4.40605 0,1.468 -8.81137,-2.93687 1.46844,-2.93718 0,-4.40532 -1.46844,-8.81151 -4.40576,-1.46888 -5.8742,7.34263 -1.46843,4.40576 0,1.46932 -8.81138,0 0,-2.93732 -1.46888,-4.4062 -2.93732,-8.81136 -4.40531,0 -2.93688,8.81136 -1.46888,4.4062 0,2.93732 -8.81137,0 0,-1.46932 -1.46844,-4.40576 -5.87419,-7.34263 -4.40606,1.46888 -1.468,8.81151 0,4.40532 1.468,2.93718 -8.81152,2.93687 0,-1.468 -4.40532,-4.40605 -5.874052,-5.8742 -4.40619,2.93688 1.46888,8.81137 1.468,4.4062 1.46931,1.46844 -7.34351,5.8742 -1.468,-1.468 -4.40605,-2.93732 -7.34264,-4.4062 -4.4062,4.4062 4.4062,7.342487 2.93732,4.4062 1.468,1.468 -5.8742,7.34337 -1.46844,-1.46918 -4.40605,-1.46799 -8.81152,-1.46888 -2.93688,4.40605 5.8742,5.8742 4.40605,4.40532 1.46815,0 -2.93688,8.81151 -2.93732,-1.46814 -4.40532,0 -8.81151,1.46814 -1.46874,4.40605 7.34249,5.8742 4.40576,1.46844 1.46932,0 0,8.81137 -2.93732,0 -4.4062,1.46888 -8.81137,2.93732 0,4.40488 8.81137,2.93731 4.4062,1.46888 2.93732,0 0,8.81138 -1.46932,0 -4.40576,1.46844 -7.34249,5.8742 1.46874,4.40604 8.81151,1.46801 4.40532,0 2.93732,-1.46801 2.93688,8.81152 -1.46815,0 -4.40605,4.40532 -5.8742,5.87405 2.93688,4.4062 8.81152,-1.46888 4.40605,-1.46844 1.46844,-1.46888 5.8742,7.34352 -1.468,1.468 -2.93732,4.40605 -4.4062,7.34264 4.4062,4.40575 7.34264,-4.40575 4.40605,-2.93733 1.468,-1.46843 7.34351,5.87463 -1.46931,1.46888 -1.468,4.40532 -1.46888,8.81138 4.40619,2.93687 5.874052,-5.8742 4.40532,-4.40561 0,-1.46844 8.81152,2.93718 -1.468,1.46888 0,5.87419 1.468,8.81137 4.40606,1.46801 5.87419,-7.34206 1.46844,-4.40619 0,-1.46888 8.81137,0 0,2.93775 1.46888,4.40532 2.93688,8.81137 4.40531,0 2.93732,-8.81137 1.46888,-4.40532 0,-2.93775 8.81138,0 0,1.46888 1.46843,4.40619 5.8742,7.34206 4.40576,-1.46801 1.46844,-8.81137 0,-5.87419 -1.46844,-1.46888 8.81137,-2.93718 0,1.46844 4.40576,4.40561 5.8742,5.8742 4.40561,-2.93687 -1.46844,-8.81138 -1.46844,-4.40532 -1.46873,-1.46888 7.34293,-5.87463 1.46844,1.46843 4.40576,2.93733 7.34293,4.40575 4.40575,-4.40575 -4.40575,-7.34264 -2.93732,-4.40605 -1.4683,-1.468 5.87405,-7.34352 1.46932,1.46888 4.40532,1.46844 8.81137,1.46888 2.93688,-4.4062 -5.87419,-5.87405 -4.40562,-4.40532 -1.46844,0 2.93688,-8.81152 1.46918,1.46801 5.87419,0 8.81152,-1.46801 1.468,-4.40604 -7.3422,-5.8742 -4.4062,-1.46844 -1.46888,0 0,-8.81138 z"
         style="fill:none;stroke:#ff0000;stroke-width:0.54512;stroke-linecap:butt;stroke-linejoin:miter;stroke-miterlimit:2.63446259;stroke-dasharray:none;stroke-opacity:1"
         id="path98"
         inkscape:connector-curvature="0" /><path
         inkscape:connector-curvature="0"
         id="path100"
         style="fill:none;stroke:#ff0000;stroke-width:0.54512;stroke-linecap:butt;stroke-linejoin:miter;stroke-miterlimit:2.63446259;stroke-dasharray:none;stroke-opacity:1"
         d="m 143.74377,165.41524 c -2.98051,0 -5.39669,-2.41618 -5.39669,-5.39669 0,-2.98058 2.41618,-5.39669 5.39669,-5.39669 2.98051,0 5.39669,2.41611 5.39669,5.39669 0,2.98051 -2.41618,5.39669 -5.39669,5.39669 z" /><path
         inkscape:connector-curvature="0"
         id="path102"
         style="fill:none;stroke:#ff0000;stroke-width:0.54512;stroke-linecap:butt;stroke-linejoin:miter;stroke-miterlimit:2.63446259;stroke-dasharray:none;stroke-opacity:1"
         d="m 150.20862,91.633583 c 32.55198,3.03864 58.50692,28.794397 61.85463,61.255477 m 0.029,13.97265 c -3.21191,32.47287 -29.04052,58.29875 -61.51488,61.50623 m -13.63447,0.003 C 104.32946,225.16543 78.411998,199.1489 75.359598,166.49103 m -0.002,-12.92854 c 3.05451,-32.76696 29.126852,-58.852047 61.888432,-61.926107" /><path
         inkscape:connector-curvature="0"
         id="path104"
         style="fill:none;stroke:#ff0000;stroke-width:0.54512;stroke-linecap:butt;stroke-linejoin:miter;stroke-miterlimit:2.63446259;stroke-dasharray:none;stroke-opacity:1"
         d="m 167.5848,165.8174 c -2.09708,8.65187 -8.78127,15.51186 -17.33257,17.85888 m -12.70327,0.0838 c -8.56806,-2.22934 -15.31412,-8.97445 -17.54523,-17.54135 m 0.058,-12.61925 c 2.35934,-8.72547 9.41251,-15.52291 18.28284,-17.51525 m 12.22888,0.36713 c 8.29707,2.4001 14.78448,9.06351 16.93525,17.46333" /><path
         inkscape:connector-curvature="0"
         id="path106"
         style="fill:none;stroke:#ff0000;stroke-width:0.54512;stroke-linecap:butt;stroke-linejoin:miter;stroke-miterlimit:2.63446259;stroke-dasharray:none;stroke-opacity:1"
         d="m 211.88439,153.55199 -44.29203,0 m -47.35723,0 -44.630812,0 m 0,12.6059 43.949412,0 m 48.03863,0 44.29203,0" /><path
         inkscape:connector-curvature="0"
         id="path108"
         style="fill:none;stroke:#ff0000;stroke-width:0.54512;stroke-linecap:butt;stroke-linejoin:miter;stroke-miterlimit:2.63446259;stroke-dasharray:none;stroke-opacity:1"
         d="m 150.04734,227.99494 -2.1e-4,-44.45951 m 0,-47.35757 2.1e-4,-44.462977 m -12.60597,0 0,44.463177 m 0,47.69814 0,44.11874" /></g><g
       id="g3577"
       transform="translate(-156.72996,-171.99142)"><path
         inkscape:connector-curvature="0"
         id="path138"
         style="fill:none;stroke:#ff0000;stroke-width:0.54512;stroke-linecap:butt;stroke-linejoin:miter;stroke-miterlimit:2.63446259;stroke-dasharray:none;stroke-opacity:1"
         d="m 368.36129,422.3154 28.81415,0 0,-70.46701 -28.81415,0 0,70.46701 z" /><path
         inkscape:connector-curvature="0"
         id="path140"
         style="fill:none;stroke:#ff0000;stroke-width:0.54512;stroke-linecap:butt;stroke-linejoin:miter;stroke-miterlimit:2.63446259;stroke-dasharray:none;stroke-opacity:1"
         d="m 368.36129,351.84839 28.81415,70.46701" /></g><g
       id="g3469"
       transform="translate(-12.528781,21.342005)"><path
         inkscape:connector-curvature="0"
         id="path150"
         style="fill:none;stroke:#ff0000;stroke-width:0.54512;stroke-linecap:butt;stroke-linejoin:miter;stroke-miterlimit:2.63446259;stroke-dasharray:none;stroke-opacity:1"
         d="m 146.7172,452.4416 c -2.98058,0 -5.39669,-2.4161 -5.39669,-5.3967 0,-2.9805 2.41611,-5.3967 5.39669,-5.3967 2.98051,0 5.39669,2.4162 5.39669,5.3967 0,2.9806 -2.41618,5.3967 -5.39669,5.3967 z" /><path
         d="m 157.06133,456.906 4.14227,4.3064 1.22794,0.7696 c 2.10057,0.4855 3.81768,1.1838 6.17383,0.86 1.09653,-0.082 1.81071,-0.9312 2.65199,-1.6949 0.29167,-1.2145 0.0724,-2.1734 -0.10412,-3.8567 l -3.33424,-3.9037 -1.22794,-0.7697 -6.11939,-2.1202 -0.0908,-6.8045 6.97384,-1.9555 1.93535,-1.5705 c 0.42206,-0.6457 0.84305,-1.2925 1.26454,-1.9385 0.34226,-1.7672 0.3863,-3.1081 -0.37863,-5.0453 -1.05815,-0.9517 -1.9245,-2.0055 -4.50525,-2.1374 l -2.94795,0.8063 -2.38909,1.0829 -3.3062,4.1749 -6.14497,-3.8703 1.64121,-5.9559 -0.004,-1.4498 -1.78464,-4.5315 c -0.47664,-0.5985 -1.13798,-1.5774 -3.63091,-2.4127 -1.42715,0.1383 -2.30089,0.83 -3.25964,2.3307 l -1.46855,4.6437 0.004,1.4492 1.46574,5.7926 -7.01378,4.0735 -3.38801,-3.6386 c -0.47541,-0.2421 -0.95092,-0.4837 -1.42632,-0.7257 l -6.26386,-0.7765 c -0.86752,0.1965 -2.09698,0.5 -2.64539,1.6121 -0.27756,0.9831 -0.44885,2.0086 -0.27942,3.2257 1.18984,2.0729 2.35819,3.1459 4.03799,4.7503 l 0.8486,0.5107 5.71743,0.9766 -0.34722,7.5056 -5.12488,1.3721 -1.19148,0.7496 c -1.37839,1.6449 -2.50118,2.9499 -3.53896,5.0207 -0.70897,1.5044 -0.56711,2.114 -0.21119,3.4901 0.63492,1.0348 1.1851,1.3876 2.41667,1.5701 l 5.31648,-0.2298 1.69112,-1.1245 4.88245,-4.4964 6.36131,3.7869 -1.19228,5.6823 0.004,1.4493 c 0.57896,2.9708 0.0383,1.7119 1.15391,4.8684 0.90994,0.6548 1.57768,1.719 3.43222,1.8593 1.36283,-0.1178 2.61973,-1.0576 3.45043,-1.9745 l 1.34796,-3.9667 0.24548,-2.1325 -1.59032,-6.2141 6.52285,-3.4232 z"
         style="fill:none;stroke:#ff0000;stroke-width:0.54512;stroke-linecap:butt;stroke-linejoin:miter;stroke-miterlimit:2.63446259;stroke-dasharray:none;stroke-opacity:1"
         id="path154"
         inkscape:connector-curvature="0" /></g><g
       id="g3529"
       transform="translate(-257.87386,-43.843523)"><path
         inkscape:connector-curvature="0"
         id="path204"
         style="fill:none;stroke:#ff0000;stroke-width:0.54512;stroke-linecap:butt;stroke-linejoin:miter;stroke-miterlimit:2.63446259;stroke-dasharray:none;stroke-opacity:1"
         d="m 386.05581,440.5837 c 0,6.7739 5.49134,12.2652 12.2652,12.2652 6.77387,0 12.2652,-5.4913 12.2652,-12.2652 0,-6.7739 -5.49133,-12.2652 -12.2652,-12.2652 -6.77386,0 -12.2652,5.4913 -12.2652,12.2652 z" /><path
         inkscape:connector-curvature="0"
         id="path206"
         style="fill:none;stroke:#ff0000;stroke-width:0.54512;stroke-linecap:butt;stroke-linejoin:miter;stroke-miterlimit:2.63446259;stroke-dasharray:none;stroke-opacity:1"
         d="m 392.92433,440.5837 c 0,2.9806 2.41617,5.3967 5.39668,5.3967 2.98058,0 5.39669,-2.4161 5.39669,-5.3967 0,-2.9805 -2.41611,-5.3967 -5.39669,-5.3967 -2.98051,0 -5.39668,2.4162 -5.39668,5.3967 z" /></g><g
       id="g3513"
       transform="translate(-256.66839,-139.0464)"><path
         inkscape:connector-curvature="0"
         id="path208"
         style="fill:none;stroke:#ff0000;stroke-width:0.54512;stroke-linecap:butt;stroke-linejoin:miter;stroke-miterlimit:2.63446259;stroke-dasharray:none;stroke-opacity:1"
         d="m 390.14428,469.2024 c 0,6.7738 5.49134,12.2652 12.2652,12.2652 6.77387,0 12.2652,-5.4914 12.2652,-12.2652 0,-6.7739 -5.49133,-12.2652 -12.2652,-12.2652 -6.77386,0 -12.2652,5.4913 -12.2652,12.2652 z" /><path
         inkscape:connector-curvature="0"
         id="path210"
         style="fill:none;stroke:#ff0000;stroke-width:0.54512;stroke-linecap:butt;stroke-linejoin:miter;stroke-miterlimit:2.63446259;stroke-dasharray:none;stroke-opacity:1"
         d="m 397.01279,469.2024 c 0,2.9805 2.41618,5.3967 5.39669,5.3967 2.98058,0 5.39669,-2.4162 5.39669,-5.3967 0,-2.9805 -2.41611,-5.3967 -5.39669,-5.3967 -2.98051,0 -5.39669,2.4162 -5.39669,5.3967 z" /></g><g
       id="g3533"
       transform="translate(-293.20849,-86.661475)"><path
         inkscape:connector-curvature="0"
         id="path212"
         style="fill:none;stroke:#ff0000;stroke-width:0.54512;stroke-linecap:butt;stroke-linejoin:miter;stroke-miterlimit:2.63446259;stroke-dasharray:none;stroke-opacity:1"
         d="m 425.52237,450.5595 c 0,6.7738 5.49133,12.2652 12.2652,12.2652 6.77386,0 12.2652,-5.4914 12.2652,-12.2652 0,-6.7739 -5.49134,-12.2652 -12.2652,-12.2652 -6.77387,0 -12.2652,5.4913 -12.2652,12.2652 z" /><path
         inkscape:connector-curvature="0"
         id="path214"
         style="fill:none;stroke:#ff0000;stroke-width:0.54512;stroke-linecap:butt;stroke-linejoin:miter;stroke-miterlimit:2.63446259;stroke-dasharray:none;stroke-opacity:1"
         d="m 432.39088,450.5595 c 0,2.9805 2.41611,5.3967 5.39669,5.3967 2.98051,0 5.39668,-2.4162 5.39668,-5.3967 0,-2.9805 -2.41617,-5.3967 -5.39668,-5.3967 -2.98058,0 -5.39669,2.4162 -5.39669,5.3967 z" /></g><g
       id="g3525"
       transform="translate(-304.84958,-14.874731)"><path
         inkscape:connector-curvature="0"
         id="path216"
         style="fill:none;stroke:#ff0000;stroke-width:0.54512;stroke-linecap:butt;stroke-linejoin:miter;stroke-miterlimit:2.63446259;stroke-dasharray:none;stroke-opacity:1"
         d="m 438.63993,537.1587 c 0,6.7739 5.49133,12.2652 12.2652,12.2652 6.77386,0 12.2652,-5.4913 12.2652,-12.2652 0,-6.7738 -5.49134,-12.2652 -12.2652,-12.2652 -6.77387,0 -12.2652,5.4914 -12.2652,12.2652 z" /><path
         inkscape:connector-curvature="0"
         id="path218"
         style="fill:none;stroke:#ff0000;stroke-width:0.54512;stroke-linecap:butt;stroke-linejoin:miter;stroke-miterlimit:2.63446259;stroke-dasharray:none;stroke-opacity:1"
         d="m 445.50844,537.1587 c 0,2.9806 2.41618,5.3967 5.39669,5.3967 2.98058,0 5.39669,-2.4161 5.39669,-5.3967 0,-2.9805 -2.41611,-5.3967 -5.39669,-5.3967 -2.98051,0 -5.39669,2.4162 -5.39669,5.3967 z" /></g><g
       id="g3517"
       transform="translate(-339.12614,-110.91375)"><path
         inkscape:connector-curvature="0"
         id="path220"
         style="fill:none;stroke:#ff0000;stroke-width:0.54512;stroke-linecap:butt;stroke-linejoin:miter;stroke-miterlimit:2.63446259;stroke-dasharray:none;stroke-opacity:1"
         d="m 418.14335,479.9212 c 0,6.7739 5.49133,12.2652 12.2652,12.2652 6.77386,0 12.2652,-5.4913 12.2652,-12.2652 0,-6.7739 -5.49134,-12.2652 -12.2652,-12.2652 -6.77387,0 -12.2652,5.4913 -12.2652,12.2652 z" /><path
         inkscape:connector-curvature="0"
         id="path222"
         style="fill:none;stroke:#ff0000;stroke-width:0.54512;stroke-linecap:butt;stroke-linejoin:miter;stroke-miterlimit:2.63446259;stroke-dasharray:none;stroke-opacity:1"
         d="m 425.01186,479.9212 c 0,2.9806 2.41611,5.3967 5.39669,5.3967 2.98051,0 5.39669,-2.4161 5.39669,-5.3967 0,-2.9805 -2.41618,-5.3967 -5.39669,-5.3967 -2.98058,0 -5.39669,2.4162 -5.39669,5.3967 z" /></g><g
       id="g3541"
       transform="translate(-307.43648,-77.607291)"><path
         inkscape:connector-curvature="0"
         id="path224"
         style="fill:none;stroke:#ff0000;stroke-width:0.54512;stroke-linecap:butt;stroke-linejoin:miter;stroke-miterlimit:2.63446259;stroke-dasharray:none;stroke-opacity:1"
         d="m 410.02106,423.9919 c 0,6.7739 5.49133,12.2652 12.2652,12.2652 6.77387,0 12.2652,-5.4913 12.2652,-12.2652 0,-6.7739 -5.49133,-12.2652 -12.2652,-12.2652 -6.77387,0 -12.2652,5.4913 -12.2652,12.2652 z" /><path
         inkscape:connector-curvature="0"
         id="path226"
         style="fill:none;stroke:#ff0000;stroke-width:0.54512;stroke-linecap:butt;stroke-linejoin:miter;stroke-miterlimit:2.63446259;stroke-dasharray:none;stroke-opacity:1"
         d="m 416.88957,423.9919 c 0,2.9806 2.41618,5.3967 5.39669,5.3967 2.98058,0 5.39669,-2.4161 5.39669,-5.3967 0,-2.9805 -2.41611,-5.3967 -5.39669,-5.3967 -2.98051,0 -5.39669,2.4162 -5.39669,5.3967 z" /></g><g
       id="g3537"
       transform="translate(-238.38684,-12.777626)"><path
         inkscape:connector-curvature="0"
         id="path228"
         style="fill:none;stroke:#ff0000;stroke-width:0.54512;stroke-linecap:butt;stroke-linejoin:miter;stroke-miterlimit:2.63446259;stroke-dasharray:none;stroke-opacity:1"
         d="m 438.69437,415.8697 c 0,6.7738 5.49134,12.2652 12.2652,12.2652 6.77387,0 12.2652,-5.4914 12.2652,-12.2652 0,-6.7739 -5.49133,-12.2652 -12.2652,-12.2652 -6.77386,0 -12.2652,5.4913 -12.2652,12.2652 z" /><path
         inkscape:connector-curvature="0"
         id="path230"
         style="fill:none;stroke:#ff0000;stroke-width:0.54512;stroke-linecap:butt;stroke-linejoin:miter;stroke-miterlimit:2.63446259;stroke-dasharray:none;stroke-opacity:1"
         d="m 445.56288,415.8697 c 0,2.9805 2.41618,5.3967 5.39669,5.3967 2.98058,0 5.39669,-2.4162 5.39669,-5.3967 0,-2.9806 -2.41611,-5.3967 -5.39669,-5.3967 -2.98051,0 -5.39669,2.4161 -5.39669,5.3967 z" /></g><g
       id="g3549"
       transform="translate(-297.08885,-17.46164)"><path
         inkscape:connector-curvature="0"
         id="path232"
         style="fill:none;stroke:#ff0000;stroke-width:0.54512;stroke-linecap:butt;stroke-linejoin:miter;stroke-miterlimit:2.63446259;stroke-dasharray:none;stroke-opacity:1"
         d="m 403.20706,394.0101 c 0,6.7739 5.49127,12.2652 12.2652,12.2652 6.77387,0 12.2652,-5.4913 12.2652,-12.2652 0,-6.7738 -5.49133,-12.26515 -12.2652,-12.26515 -6.77393,0 -12.2652,5.49135 -12.2652,12.26515 z" /><path
         inkscape:connector-curvature="0"
         id="path234"
         style="fill:none;stroke:#ff0000;stroke-width:0.54512;stroke-linecap:butt;stroke-linejoin:miter;stroke-miterlimit:2.63446259;stroke-dasharray:none;stroke-opacity:1"
         d="m 410.07557,394.0101 c 0,2.9806 2.41611,5.3967 5.39669,5.3967 2.98051,0 5.39669,-2.4161 5.39669,-5.3967 0,-2.9805 -2.41618,-5.3966 -5.39669,-5.3966 -2.98058,0 -5.39669,2.4161 -5.39669,5.3966 z" /></g><g
       id="g3545"
       transform="translate(-247.51276,-16.122224)"><path
         inkscape:connector-curvature="0"
         id="path236"
         style="fill:none;stroke:#ff0000;stroke-width:0.54512;stroke-linecap:butt;stroke-linejoin:miter;stroke-miterlimit:2.63446259;stroke-dasharray:none;stroke-opacity:1"
         d="m 430.46299,385.94258 c 0,6.77382 5.49134,12.26522 12.2652,12.26522 6.77387,0 12.2652,-5.4914 12.2652,-12.26522 0,-6.77387 -5.49133,-12.2652 -12.2652,-12.2652 -6.77386,0 -12.2652,5.49133 -12.2652,12.2652 z" /><path
         inkscape:connector-curvature="0"
         id="path238"
         style="fill:none;stroke:#ff0000;stroke-width:0.54512;stroke-linecap:butt;stroke-linejoin:miter;stroke-miterlimit:2.63446259;stroke-dasharray:none;stroke-opacity:1"
         d="m 437.3315,385.94258 c 0,2.98052 2.41618,5.39672 5.39669,5.39672 2.98058,0 5.39669,-2.4162 5.39669,-5.39672 0,-2.98058 -2.41611,-5.39669 -5.39669,-5.39669 -2.98051,0 -5.39669,2.41611 -5.39669,5.39669 z" /></g><g
       id="g3557"
       transform="translate(-217.54138,129.34548)"><path
         inkscape:connector-curvature="0"
         id="path240"
         style="fill:none;stroke:#ff0000;stroke-width:0.54512;stroke-linecap:butt;stroke-linejoin:miter;stroke-miterlimit:2.63446259;stroke-dasharray:none;stroke-opacity:1"
         d="m 404.62437,361.35746 c 0,6.77387 5.49134,12.2652 12.2652,12.2652 6.77387,0 12.2652,-5.49133 12.2652,-12.2652 0,-6.77386 -5.49133,-12.2652 -12.2652,-12.2652 -6.77386,0 -12.2652,5.49134 -12.2652,12.2652 z" /><path
         inkscape:connector-curvature="0"
         id="path242"
         style="fill:none;stroke:#ff0000;stroke-width:0.54512;stroke-linecap:butt;stroke-linejoin:miter;stroke-miterlimit:2.63446259;stroke-dasharray:none;stroke-opacity:1"
         d="m 411.49288,361.35746 c 0,2.98058 2.41618,5.39669 5.39669,5.39669 2.98058,0 5.39669,-2.41611 5.39669,-5.39669 0,-2.98051 -2.41611,-5.39669 -5.39669,-5.39669 -2.98051,0 -5.39669,2.41618 -5.39669,5.39669 z" /></g><g
       id="g3553"
       transform="translate(-214.95447,96.362386)"><path
         inkscape:connector-curvature="0"
         id="path244"
         style="fill:none;stroke:#ff0000;stroke-width:0.54512;stroke-linecap:butt;stroke-linejoin:miter;stroke-miterlimit:2.63446259;stroke-dasharray:none;stroke-opacity:1"
         d="m 434.55146,355.90633 c 0,6.77386 5.49133,12.2652 12.2652,12.2652 6.77387,0 12.2652,-5.49134 12.2652,-12.2652 0,-6.77387 -5.49133,-12.2652 -12.2652,-12.2652 -6.77387,0 -12.2652,5.49133 -12.2652,12.2652 z" /><path
         inkscape:connector-curvature="0"
         id="path246"
         style="fill:none;stroke:#ff0000;stroke-width:0.54512;stroke-linecap:butt;stroke-linejoin:miter;stroke-miterlimit:2.63446259;stroke-dasharray:none;stroke-opacity:1"
         d="m 441.41997,355.90633 c 0,2.98051 2.41618,5.39669 5.39669,5.39669 2.98058,0 5.39669,-2.41618 5.39669,-5.39669 0,-2.98051 -2.41611,-5.39669 -5.39669,-5.39669 -2.98051,0 -5.39669,2.41618 -5.39669,5.39669 z" /></g><g
       id="g3561"
       transform="translate(-164.50973,155.21458)"><path
         inkscape:connector-curvature="0"
         id="path248"
         style="fill:none;stroke:#ff0000;stroke-width:0.54512;stroke-linecap:butt;stroke-linejoin:miter;stroke-miterlimit:2.63446259;stroke-dasharray:none;stroke-opacity:1"
         d="m 397.75586,327.28746 c 0,6.77387 5.49133,12.2652 12.2652,12.2652 6.77387,0 12.2652,-5.49133 12.2652,-12.2652 0,-6.77386 -5.49133,-12.2652 -12.2652,-12.2652 -6.77387,0 -12.2652,5.49134 -12.2652,12.2652 z" /><path
         inkscape:connector-curvature="0"
         id="path250"
         style="fill:none;stroke:#ff0000;stroke-width:0.54512;stroke-linecap:butt;stroke-linejoin:miter;stroke-miterlimit:2.63446259;stroke-dasharray:none;stroke-opacity:1"
         d="m 404.62437,327.28746 c 0,2.98058 2.41618,5.39669 5.39669,5.39669 2.98058,0 5.39669,-2.41611 5.39669,-5.39669 0,-2.98051 -2.41611,-5.39669 -5.39669,-5.39669 -2.98051,0 -5.39669,2.41618 -5.39669,5.39669 z" /></g><g
       id="g3565"
       transform="translate(-328.13176,188.19768)"><path
         inkscape:connector-curvature="0"
         id="path252"
         style="fill:none;stroke:#ff0000;stroke-width:0.54512;stroke-linecap:butt;stroke-linejoin:miter;stroke-miterlimit:2.63446259;stroke-dasharray:none;stroke-opacity:1"
         d="m 430.51764,319.11073 c 0,6.77386 5.49133,12.2652 12.2652,12.2652 6.77387,0 12.2652,-5.49134 12.2652,-12.2652 0,-6.77387 -5.49133,-12.2652 -12.2652,-12.2652 -6.77387,0 -12.2652,5.49133 -12.2652,12.2652 z" /><path
         inkscape:connector-curvature="0"
         id="path254"
         style="fill:none;stroke:#ff0000;stroke-width:0.54512;stroke-linecap:butt;stroke-linejoin:miter;stroke-miterlimit:2.63446259;stroke-dasharray:none;stroke-opacity:1"
         d="m 437.38615,319.11073 c 0,2.98051 2.41618,5.39669 5.39669,5.39669 2.98058,0 5.39669,-2.41618 5.39669,-5.39669 0,-2.98051 -2.41611,-5.39669 -5.39669,-5.39669 -2.98051,0 -5.39669,2.41618 -5.39669,5.39669 z" /></g><g
       id="g3573"
       transform="translate(-268.63284,76.313836)"><path
         inkscape:connector-curvature="0"
         id="path256"
         style="fill:none;stroke:#ff0000;stroke-width:0.54512;stroke-linecap:butt;stroke-linejoin:miter;stroke-miterlimit:2.63446259;stroke-dasharray:none;stroke-opacity:1"
         d="m 361.01477,324.56186 c 0,6.77387 5.49127,12.2652 12.2652,12.2652 6.77387,0 12.2652,-5.49133 12.2652,-12.2652 0,-6.77386 -5.49133,-12.2652 -12.2652,-12.2652 -6.77393,0 -12.2652,5.49134 -12.2652,12.2652 z" /><path
         inkscape:connector-curvature="0"
         id="path258"
         style="fill:none;stroke:#ff0000;stroke-width:0.54512;stroke-linecap:butt;stroke-linejoin:miter;stroke-miterlimit:2.63446259;stroke-dasharray:none;stroke-opacity:1"
         d="m 367.88328,324.56186 c 0,2.98058 2.41611,5.39669 5.39669,5.39669 2.98051,0 5.39669,-2.41611 5.39669,-5.39669 0,-2.98051 -2.41618,-5.39669 -5.39669,-5.39669 -2.98058,0 -5.39669,2.41618 -5.39669,5.39669 z" /></g><g
       id="g3569"
       transform="translate(-324.89813,186.90423)"><path
         inkscape:connector-curvature="0"
         id="path260"
         style="fill:none;stroke:#ff0000;stroke-width:0.54512;stroke-linecap:butt;stroke-linejoin:miter;stroke-miterlimit:2.63446259;stroke-dasharray:none;stroke-opacity:1"
         d="m 405.93259,295.9432 c 0,6.77386 5.49134,12.2652 12.2652,12.2652 6.77387,0 12.2652,-5.49134 12.2652,-12.2652 0,-6.77387 -5.49133,-12.2652 -12.2652,-12.2652 -6.77386,0 -12.2652,5.49133 -12.2652,12.2652 z" /><path
         inkscape:connector-curvature="0"
         id="path262"
         style="fill:none;stroke:#ff0000;stroke-width:0.54512;stroke-linecap:butt;stroke-linejoin:miter;stroke-miterlimit:2.63446259;stroke-dasharray:none;stroke-opacity:1"
         d="m 412.8011,295.9432 c 0,2.98058 2.41618,5.39669 5.39669,5.39669 2.98058,0 5.39669,-2.41611 5.39669,-5.39669 0,-2.98051 -2.41611,-5.39669 -5.39669,-5.39669 -2.98051,0 -5.39669,2.41618 -5.39669,5.39669 z" /></g><g
       id="g3639"
       transform="translate(874.63659,-97.23374)"><path
         inkscape:connector-curvature="0"
         id="path264"
         style="fill:none;stroke:#ff0000;stroke-width:0.54512;stroke-linecap:butt;stroke-linejoin:miter;stroke-miterlimit:2.63446259;stroke-dasharray:none;stroke-opacity:1"
         d="m 900.2884,493.5491 0,36.7956 36.7956,0 0,18.2361 196.2432,0 0,-18.2361 36.7956,0 0,-36.7956 -36.7956,0 0,-18.2361 -196.2432,0 0,18.2361 -36.7956,0 z" /><path
         inkscape:connector-curvature="0"
         id="path266"
         style="fill:none;stroke:#ff0000;stroke-width:0.54512;stroke-linecap:butt;stroke-linejoin:miter;stroke-miterlimit:2.63446259;stroke-dasharray:none;stroke-opacity:1"
         d="m 912.717,506.7409 0,9.8122 24.5304,0 0,-9.8122 -24.5304,0 z" /><path
         inkscape:connector-curvature="0"
         id="path268"
         style="fill:none;stroke:#ff0000;stroke-width:0.54512;stroke-linecap:butt;stroke-linejoin:miter;stroke-miterlimit:2.63446259;stroke-dasharray:none;stroke-opacity:1"
         d="m 1134.4718,506.7409 0,9.8122 24.5304,0 0,-9.8122 -24.5304,0 z" /></g><g
       id="g3473"
       transform="translate(-20.28951,20.695277)"><path
         inkscape:connector-curvature="0"
         id="path270"
         style="fill:none;stroke:#ff0000;stroke-width:0.54512;stroke-linecap:butt;stroke-linejoin:miter;stroke-miterlimit:2.63446259;stroke-dasharray:none;stroke-opacity:1"
         d="m 251.65225,352.78477 c -2.98058,0 -5.39669,-2.41611 -5.39669,-5.39669 0,-2.98051 2.41611,-5.39669 5.39669,-5.39669 2.98051,0 5.39669,2.41618 5.39669,5.39669 0,2.98058 -2.41618,5.39669 -5.39669,5.39669 z" /><path
         d="m 261.99602,357.24905 4.14227,4.30636 1.22794,0.76964 c 2.10056,0.48543 3.8178,1.18386 6.17383,0.85993 1.0966,-0.0821 1.8109,-0.93121 2.65206,-1.69492 0.2918,-1.21453 0.0724,-2.17339 -0.1042,-3.85664 l -3.33415,-3.90385 -1.22795,-0.76966 -6.11939,-2.12019 -0.0907,-6.80443 6.97385,-1.95551 1.93523,-1.57057 c 0.42198,-0.64564 0.84296,-1.29242 1.26445,-1.93838 0.3421,-1.76699 0.38643,-3.10805 -0.37862,-5.04538 -1.05808,-0.95174 -1.92443,-2.00557 -4.50525,-2.13734 l -2.94775,0.80628 -2.38929,1.08292 -3.30613,4.17477 -6.14505,-3.87016 1.64134,-5.9558 -0.005,-1.44989 -1.78456,-4.53163 c -0.47663,-0.59855 -1.13793,-1.57716 -3.63091,-2.41273 -1.42715,0.13833 -2.30098,0.83017 -3.25972,2.33079 l -1.46847,4.64356 0.003,1.44942 1.46571,5.79288 -7.01374,4.07326 -3.38802,-3.63868 c -0.4754,-0.24207 -0.95091,-0.48368 -1.42631,-0.72575 l -6.26379,-0.77659 c -0.8676,0.1967 -2.09729,0.50052 -2.64539,1.61219 -0.27756,0.983 -0.44892,2.00867 -0.27942,3.22566 1.18975,2.07303 2.35831,3.14594 4.03812,4.75031 l 0.84852,0.51089 5.71743,0.97663 -0.34727,7.50534 -5.12475,1.37212 -1.19168,0.74965 c -1.37855,1.64513 -2.50107,2.94998 -3.53896,5.0207 -0.70898,1.50447 -0.56703,2.11398 -0.21143,3.49054 0.63515,1.03437 1.18533,1.3872 2.4169,1.56974 l 5.31661,-0.22976 1.69099,-1.12459 4.88266,-4.49641 6.3611,3.78694 -1.19215,5.6824 0.004,1.4492 c 0.57897,2.97077 0.0383,1.71188 1.15404,4.86847 0.91002,0.65469 1.57755,1.7189 3.4321,1.8592 1.36283,-0.11775 2.61949,-1.0572 3.45062,-1.9745 l 1.34777,-3.96663 0.24555,-2.13265 -1.5904,-6.21395 6.52286,-3.4232 z"
         style="fill:none;stroke:#ff0000;stroke-width:0.54512;stroke-linecap:butt;stroke-linejoin:miter;stroke-miterlimit:2.63446259;stroke-dasharray:none;stroke-opacity:1"
         id="path274"
         inkscape:connector-curvature="0" /></g><path
       style="fill:none;fill-rule:evenodd;stroke:#ff0000;stroke-width:0.80000001px;stroke-linecap:butt;stroke-linejoin:miter;stroke-opacity:1"
       d="m 332.9183,598.1554 0,-607.301506"
       id="path3725"
       inkscape:connector-curvature="0" /></g></svg>