<?xml version="1.0" encoding="UTF-8" standalone="no"?>
<!-- Created with Inkscape (http://www.inkscape.org/) -->

<svg
   xmlns:dc="http://purl.org/dc/elements/1.1/"
   xmlns:cc="http://creativecommons.org/ns#"
   xmlns:rdf="http://www.w3.org/1999/02/22-rdf-syntax-ns#"
   xmlns:svg="http://www.w3.org/2000/svg"
   xmlns="http://www.w3.org/2000/svg"
   xmlns:sodipodi="http://sodipodi.sourceforge.net/DTD/sodipodi-0.dtd"
   xmlns:inkscape="http://www.inkscape.org/namespaces/inkscape"
   id="svg2"
   version="1.1"
   inkscape:version="0.91 r13725"
   xml:space="preserve"
   width="297mm"
   height="210mm"
   viewBox="0 0 1052.3622 744.09449"
   sodipodi:docname="Galileo_Pendulum3.svg"><metadata
     id="metadata8"><rdf:RDF><cc:Work
         rdf:about=""><dc:format>image/svg+xml</dc:format><dc:type
           rdf:resource="http://purl.org/dc/dcmitype/StillImage" /><dc:title /></cc:Work></rdf:RDF></metadata><defs
     id="defs6" /><sodipodi:namedview
     pagecolor="#ffffff"
     bordercolor="#666666"
     borderopacity="1"
     objecttolerance="10"
     gridtolerance="10"
     guidetolerance="10"
     inkscape:pageopacity="0"
     inkscape:pageshadow="2"
     inkscape:window-width="1366"
     inkscape:window-height="707"
     id="namedview4"
     showgrid="false"
     inkscape:zoom="0.61493033"
     inkscape:cx="402.25246"
     inkscape:cy="345.77151"
     inkscape:window-x="0"
     inkscape:window-y="0"
     inkscape:window-maximized="1"
     inkscape:current-layer="g10"
     units="mm" /><g
     id="g10"
     inkscape:groupmode="layer"
     inkscape:label="Galileo_Pendulum"
     transform="matrix(1.25,0,0,-1.25,0,744.09449)"><g
       id="g3644"
       transform="translate(-437.4499,35.83234)"><path
         inkscape:connector-curvature="0"
         id="path110"
         style="fill:none;stroke:#ff0000;stroke-width:0.54512;stroke-linecap:butt;stroke-linejoin:miter;stroke-miterlimit:2.63446259;stroke-dasharray:none;stroke-opacity:1"
         d="m 1104.6468,329.59564 c -0.274,14.65875 -0.053,26.18436 -0.3271,40.84311 12.8382,-0.39732 45.2976,3.81346 54.7288,36.97505 -31.4781,-26.52646 -45.5562,10.1442 -44.6057,21.6059 2.4416,21.1234 12.6488,28.451 28.5482,28.451 22.5697,-0.4499 38.6127,-6.8141 43.6096,-36.7956 0,-12.606 -2e-4,-25.2119 -2e-4,-37.81777 -10.0548,-30.47179 -32.7832,-49.9445 -43.9501,-47.61275 l 0.087,-5.64894" /><path
         inkscape:connector-curvature="0"
         id="path112"
         style="fill:none;stroke:#ff0000;stroke-width:0.54512;stroke-linecap:butt;stroke-linejoin:miter;stroke-miterlimit:2.63446259;stroke-dasharray:none;stroke-opacity:1"
         d="m 1142.9392,329.6725 0,-73.5912 m -38.1066,0 -552.66407,0 0,11.9784 -9.85407,-0.004 -0.17035,10.01712 10.02442,0.18405 0,29.49099 -9.85407,-0.2714 0.34057,10.18707 9.68392,-0.24803 -0.17042,12.25709 m 535.79457,0 16.6994,0" /><path
         inkscape:connector-curvature="0"
         id="path114"
         style="fill:none;stroke:#ff0000;stroke-width:0.54512;stroke-linecap:butt;stroke-linejoin:miter;stroke-miterlimit:2.63446259;stroke-dasharray:none;stroke-opacity:1"
         d="m 1104.6468,256.04907 c -0.274,-14.65876 -0.053,-26.18437 -0.3271,-40.84312 12.8382,0.39733 45.2976,-3.81339 54.7288,-36.97501 -31.4781,26.52642 -45.5562,-10.14421 -44.6057,-21.6059 2.4416,-21.1234 12.6488,-28.45104 28.5482,-28.45104 22.5697,0.44986 38.6127,6.81407 43.6096,36.7956 0,12.60597 -2e-4,25.21187 -2e-4,37.81777 -10.0548,30.4718 -32.7832,49.94451 -43.9501,47.61275 l 0.087,5.64895" /><path
         inkscape:connector-curvature="0"
         id="path116"
         style="fill:none;stroke:#ff0000;stroke-width:0.54512;stroke-linecap:butt;stroke-linejoin:miter;stroke-miterlimit:2.63446259;stroke-dasharray:none;stroke-opacity:1"
         d="m 1109.7716,275.25712 0,36.7956 9.8121,0 0,-36.7956 -9.8121,0 z" /><path
         inkscape:connector-curvature="0"
         id="path118"
         style="fill:none;stroke:#ff0000;stroke-width:0.54512;stroke-linecap:butt;stroke-linejoin:miter;stroke-miterlimit:2.63446259;stroke-dasharray:none;stroke-opacity:1"
         d="m 640.89021,292.66641 c 0,5.01265 4.06353,9.07625 9.07625,9.07625 5.01265,0 9.07625,-4.0636 9.07625,-9.07625 0,-5.01272 -4.0636,-9.07625 -9.07625,-9.07625 -5.01272,0 -9.07625,4.06353 -9.07625,9.07625 z" /><path
         inkscape:connector-curvature="0"
         id="path120"
         style="fill:none;stroke:#ff0000;stroke-width:0.54512;stroke-linecap:butt;stroke-linejoin:miter;stroke-miterlimit:2.63446259;stroke-dasharray:none;stroke-opacity:1"
         d="m 754.5478,292.3666 c 0,5.01272 4.0636,9.07624 9.0763,9.07624 5.0127,0 9.0762,-4.06352 9.0762,-9.07624 0,-5.01272 -4.0635,-9.07625 -9.0762,-9.07625 -5.0127,0 -9.0763,4.06353 -9.0763,9.07625 z" /><path
         inkscape:connector-curvature="0"
         id="path122"
         style="fill:none;stroke:#ff0000;stroke-width:0.54512;stroke-linecap:butt;stroke-linejoin:miter;stroke-miterlimit:2.63446259;stroke-dasharray:none;stroke-opacity:1"
         d="m 927.3875,292.97795 c 0,-5.01272 4.0635,-9.07625 9.0762,-9.07625 5.0128,0 9.0763,4.06353 9.0763,9.07625 0,5.01272 -4.0635,9.07625 -9.0763,9.07625 -5.0127,0 -9.0762,-4.06353 -9.0762,-9.07625 z" /><path
         inkscape:connector-curvature="0"
         id="path124"
         style="fill:none;stroke:#ff0000;stroke-width:0.54512;stroke-linecap:butt;stroke-linejoin:miter;stroke-miterlimit:2.63446259;stroke-dasharray:none;stroke-opacity:1"
         d="m 535.51586,329.80367 c 0.27413,-14.65876 0.0531,-26.18437 0.32721,-40.84312 -12.83826,0.39733 -45.29756,-3.81339 -54.72882,-36.97501 31.47809,26.52642 45.55622,-10.14421 44.60574,-21.6059 -2.44166,-21.1234 -12.64883,-28.45104 -28.54821,-28.45104 -22.56967,0.44986 -38.61276,6.81407 -43.60967,36.7956 0,12.60597 2.1e-4,25.21187 2.1e-4,37.81777 10.0548,30.4718 32.78324,49.94451 43.95016,47.61275 l -0.0871,5.64895" /><path
         inkscape:connector-curvature="0"
         id="path126"
         style="fill:none;stroke:#ff0000;stroke-width:0.54512;stroke-linecap:butt;stroke-linejoin:miter;stroke-miterlimit:2.63446259;stroke-dasharray:none;stroke-opacity:1"
         d="m 497.22357,329.7268 0,73.5912 m 38.10654,0 552.66409,0 0,-11.9784 9.8541,0.01 0.1703,-10.01711 -10.0244,-0.18404 0,-29.49099 9.8541,0.2714 -0.3406,-10.18707 -9.6839,0.24803 0.1704,-12.25709 -552.49394,0" /><path
         inkscape:connector-curvature="0"
         id="path128"
         style="fill:none;stroke:#ff0000;stroke-width:0.54512;stroke-linecap:butt;stroke-linejoin:miter;stroke-miterlimit:2.63446259;stroke-dasharray:none;stroke-opacity:1"
         d="m 535.51586,403.3502 c 0.27413,14.6588 0.0531,26.1844 0.32721,40.8432 -12.83826,-0.3974 -45.29756,3.8134 -54.72882,36.975 31.47809,-26.5265 45.55622,10.1442 44.60574,21.6059 -2.44166,21.1234 -12.64883,28.451 -28.54821,28.451 -22.56967,-0.4499 -38.61276,-6.8141 -43.60967,-36.7956 0,-12.6059 2.1e-4,-25.2119 2.1e-4,-37.8178 10.0548,-30.4718 32.78324,-49.9445 43.95016,-47.6127 l -0.0871,-5.649" /><path
         inkscape:connector-curvature="0"
         id="path130"
         style="fill:none;stroke:#ff0000;stroke-width:0.54512;stroke-linecap:butt;stroke-linejoin:miter;stroke-miterlimit:2.63446259;stroke-dasharray:none;stroke-opacity:1"
         d="m 530.39119,384.14218 0,-36.7956 -9.81216,0 0,36.7956 9.81216,0 z" /><path
         inkscape:connector-curvature="0"
         id="path132"
         style="fill:none;stroke:#ff0000;stroke-width:0.54512;stroke-linecap:butt;stroke-linejoin:miter;stroke-miterlimit:2.63446259;stroke-dasharray:none;stroke-opacity:1"
         d="m 999.2725,366.73296 c 0,-5.01272 -4.0635,-9.07625 -9.0762,-9.07625 -5.0127,0 -9.0763,4.06353 -9.0763,9.07625 0,5.01265 4.0636,9.07625 9.0763,9.07625 5.0127,0 9.0762,-4.0636 9.0762,-9.07625 z" /><path
         inkscape:connector-curvature="0"
         id="path134"
         style="fill:none;stroke:#ff0000;stroke-width:0.54512;stroke-linecap:butt;stroke-linejoin:miter;stroke-miterlimit:2.63446259;stroke-dasharray:none;stroke-opacity:1"
         d="m 885.6149,367.03271 c 0,-5.01272 -4.0635,-9.07625 -9.0763,-9.07625 -5.0126,0 -9.0762,4.06353 -9.0762,9.07625 0,5.01271 4.0636,9.07624 9.0762,9.07624 5.0128,0 9.0763,-4.06353 9.0763,-9.07624 z" /><path
         inkscape:connector-curvature="0"
         id="path136"
         style="fill:none;stroke:#ff0000;stroke-width:0.54512;stroke-linecap:butt;stroke-linejoin:miter;stroke-miterlimit:2.63446259;stroke-dasharray:none;stroke-opacity:1"
         d="m 712.77526,366.42135 c 0,5.01272 -4.06353,9.07625 -9.07625,9.07625 -5.01272,0 -9.07625,-4.06353 -9.07625,-9.07625 0,-5.01265 4.06353,-9.07624 9.07625,-9.07624 5.01272,0 9.07625,4.06359 9.07625,9.07624 z" /><path
         inkscape:connector-curvature="0"
         id="path156"
         style="fill:none;stroke:#ff0000;stroke-width:0.54512;stroke-linecap:butt;stroke-linejoin:miter;stroke-miterlimit:2.63446259;stroke-dasharray:none;stroke-opacity:1"
         d="m 889.7558,507.7625 0,-20.3437 -2.8779,-2e-4 -0.033,-9.8938 -9.979,0.1703 0.2175,9.8087 -12.18,2e-4 -0.087,-10.0549 -91.9229,-0.2258 m -47.72202,-0.1173 -0.0184,9.804 -10.20328,0.2351 4e-4,-10.064 m -149.27736,-0.3683 0.18698,9.9452 -10.20192,-0.087 0.13478,-9.8545 m -7.31218,-0.044 0,35.0928" /><path
         inkscape:connector-curvature="0"
         id="path158"
         style="fill:none;stroke:#ff0000;stroke-width:0.54512;stroke-linecap:butt;stroke-linejoin:miter;stroke-miterlimit:2.63446259;stroke-dasharray:none;stroke-opacity:1"
         d="m 889.7558,508.1536 0,32.728 -2.8779,2e-4 -0.033,9.8938 -9.979,-0.1703 0.2175,-9.8087 -12.18,-2e-4 -0.087,10.0549 -139.64492,0.3431 -0.0184,-9.804 -10.20328,-0.2351 4e-4,10.064 -149.47047,0.3683 -0.006,-9.9452 -11.38272,0.087 -0.0461,9.8761 -5.56418,0.022 0,-40.4075" /><path
         inkscape:connector-curvature="0"
         id="path160"
         style="fill:none;stroke:#ff0000;stroke-width:0.54512;stroke-linecap:butt;stroke-linejoin:miter;stroke-miterlimit:2.63446259;stroke-dasharray:none;stroke-opacity:1"
         d="m 546.64442,403.431 0,73.5912 225.67968,0 0,-73.5912 -225.67968,0 z" /><path
         inkscape:connector-curvature="0"
         id="path162"
         style="fill:none;stroke:#ff0000;stroke-width:0.54512;stroke-linecap:butt;stroke-linejoin:miter;stroke-miterlimit:2.63446259;stroke-dasharray:none;stroke-opacity:1"
         d="m 551.23603,416.0093 0,9.8121 9.81216,0 0,-9.8121 -9.81216,0 z" /><path
         inkscape:connector-curvature="0"
         id="path164"
         style="fill:none;stroke:#ff0000;stroke-width:0.54512;stroke-linecap:butt;stroke-linejoin:miter;stroke-miterlimit:2.63446259;stroke-dasharray:none;stroke-opacity:1"
         d="m 551.57673,455.3261 0,9.8122 9.81216,0 0,-9.8122 -9.81216,0 z" /><path
         inkscape:connector-curvature="0"
         id="path166"
         style="fill:none;stroke:#ff0000;stroke-width:0.54512;stroke-linecap:butt;stroke-linejoin:miter;stroke-miterlimit:2.63446259;stroke-dasharray:none;stroke-opacity:1"
         d="m 757.782,416.0093 0,9.8121 9.8122,0 0,-9.8121 -9.8122,0 z" /><path
         inkscape:connector-curvature="0"
         id="path168"
         style="fill:none;stroke:#ff0000;stroke-width:0.54512;stroke-linecap:butt;stroke-linejoin:miter;stroke-miterlimit:2.63446259;stroke-dasharray:none;stroke-opacity:1"
         d="m 758.1227,455.3261 0,9.8122 9.8122,0 0,-9.8122 -9.8122,0 z" /><path
         inkscape:connector-curvature="0"
         id="path170"
         style="fill:none;stroke:#ff0000;stroke-width:0.54512;stroke-linecap:butt;stroke-linejoin:miter;stroke-miterlimit:2.63446259;stroke-dasharray:none;stroke-opacity:1"
         d="m 746.87946,435.0886 0,9.8121 9.81216,0 0,-9.8121 -9.81216,0 z" /><path
         inkscape:connector-curvature="0"
         id="path172"
         style="fill:none;stroke:#ff0000;stroke-width:0.54512;stroke-linecap:butt;stroke-linejoin:miter;stroke-miterlimit:2.63446259;stroke-dasharray:none;stroke-opacity:1"
         d="m 681.99635,434.7478 0,9.8121 9.81216,0 0,-9.8121 -9.81216,0 z" /></g><g
       id="g3639"
       transform="translate(874.63659,-97.23374)"><path
         inkscape:connector-curvature="0"
         id="path264"
         style="fill:none;stroke:#ff0000;stroke-width:0.54512;stroke-linecap:butt;stroke-linejoin:miter;stroke-miterlimit:2.63446259;stroke-dasharray:none;stroke-opacity:1"
         d="m 900.2884,493.5491 0,36.7956 36.7956,0 0,18.2361 196.2432,0 0,-18.2361 36.7956,0 0,-36.7956 -36.7956,0 0,-18.2361 -196.2432,0 0,18.2361 -36.7956,0 z" /><path
         inkscape:connector-curvature="0"
         id="path266"
         style="fill:none;stroke:#ff0000;stroke-width:0.54512;stroke-linecap:butt;stroke-linejoin:miter;stroke-miterlimit:2.63446259;stroke-dasharray:none;stroke-opacity:1"
         d="m 912.717,506.7409 0,9.8122 24.5304,0 0,-9.8122 -24.5304,0 z" /><path
         inkscape:connector-curvature="0"
         id="path268"
         style="fill:none;stroke:#ff0000;stroke-width:0.54512;stroke-linecap:butt;stroke-linejoin:miter;stroke-miterlimit:2.63446259;stroke-dasharray:none;stroke-opacity:1"
         d="m 1134.4718,506.7409 0,9.8122 24.5304,0 0,-9.8122 -24.5304,0 z" /></g><g
       id="g3609"
       transform="translate(-101.0014,86.784824)"><path
         inkscape:connector-curvature="0"
         id="path142"
         style="fill:none;stroke:#ff0000;stroke-width:0.54512;stroke-linecap:butt;stroke-linejoin:miter;stroke-miterlimit:2.63446259;stroke-dasharray:none;stroke-opacity:1"
         d="m 263.15333,167.90943 c -1.59952,-4.91385 -6.21777,-8.4653 -11.66529,-8.4653 -6.77387,0 -12.2652,5.49133 -12.2652,12.2652 0,6.77386 5.49133,12.2652 12.2652,12.2652 5.18906,0 9.62559,-3.22282 11.41747,-7.77559" /><path
         inkscape:connector-curvature="0"
         id="path144"
         style="fill:none;stroke:#ff0000;stroke-width:0.54512;stroke-linecap:butt;stroke-linejoin:miter;stroke-miterlimit:2.63446259;stroke-dasharray:none;stroke-opacity:1"
         d="m 246.09135,171.70933 c 0,2.98051 2.41617,5.39669 5.39669,5.39669 2.98058,0 5.39668,-2.41618 5.39668,-5.39669 0,-2.98058 -2.4161,-5.39669 -5.39668,-5.39669 -2.98052,0 -5.39669,2.41611 -5.39669,5.39669 z" /><path
         inkscape:connector-curvature="0"
         id="path146"
         style="fill:none;stroke:#ff0000;stroke-width:0.54512;stroke-linecap:butt;stroke-linejoin:miter;stroke-miterlimit:2.63446259;stroke-dasharray:none;stroke-opacity:1"
         d="m 263.11933,176.18251 230.65955,-0.33122 m 8.51744,-0.0124 235.0922,-0.33783 0,15.84282 -14.34484,0.35773 0.0743,7.09236 22.83951,-0.0726 -0.0525,-23.22027 0,-8.17674 m 0,0 -0.0307,-24.50798 -22.31865,0.0441 0.0293,7.412 13.88919,0.0168 0,17.03506 m 0,0 -235.17738,0.33805 m -8.68778,0.0125 -230.48921,0.33089" /><path
         inkscape:connector-curvature="0"
         id="path148"
         style="fill:none;stroke:#ff0000;stroke-width:0.54512;stroke-linecap:butt;stroke-linejoin:miter;stroke-miterlimit:2.63446259;stroke-dasharray:none;stroke-opacity:1"
         d="m 493.55634,175.50105 0,15.84282 -14.34483,0.35773 0.0743,7.09236 22.8395,-0.0726 -0.0527,-23.22027 m 0,-8.17674 -0.0307,-24.50798 -22.31864,0.0441 0.029,7.412 13.88918,0.0168 0,17.03506" /></g><g
       id="g3627"
       transform="translate(-267.83954,418.96735)"><path
         inkscape:connector-curvature="0"
         id="path174"
         style="fill:none;stroke:#ff0000;stroke-width:0.54512;stroke-linecap:butt;stroke-linejoin:miter;stroke-miterlimit:2.63446259;stroke-dasharray:none;stroke-opacity:1"
         d="m 1090.1175,158.99019 c 1.5443,-5.38565 5.6876,-24.3824 3.9952,-41.1819 l 0,0 c -2.2143,-22.485858 -13.5688,-42.995185 -33.5848,-42.739655 -8.404,0.65326 -16.3137,7.8468 -15.178,17.102727 1.9306,12.719488 16.2496,15.226018 24.3807,8.593338 11.5635,4.89913 -0.727,47.0812 -6.1987,48.06221 l -139.45411,0.0722 0.016,-20.07398 -9.9817,-0.0251 -0.085,20.10389 -148.7089,0.48462 0.4731,-24.40019 c 3.7954,-1.82472 8.7513,-5.55314 8.8579,-15.61701 -0.5276,-7.80141 -9.679,-12.084418 -13.8264,-12.134428 -4.4686,0.0694 -12.72839,3.303078 -13.4917,13.082598 0.35903,8.53447 5.99619,13.26093 8.62462,14.28794 l -0.14255,23.96674 -8.15043,0.24476 -6.1e-4,9.85693 z"
         sodipodi:nodetypes="ccccccccccccccccccccc" /><path
         inkscape:connector-curvature="0"
         id="path176"
         style="fill:none;stroke:#ff0000;stroke-width:0.54512;stroke-linecap:butt;stroke-linejoin:miter;stroke-miterlimit:2.63446259;stroke-dasharray:none;stroke-opacity:1"
         d="m 1059.1354,99.501322 c 5.0127,0 9.0763,-4.0636 9.0763,-9.07625 0,-5.012717 -4.0636,-9.076247 -9.0763,-9.076247 -5.0127,0 -9.0762,4.06353 -9.0762,9.076247 0,5.01265 4.0635,9.07625 9.0762,9.07625 z" /><path
         inkscape:connector-curvature="0"
         id="path178"
         style="fill:none;stroke:#ff0000;stroke-width:0.54512;stroke-linecap:butt;stroke-linejoin:miter;stroke-miterlimit:2.63446259;stroke-dasharray:none;stroke-opacity:1"
         d="m 1076.4569,148.63993 9.8122,0 0,-9.81216 -9.8122,0 0,9.81216 z" /><path
         inkscape:connector-curvature="0"
         id="path180"
         style="fill:none;stroke:#ff0000;stroke-width:0.54512;stroke-linecap:butt;stroke-linejoin:miter;stroke-miterlimit:2.63446259;stroke-dasharray:none;stroke-opacity:1"
         d="m 760.67289,119.99537 c 5.0127,0 9.0762,-4.06352 9.0762,-9.07624 0,-5.01272 -4.0635,-9.07625 -9.0762,-9.07625 -5.01274,0 -9.07627,4.06353 -9.07627,9.07625 0,5.01272 4.06353,9.07624 9.07627,9.07624 z" /></g><g
       id="g3615"
       transform="translate(-278.20453,296.42672)"><path
         inkscape:connector-curvature="0"
         id="path190"
         style="fill:none;stroke:#ff0000;stroke-width:0.54512;stroke-linecap:butt;stroke-linejoin:miter;stroke-miterlimit:2.63446259;stroke-dasharray:none;stroke-opacity:1"
         d="m 818.9098,250.02617 c -6.7739,0 -12.2652,-5.49133 -12.2652,-12.2652 0,-6.77386 5.4913,-12.2652 12.2652,-12.2652 0.6488,0 1.9076,0.14759 1.9076,0.14759 8.8334,-6.25975 61.2835,-21.75792 97.5362,-12.67608 0.7355,0.18432 44.5566,13.76932 68.5943,18.08279 7.9612,1.42855 17.4424,-3.15557 23.5177,-7.24805 1.8534,-1.24853 -1.2386,-12.82634 -0.4476,-12.98006 1.1311,-0.21982 8.5785,12.16667 8.3985,12.77128 -1.7708,5.94078 -22.5197,15.9575 -30.7992,14.76246 -20.22,-2.91857 -62.8785,-16.31347 -72.2283,-17.50564 -16.0044,-2.04087 -30.1702,-4.21228 -41.7277,-2.39915 -28.154,4.41684 -42.8571,16.30482 -42.8475,16.34325 0.2353,0.94932 0.3612,1.94389 0.3612,2.96681 0,6.77387 -5.4914,12.2652 -12.2652,12.2652 z" /><path
         inkscape:connector-curvature="0"
         id="path192"
         style="fill:none;stroke:#ff0000;stroke-width:0.54512;stroke-linecap:butt;stroke-linejoin:miter;stroke-miterlimit:2.63446259;stroke-dasharray:none;stroke-opacity:1"
         d="m 818.5501,243.00986 c -2.9805,0 -5.3967,-2.4161 -5.3967,-5.39668 0,-2.98051 2.4162,-5.39669 5.3967,-5.39669 2.9806,0 5.3967,2.41618 5.3967,5.39669 0,2.98058 -2.4161,5.39668 -5.3967,5.39668 z" /></g><path
       style="fill:none;fill-rule:evenodd;stroke:#ff0000;stroke-width:0.80000001px;stroke-linecap:butt;stroke-linejoin:miter;stroke-opacity:1"
       d="m -5.2038415,153.51333 766.2656615,0 0,331.74489 92.36817,0"
       id="path3531"
       inkscape:connector-curvature="0"
       sodipodi:nodetypes="cccc" /><g
       id="g3633"
       transform="translate(-735.92881,-5.883001)"><path
         inkscape:connector-curvature="0"
         id="path182"
         style="fill:none;stroke:#ff0000;stroke-width:0.54512;stroke-linecap:butt;stroke-linejoin:miter;stroke-miterlimit:2.63446259;stroke-dasharray:none;stroke-opacity:1"
         d="m 1095.0273,209.7121 c -2.2143,22.48585 -13.5688,42.99525 -33.5848,42.73965 -8.404,-0.65319 -16.3137,-7.8468 -15.178,-17.10266 1.9306,-12.71949 16.2496,-15.22609 24.3807,-8.59341 11.5635,-4.89913 -0.727,-47.08113 -6.1987,-48.06214 l -139.4541,-0.0723 0.016,20.07398 -9.9817,0.0251 -0.085,-20.10395 -148.7089,-0.48462 0.4731,24.40026 c 3.7954,1.82472 8.7513,5.55313 8.8579,15.61694 -0.5276,7.80148 -9.679,12.08442 -13.8264,12.13444 -4.4686,-0.0693 -12.72839,-3.30309 -13.4917,-13.08261 0.35903,-8.53447 5.99619,-13.26086 8.62462,-14.28787 l -0.14255,-23.96681 -8.15043,-0.24469 -6.1e-4,-9.857 c 41.40727,-0.30247 321.83747,-0.0521 342.45537,-0.31426 1.5443,5.38571 5.6876,24.38247 3.9952,41.18191 z" /><path
         inkscape:connector-curvature="0"
         id="path184"
         style="fill:none;stroke:#ff0000;stroke-width:0.54512;stroke-linecap:butt;stroke-linejoin:miter;stroke-miterlimit:2.63446259;stroke-dasharray:none;stroke-opacity:1"
         d="m 1060.05,228.01913 c 5.0127,0 9.0763,4.06353 9.0763,9.07625 0,5.01272 -4.0636,9.07625 -9.0763,9.07625 -5.0127,0 -9.0762,-4.06353 -9.0762,-9.07625 0,-5.01272 4.0635,-9.07625 9.0762,-9.07625 z" /><path
         inkscape:connector-curvature="0"
         id="path186"
         style="fill:none;stroke:#ff0000;stroke-width:0.54512;stroke-linecap:butt;stroke-linejoin:miter;stroke-miterlimit:2.63446259;stroke-dasharray:none;stroke-opacity:1"
         d="m 1077.3715,178.88045 9.8122,0 0,9.81216 -9.8122,0 0,-9.81216 z" /><path
         inkscape:connector-curvature="0"
         id="path188"
         style="fill:none;stroke:#ff0000;stroke-width:0.54512;stroke-linecap:butt;stroke-linejoin:miter;stroke-miterlimit:2.63446259;stroke-dasharray:none;stroke-opacity:1"
         d="m 761.5875,207.52501 c 5.0127,0 9.0762,4.06359 9.0762,9.07624 0,5.01272 -4.0635,9.07625 -9.0762,9.07625 -5.01274,0 -9.07627,-4.06353 -9.07627,-9.07625 0,-5.01265 4.06353,-9.07624 9.07627,-9.07624 z" /></g><g
       id="g3623"
       transform="translate(-419.78339,-16.624962)"><path
         inkscape:connector-curvature="0"
         id="path194"
         style="fill:none;stroke:#ff0000;stroke-width:0.54512;stroke-linecap:butt;stroke-linejoin:miter;stroke-miterlimit:2.63446259;stroke-dasharray:none;stroke-opacity:1"
         d="m 1051.5981,210.10206 c 6.4643,-2.02383 10.0642,-8.90508 8.0401,-15.36952 -2.0238,-6.46444 -8.9051,-10.06421 -15.3695,-8.04039 -0.6191,0.19393 -1.7765,0.71084 -1.7765,0.71084 -10.3,-3.33443 -69.2852,0.71002 -101.1686,20.20917 -1.5614,0.95491 -2.8777,6.33368 -1.2638,5.54523 52.3935,-25.59393 95.6236,-14.0919 95.6269,-14.03473 0.059,0.97624 0.236,1.96305 0.5416,2.93922 2.0241,6.46444 8.9053,10.06421 15.3698,8.04018 z" /><path
         inkscape:connector-curvature="0"
         id="path196"
         style="fill:none;stroke:#ff0000;stroke-width:0.54512;stroke-linecap:butt;stroke-linejoin:miter;stroke-miterlimit:2.63446259;stroke-dasharray:none;stroke-opacity:1"
         d="m 1049.6489,203.44621 c 2.8438,-0.89025 4.4275,-3.9175 3.537,-6.76132 -0.8902,-2.84396 -3.9175,-4.42761 -6.7613,-3.53715 -2.844,0.89038 -4.4274,3.9175 -3.5371,6.76146 0.8903,2.84383 3.9175,4.42747 6.7614,3.53701 z" /></g><g
       id="g3619"
       transform="translate(-396.70721,-14.755491)"><path
         inkscape:connector-curvature="0"
         id="path198"
         style="fill:none;stroke:#ff0000;stroke-width:0.54512;stroke-linecap:butt;stroke-linejoin:miter;stroke-miterlimit:2.63446259;stroke-dasharray:none;stroke-opacity:1"
         d="m 797.3965,218.95195 c -6.7109,-0.92037 -11.4052,-7.10707 -10.4848,-13.81798 0.9206,-6.71104 7.1071,-11.40527 13.8182,-10.4849 0.6428,0.0883 1.8699,0.40543 1.8699,0.40543 9.602,-5.00127 58.583,-11.42108 93.2648,2.49924 1.6949,0.68004 3.8912,5.76676 2.1685,5.25782 -55.9206,-16.52293 -86.7795,2.61044 -86.7731,2.66741 0.1041,0.97249 0.094,1.97476 -0.046,2.98828 -0.9203,6.7111 -7.107,11.40527 -13.8181,10.4847 z" /><path
         inkscape:connector-curvature="0"
         id="path200"
         style="fill:none;stroke:#ff0000;stroke-width:0.54512;stroke-linecap:butt;stroke-linejoin:miter;stroke-miterlimit:2.63446259;stroke-dasharray:none;stroke-opacity:1"
         d="m 798.2114,212.0647 c -2.9524,-0.40503 -5.0176,-3.12654 -4.6125,-6.07891 0.4048,-2.9523 3.1265,-5.01749 6.0789,-4.61246 2.9523,0.40482 5.0173,3.12653 4.6125,6.0789 -0.405,2.9523 -3.1266,5.01729 -6.0789,4.61247 z" /></g></g></svg>