<?xml version="1.0" encoding="UTF-8" standalone="no"?>
<!-- Created with Inkscape (http://www.inkscape.org/) -->

<svg
   xmlns:dc="http://purl.org/dc/elements/1.1/"
   xmlns:cc="http://creativecommons.org/ns#"
   xmlns:rdf="http://www.w3.org/1999/02/22-rdf-syntax-ns#"
   xmlns:svg="http://www.w3.org/2000/svg"
   xmlns="http://www.w3.org/2000/svg"
   xmlns:sodipodi="http://sodipodi.sourceforge.net/DTD/sodipodi-0.dtd"
   xmlns:inkscape="http://www.inkscape.org/namespaces/inkscape"
   id="svg2"
   version="1.1"
   inkscape:version="0.91 r13725"
   xml:space="preserve"
   width="2160"
   height="1620"
   viewBox="0 0 2160 1620"
   sodipodi:docname="Galileo_Pendulum.svg"><metadata
     id="metadata8"><rdf:RDF><cc:Work
         rdf:about=""><dc:format>image/svg+xml</dc:format><dc:type
           rdf:resource="http://purl.org/dc/dcmitype/StillImage" /><dc:title /></cc:Work></rdf:RDF></metadata><defs
     id="defs6" /><sodipodi:namedview
     pagecolor="#ffffff"
     bordercolor="#666666"
     borderopacity="1"
     objecttolerance="10"
     gridtolerance="10"
     guidetolerance="10"
     inkscape:pageopacity="0"
     inkscape:pageshadow="2"
     inkscape:window-width="1280"
     inkscape:window-height="963"
     id="namedview4"
     showgrid="false"
     inkscape:zoom="0.326951"
     inkscape:cx="956.496"
     inkscape:cy="757.46359"
     inkscape:window-x="0"
     inkscape:window-y="0"
     inkscape:window-maximized="1"
     inkscape:current-layer="g10" /><g
     id="g10"
     inkscape:groupmode="layer"
     inkscape:label="Galileo_Pendulum"
     transform="matrix(1.25,0,0,-1.25,0,1620)"><path
       d="m 347.7203,1029.5847 54,0 0,-54 26.7628,0 0,-288 -26.7628,0 0,-54 -54,0 0,54 -26.7627,0 0,288 26.7627,0 0,54 z"
       style="fill:none;stroke:#ff0000;stroke-width:0.8;stroke-linecap:butt;stroke-linejoin:miter;stroke-miterlimit:2.66040587;stroke-dasharray:none;stroke-opacity:1"
       id="path12"
       inkscape:connector-curvature="0" /><path
       d="m 367.0801,1009.1849 14.4,0 0,-36 -14.4,0 0,36 z"
       style="fill:none;stroke:#ff0000;stroke-width:0.8;stroke-linecap:butt;stroke-linejoin:miter;stroke-miterlimit:2.66040587;stroke-dasharray:none;stroke-opacity:1"
       id="path14"
       inkscape:connector-curvature="0" /><path
       d="m 367.0801,685.9049 14.4,0 0,-36 -14.4,0 0,36 z"
       style="fill:none;stroke:#ff0000;stroke-width:0.8;stroke-linecap:butt;stroke-linejoin:miter;stroke-miterlimit:2.66040587;stroke-dasharray:none;stroke-opacity:1"
       id="path16"
       inkscape:connector-curvature="0" /><path
       d="m 500.9159,973.6288 42.2867,0 0,-103.415 -42.2867,0 0,103.415 z"
       style="fill:none;stroke:#ff0000;stroke-width:0.8;stroke-linecap:butt;stroke-linejoin:miter;stroke-miterlimit:2.66040587;stroke-dasharray:none;stroke-opacity:1"
       id="path18"
       inkscape:connector-curvature="0" /><path
       d="m 500.9159,870.2138 42.2867,103.415"
       style="fill:none;stroke:#ff0000;stroke-width:0.8;stroke-linecap:butt;stroke-linejoin:miter;stroke-miterlimit:2.66040587;stroke-dasharray:none;stroke-opacity:1"
       id="path20"
       inkscape:connector-curvature="0" /><path
       d="m 1536.9423,1036.3757 c 3.5788,0 6.48,-2.901 6.48,-6.48 0,-3.5791 -2.9012,-6.48 -6.48,-6.48 -3.5787,0 -6.48,2.9009 -6.48,6.48 0,3.579 2.9013,6.48 6.48,6.48 z"
       style="fill:none;stroke:#ff0000;stroke-width:0.8;stroke-linecap:butt;stroke-linejoin:miter;stroke-miterlimit:2.66040587;stroke-dasharray:none;stroke-opacity:1"
       id="path22"
       inkscape:connector-curvature="0" /><path
       d="m 1568.9424,1054.1259 c 3.5787,0 6.48,-2.901 6.48,-6.48 0,-3.579 -2.9013,-6.48 -6.48,-6.48 -3.5788,0 -6.48,2.901 -6.48,6.48 0,3.579 2.9012,6.48 6.48,6.48 z"
       style="fill:none;stroke:#ff0000;stroke-width:0.8;stroke-linecap:butt;stroke-linejoin:miter;stroke-miterlimit:2.66040587;stroke-dasharray:none;stroke-opacity:1"
       id="path24"
       inkscape:connector-curvature="0" /><path
       d="m 1605.6924,1053.8756 c 3.5787,0 6.48,-2.901 6.48,-6.48 0,-3.579 -2.9013,-6.48 -6.48,-6.48 -3.5787,0 -6.48,2.901 -6.48,6.48 0,3.579 2.9013,6.48 6.48,6.48 z"
       style="fill:none;stroke:#ff0000;stroke-width:0.8;stroke-linecap:butt;stroke-linejoin:miter;stroke-miterlimit:2.66040587;stroke-dasharray:none;stroke-opacity:1"
       id="path26"
       inkscape:connector-curvature="0" /><path
       d="m 1638.1925,1035.3759 c 3.5787,0 6.48,-2.901 6.48,-6.48 0,-3.579 -2.9013,-6.48 -6.48,-6.48 -3.5788,0 -6.48,2.901 -6.48,6.48 0,3.579 2.9012,6.48 6.48,6.48 z"
       style="fill:none;stroke:#ff0000;stroke-width:0.8;stroke-linecap:butt;stroke-linejoin:miter;stroke-miterlimit:2.66040587;stroke-dasharray:none;stroke-opacity:1"
       id="path28"
       inkscape:connector-curvature="0" /><path
       d="m 1657.1925,1003.8756 c 3.5788,0 6.48,-2.901 6.48,-6.48 0,-3.579 -2.9012,-6.48 -6.48,-6.48 -3.5787,0 -6.48,2.901 -6.48,6.48 0,3.579 2.9013,6.48 6.48,6.48 z"
       style="fill:none;stroke:#ff0000;stroke-width:0.8;stroke-linecap:butt;stroke-linejoin:miter;stroke-miterlimit:2.66040587;stroke-dasharray:none;stroke-opacity:1"
       id="path30"
       inkscape:connector-curvature="0" /><path
       d="m 1656.1925,966.1255 c 3.5787,0 6.48,-2.901 6.48,-6.48 0,-3.579 -2.9013,-6.48 -6.48,-6.48 -3.5788,0 -6.48,2.901 -6.48,6.48 0,3.579 2.9012,6.48 6.48,6.48 z"
       style="fill:none;stroke:#ff0000;stroke-width:0.8;stroke-linecap:butt;stroke-linejoin:miter;stroke-miterlimit:2.66040587;stroke-dasharray:none;stroke-opacity:1"
       id="path32"
       inkscape:connector-curvature="0" /><path
       d="m 1637.9425,933.3754 c 3.5787,0 6.48,-2.901 6.48,-6.48 0,-3.579 -2.9013,-6.48 -6.48,-6.48 -3.5788,0 -6.48,2.901 -6.48,6.48 0,3.579 2.9012,6.48 6.48,6.48 z"
       style="fill:none;stroke:#ff0000;stroke-width:0.8;stroke-linecap:butt;stroke-linejoin:miter;stroke-miterlimit:2.66040587;stroke-dasharray:none;stroke-opacity:1"
       id="path34"
       inkscape:connector-curvature="0" /><path
       d="m 1606.1924,915.6254 c 3.5788,0 6.48,-2.901 6.48,-6.48 0,-3.579 -2.9012,-6.48 -6.48,-6.48 -3.5787,0 -6.48,2.901 -6.48,6.48 0,3.579 2.9013,6.48 6.48,6.48 z"
       style="fill:none;stroke:#ff0000;stroke-width:0.8;stroke-linecap:butt;stroke-linejoin:miter;stroke-miterlimit:2.66040587;stroke-dasharray:none;stroke-opacity:1"
       id="path36"
       inkscape:connector-curvature="0" /><path
       d="m 1517.9426,1003.8756 c 3.5787,0 6.48,-2.901 6.48,-6.48 0,-3.579 -2.9013,-6.48 -6.48,-6.48 -3.5788,0 -6.48,2.901 -6.48,6.48 0,3.579 2.9012,6.48 6.48,6.48 z"
       style="fill:none;stroke:#ff0000;stroke-width:0.8;stroke-linecap:butt;stroke-linejoin:miter;stroke-miterlimit:2.66040587;stroke-dasharray:none;stroke-opacity:1"
       id="path38"
       inkscape:connector-curvature="0" /><path
       d="m 1518.6923,966.1255 c 3.5788,0 6.48,-2.901 6.48,-6.48 0,-3.579 -2.9012,-6.48 -6.48,-6.48 -3.5787,0 -6.48,2.901 -6.48,6.48 0,3.579 2.9013,6.48 6.48,6.48 z"
       style="fill:none;stroke:#ff0000;stroke-width:0.8;stroke-linecap:butt;stroke-linejoin:miter;stroke-miterlimit:2.66040587;stroke-dasharray:none;stroke-opacity:1"
       id="path40"
       inkscape:connector-curvature="0" /><path
       d="m 1536.9423,933.8754 c 3.5788,0 6.48,-2.9009 6.48,-6.48 0,-3.579 -2.9012,-6.48 -6.48,-6.48 -3.5787,0 -6.48,2.901 -6.48,6.48 0,3.5791 2.9013,6.48 6.48,6.48 z"
       style="fill:none;stroke:#ff0000;stroke-width:0.8;stroke-linecap:butt;stroke-linejoin:miter;stroke-miterlimit:2.66040587;stroke-dasharray:none;stroke-opacity:1"
       id="path42"
       inkscape:connector-curvature="0" /><path
       d="m 1568.6923,914.9854 c 3.7185,0 6.7332,-3.0623 6.7332,-6.84 0,-3.7778 -3.0147,-6.84 -6.7332,-6.84 -3.7184,0 -6.7331,3.0622 -6.7331,6.84 0,3.7777 3.0147,6.84 6.7331,6.84 z"
       style="fill:none;stroke:#ff0000;stroke-width:0.8;stroke-linecap:butt;stroke-linejoin:miter;stroke-miterlimit:2.66040587;stroke-dasharray:none;stroke-opacity:1"
       id="path44"
       inkscape:connector-curvature="0" /><path
       d="m 1587.5374,986.0357 c 4.3741,0 7.92,-3.5458 7.92,-7.92 0,-4.3741 -3.5459,-7.92 -7.92,-7.92 -4.3742,0 -7.92,3.5459 -7.92,7.92 0,4.3742 3.5458,7.92 7.92,7.92 z"
       style="fill:none;stroke:#ff0000;stroke-width:0.8;stroke-linecap:butt;stroke-linejoin:miter;stroke-miterlimit:2.66040587;stroke-dasharray:none;stroke-opacity:1"
       id="path46"
       inkscape:connector-curvature="0" /><path
       d="m 1587.5374,1068.6756 c 49.7055,0 89.9997,-40.3305 89.9997,-90.0816 0,-49.7509 -40.2942,-90.0814 -89.9997,-90.0814 -49.7056,0 -89.9998,40.3305 -89.9998,90.0814 0,49.7511 40.2942,90.0816 89.9998,90.0816 z"
       style="fill:none;stroke:#ff0000;stroke-width:0.8;stroke-linecap:butt;stroke-linejoin:miter;stroke-miterlimit:2.66040587;stroke-dasharray:none;stroke-opacity:1"
       id="path48"
       inkscape:connector-curvature="0" /><path
       d="m 1596.1518,1036.1506 c 25.2057,-3.7426 45.1389,-23.6489 48.9229,-48.8412 m -0.015,-17.5301 c -3.8396,-25.2734 -23.9366,-45.2066 -49.2897,-48.7992 m -16.793,0.0459 c -25.2159,3.7151 -45.1684,23.6055 -48.9779,48.791 m -0.1247,16.6831 c 3.4835,25.6422 23.6707,45.9756 49.2415,49.68"
       style="fill:none;stroke:#ff0000;stroke-width:0.8;stroke-linecap:butt;stroke-linejoin:miter;stroke-miterlimit:2.66040587;stroke-dasharray:none;stroke-opacity:1"
       id="path50"
       inkscape:connector-curvature="0" /><path
       d="m 1596.6051,1013.4422 c 12.6111,-3.2723 22.5371,-13.2094 25.7927,-25.8276 m 0.01,-18.0017 c -3.1989,-12.4565 -12.8965,-22.3075 -25.2649,-25.7232 m -17.765,-0.3671 c -12.9362,2.9971 -23.2007,12.9685 -26.619,25.738 m -0.084,18.3481 c 3.2771,12.7105 13.3225,22.7021 26.0637,25.9024"
       style="fill:none;stroke:#ff0000;stroke-width:0.8;stroke-linecap:butt;stroke-linejoin:miter;stroke-miterlimit:2.66040587;stroke-dasharray:none;stroke-opacity:1"
       id="path52"
       inkscape:connector-curvature="0" /><path
       d="m 1644.9846,969.2955 -22.8351,0 m -69.2501,0 -22.8186,0 m -0.092,18 22.4113,0 m 70.0001,0 22.6749,0.0139"
       style="fill:none;stroke:#ff0000;stroke-width:0.8;stroke-linecap:butt;stroke-linejoin:miter;stroke-miterlimit:2.66040587;stroke-dasharray:none;stroke-opacity:1"
       id="path54"
       inkscape:connector-curvature="0" /><path
       d="m 1596.1518,1036.1506 0.618,-22.7852 m 0,-70.0001 -0.9995,-22.3852 m -16.793,0.0459 -0.2075,22.3393 m 0,70.2501 0.3464,22.5647"
       style="fill:none;stroke:#ff0000;stroke-width:0.8;stroke-linecap:butt;stroke-linejoin:miter;stroke-miterlimit:2.66040587;stroke-dasharray:none;stroke-opacity:1"
       id="path56"
       inkscape:connector-curvature="0" /><path
       d="m 660.4747,1156.8628 c -9.9411,0 -18,-8.0589 -18,-18 0,-9.9411 8.0589,-18 18,-18 0.9522,0 2.7995,0.2166 2.7995,0.2166 12.9637,-9.1865 89.9376,-31.9311 143.1408,-18.6029 1.0795,0.2704 65.3899,20.2073 100.6668,26.5376 11.6836,2.0965 25.598,-4.6309 34.5138,-10.637 2.7201,-1.8323 -1.8176,-18.8234 -0.6568,-19.0491 1.66,-0.3226 12.5895,17.8555 12.3253,18.7427 -2.5988,8.7185 -33.0491,23.4187 -45.1998,21.6649 -29.6742,-4.2831 -92.2785,-23.9411 -105.9999,-25.6907 -23.4876,-2.995 -44.2769,-6.1818 -61.2383,-3.5209 -41.3178,6.482 -62.8956,23.9284 -62.8815,23.9848 0.3453,1.3932 0.5301,2.8528 0.5301,4.354 0,9.9411 -8.0589,18 -18,18 z"
       style="fill:none;stroke:#ff0000;stroke-width:0.8;stroke-linecap:butt;stroke-linejoin:miter;stroke-miterlimit:2.66040587;stroke-dasharray:none;stroke-opacity:1"
       id="path58"
       inkscape:connector-curvature="0" /><path
       d="m 659.9469,1146.566 c -4.3741,0 -7.92,-3.5459 -7.92,-7.92 0,-4.3742 3.5459,-7.92 7.92,-7.92 4.3741,0 7.92,3.5458 7.92,7.92 0,4.3741 -3.5459,7.92 -7.92,7.92 z"
       style="fill:none;stroke:#ff0000;stroke-width:0.8;stroke-linecap:butt;stroke-linejoin:miter;stroke-miterlimit:2.66040587;stroke-dasharray:none;stroke-opacity:1"
       id="path60"
       inkscape:connector-curvature="0" /><path
       d="m 1176.4151,1170.2568 25.9999,0 0,-57.6 -25.9999,0 0,57.6 z"
       style="fill:none;stroke:#ff0000;stroke-width:0.8;stroke-linecap:butt;stroke-linejoin:miter;stroke-miterlimit:2.66040587;stroke-dasharray:none;stroke-opacity:1"
       id="path62"
       inkscape:connector-curvature="0" /><path
       d="m 1227.2105,1246.5281 c 0,9.9411 8.0589,18 18,18 9.9411,0 18,-8.0589 18,-18 0,-9.9411 -8.0589,-18 -18,-18 -9.9411,0 -18,8.0589 -18,18 z"
       style="fill:none;stroke:#ff0000;stroke-width:0.8;stroke-linecap:butt;stroke-linejoin:miter;stroke-miterlimit:2.66040587;stroke-dasharray:none;stroke-opacity:1"
       id="path64"
       inkscape:connector-curvature="0" /><path
       d="m 1237.2905,1246.5281 c 0,4.3741 3.5459,7.92 7.92,7.92 4.3742,0 7.92,-3.5459 7.92,-7.92 0,-4.3742 -3.5458,-7.92 -7.92,-7.92 -4.3741,0 -7.92,3.5458 -7.92,7.92 z"
       style="fill:none;stroke:#ff0000;stroke-width:0.8;stroke-linecap:butt;stroke-linejoin:miter;stroke-miterlimit:2.66040587;stroke-dasharray:none;stroke-opacity:1"
       id="path66"
       inkscape:connector-curvature="0" /><path
       d="m 554.0003,1144.6716 0,-29.8556 -4.2233,-3e-4 -0.0493,-14.5199 -14.645,0.25 0.3192,14.3949 -17.875,3e-4 -0.1278,-14.7563 -204.9384,-0.5035 -0.0266,14.3881 -14.974,0.345 5e-4,-14.7696 -219.9248,-0.5406 -0.0091,14.5953 -13.8382,-0.1278 0.1979,-14.4621 -10.7311,-0.064 0,51.501"
       style="fill:none;stroke:#ff0000;stroke-width:0.8;stroke-linecap:butt;stroke-linejoin:miter;stroke-miterlimit:2.66040587;stroke-dasharray:none;stroke-opacity:1"
       id="path68"
       inkscape:connector-curvature="0" /><path
       d="m 554.0003,1145.2456 0,48.0305 -4.2233,3e-4 -0.0493,14.5199 -14.645,-0.25 0.3192,-14.3949 -17.875,-3e-4 -0.1278,14.7563 -204.9384,0.5035 -0.0266,-14.3881 -14.974,-0.345 5e-4,14.7696 -219.0744,0.5406 -0.0091,-14.5953 -14.1735,0.1278 -0.1023,14.4621 -10.946,0.064 0,-59.3008"
       style="fill:none;stroke:#ff0000;stroke-width:0.8;stroke-linecap:butt;stroke-linejoin:miter;stroke-miterlimit:2.66040587;stroke-dasharray:none;stroke-opacity:1"
       id="path70"
       inkscape:connector-curvature="0" /><path
       d="m 1180.7206,1031.1849 108,0 0,-331.2 -108,0 0,331.2 z"
       style="fill:none;stroke:#ff0000;stroke-width:0.8;stroke-linecap:butt;stroke-linejoin:miter;stroke-miterlimit:2.66040587;stroke-dasharray:none;stroke-opacity:1"
       id="path72"
       inkscape:connector-curvature="0" /><path
       d="m 1199.1801,1024.4463 14.4,0 0,-14.4 -14.4,0 0,14.4 z"
       style="fill:none;stroke:#ff0000;stroke-width:0.8;stroke-linecap:butt;stroke-linejoin:miter;stroke-miterlimit:2.66040587;stroke-dasharray:none;stroke-opacity:1"
       id="path74"
       inkscape:connector-curvature="0" /><path
       d="m 1256.8802,1023.9463 14.4,0 0,-14.4 -14.4,0 0,14.4 z"
       style="fill:none;stroke:#ff0000;stroke-width:0.8;stroke-linecap:butt;stroke-linejoin:miter;stroke-miterlimit:2.66040587;stroke-dasharray:none;stroke-opacity:1"
       id="path76"
       inkscape:connector-curvature="0" /><path
       d="m 1199.1801,721.3263 14.4,0 0,-14.4 -14.4,0 0,14.4 z"
       style="fill:none;stroke:#ff0000;stroke-width:0.8;stroke-linecap:butt;stroke-linejoin:miter;stroke-miterlimit:2.66040587;stroke-dasharray:none;stroke-opacity:1"
       id="path78"
       inkscape:connector-curvature="0" /><path
       d="m 1256.8802,720.8263 14.4,0 0,-14.4 -14.4,0 0,14.4 z"
       style="fill:none;stroke:#ff0000;stroke-width:0.8;stroke-linecap:butt;stroke-linejoin:miter;stroke-miterlimit:2.66040587;stroke-dasharray:none;stroke-opacity:1"
       id="path80"
       inkscape:connector-curvature="0" /><path
       d="m 1227.1802,737.3265 14.4,0 0,-14.4 -14.4,0 0,14.4 z"
       style="fill:none;stroke:#ff0000;stroke-width:0.8;stroke-linecap:butt;stroke-linejoin:miter;stroke-miterlimit:2.66040587;stroke-dasharray:none;stroke-opacity:1"
       id="path82"
       inkscape:connector-curvature="0" /><path
       d="m 1226.6802,832.5468 14.4,0 0,-14.4 -14.4,0 0,14.4 z"
       style="fill:none;stroke:#ff0000;stroke-width:0.8;stroke-linecap:butt;stroke-linejoin:miter;stroke-miterlimit:2.66040587;stroke-dasharray:none;stroke-opacity:1"
       id="path84"
       inkscape:connector-curvature="0" /><path
       d="m 810.754,1188.1562 c 8.5317,-5.1027 11.3114,-16.1552 6.2087,-24.6869 -5.1026,-8.5318 -16.1555,-11.3114 -24.6872,-6.2088 -0.8172,0.4887 -2.2912,1.6229 -2.2912,1.6229 -15.8412,-1.23 -98.629,24.7478 -137.4474,63.4957 -1.9012,1.8976 -1.9372,10.0239 0.096,8.3461 65.9991,-54.4714 131.6299,-52.8667 131.654,-52.7862 0.419,1.3728 1.0094,2.7204 1.7799,4.0087 5.1026,8.5315 16.1555,11.3114 24.6872,6.2085 z"
       style="fill:none;stroke:#ff0000;stroke-width:0.8;stroke-linecap:butt;stroke-linejoin:miter;stroke-miterlimit:2.66040587;stroke-dasharray:none;stroke-opacity:1"
       id="path86"
       inkscape:connector-curvature="0" /><path
       d="m 805.6925,1179.326 c 3.7533,-2.2448 4.9762,-7.1073 2.7314,-10.8604 -2.2447,-3.7533 -7.107,-4.9762 -10.8603,-2.7315 -3.7534,2.2448 -4.9763,7.1073 -2.7315,10.8604 2.2448,3.7534 7.1073,4.9762 10.8604,2.7315 z"
       style="fill:none;stroke:#ff0000;stroke-width:0.8;stroke-linecap:butt;stroke-linejoin:miter;stroke-miterlimit:2.66040587;stroke-dasharray:none;stroke-opacity:1"
       id="path88"
       inkscape:connector-curvature="0" /><g
       id="g90"
       transform="scale(2.15243,2.15243)"
       style="stroke:#ff0000;stroke-width:0.37167295;stroke-miterlimit:2.66040587;stroke-dasharray:none"><path
         d="m 279.9901,356.2639 3.9524,0.9879 0.9881,0 5.9284,-1.976 0,-2.9642 -5.9284,-1.9763 -0.9881,0 -3.9524,0.9881 -1.976,-4.9405 2.9642,-1.976 0,-0.9882 0.9882,-5.9283 -2.9642,-1.9761 -4.9405,3.9521 0,0.9882 -0.9882,3.9523 -4.9402,0 -0.9882,-3.9523 0,-0.9882 -5.9283,-3.9521 -1.9764,1.9761 0.9882,5.9283 0,0.9882 2.9642,1.976 -1.976,4.9405 -3.9524,-0.9881 -0.9882,0 -5.9283,1.9763 0,2.9642 5.9283,1.976 0.9882,0 3.9524,-0.9879 1.976,4.9403 -2.9642,1.9763 0,0.9878 -0.9882,5.9287 1.9764,1.976 5.9283,-3.9523 0,-0.9882 0.9882,-3.952 4.9402,0 0.9882,3.952 0,0.9882 4.9405,3.9523 2.9642,-1.976 -0.9882,-5.9287 0,-0.9878 -2.9642,-1.9763 1.976,-4.9403 z"
         style="fill:none;stroke:#ff0000;stroke-width:0.37167295;stroke-linecap:butt;stroke-linejoin:miter;stroke-miterlimit:2.66040587;stroke-dasharray:none;stroke-opacity:1"
         id="path92"
         inkscape:connector-curvature="0" /></g><path
       d="m 581.9468,770.0664 c -4.3741,0 -7.92,-3.5459 -7.92,-7.92 0,-4.3742 3.5459,-7.92 7.92,-7.92 4.3741,0 7.92,3.5458 7.92,7.92 0,4.3741 -3.5459,7.92 -7.92,7.92 z"
       style="fill:none;stroke:#ff0000;stroke-width:0.8;stroke-linecap:butt;stroke-linejoin:miter;stroke-miterlimit:2.66040587;stroke-dasharray:none;stroke-opacity:1"
       id="path94"
       inkscape:connector-curvature="0" /><g
       id="g96"
       transform="matrix(2.15245,0,0,2.15245,-39.149597,48.936996)"
       style="stroke:#ff0000;stroke-width:0.3716695;stroke-miterlimit:2.66040587;stroke-dasharray:none"><path
         d="m 535.8787,381.0518 2.0027,0 3.0039,-1.0012 6.0077,-2.0027 0,-3.0036 -6.0077,-2.0027 -3.0039,-1.0012 -2.0027,0 0,-6.0077 1.0015,0 3.0039,-1.0015 5.0062,-4.0051 -1.0012,-3.0038 -6.0077,-1.0012 -4.0051,0 -1.0015,1.0012 -2.0024,-6.0078 1.0012,0 3.0039,-3.0039 4.0051,-4.005 -2.0024,-3.0039 -6.0078,1.0012 -3.0038,1.0012 -1.0015,1.0015 -4.0051,-5.0066 1.0012,-1.0012 2.0027,-3.0038 3.0039,-5.0066 -3.0039,-3.0039 -5.0066,3.0039 -3.0038,2.0027 -1.0012,1.0012 -5.0066,-4.0051 1.0015,-1.0015 1.0012,-3.0038 1.0012,-6.0078 -3.0039,-2.0024 -4.0051,4.0051 -3.0038,3.0039 0,1.0012 -6.0078,-2.0024 1.0012,-2.0027 0,-3.0039 -1.0012,-6.0077 -3.0039,-1.0012 -4.005,5.0062 -1.0015,3.0039 0,1.0015 -6.0077,0 0,-2.0027 -1.0012,-3.0039 -2.0027,-6.0077 -3.0036,0 -2.0027,6.0077 -1.0012,3.0039 0,2.0027 -6.0077,0 0,-1.0015 -1.0015,-3.0039 -4.0051,-5.0062 -3.0039,1.0012 -1.0012,6.0077 0,3.0039 1.0012,2.0027 -6.0077,2.0024 0,-1.0012 -3.0039,-3.0039 -4.0051,-4.0051 -3.0038,2.0024 1.0012,6.0078 1.0012,3.0038 1.0014,1.0015 -5.0065,4.0051 -1.0012,-1.0012 -3.0039,-2.0027 -5.0065,-3.0039 -3.0039,3.0039 3.0039,5.0066 2.0026,3.0038 1.0012,1.0012 -4.005,5.0066 -1.0015,-1.0015 -3.0039,-1.0012 -6.0077,-1.0012 -2.0024,3.0039 4.0051,4.005 3.0038,3.0039 1.0012,0 -2.0024,6.0078 -2.0026,-1.0012 -3.0039,0 -6.0078,1.0012 -1.0012,3.0038 5.0063,4.0051 3.0039,1.0015 1.0015,0 0,6.0077 -2.0027,0 -3.0039,1.0012 -6.0077,2.0027 0,3.0036 6.0077,2.0027 3.0039,1.0012 2.0027,0 0,6.0077 -1.0015,0 -3.0039,1.0015 -5.0063,4.0051 1.0012,3.0039 6.0078,1.0011 3.0039,0 2.0026,-1.0011 2.0024,6.0077 -1.0012,0 -3.0038,3.0039 -4.0051,4.005 2.0024,3.0039 6.0077,-1.0012 3.0039,-1.0012 1.0015,-1.0015 4.005,5.0066 -1.0012,1.0012 -2.0026,3.0039 -3.0039,5.0065 3.0039,3.0039 5.0065,-3.0039 3.0039,-2.0027 1.0012,-1.0012 5.0065,4.0051 -1.0014,1.0015 -1.0012,3.0039 -1.0012,6.0077 3.0038,2.0024 4.0051,-4.0051 3.0039,-3.0038 0,-1.0012 6.0077,2.0024 -1.0012,1.0014 0,4.0051 1.0012,6.0078 3.0039,1.0012 4.0051,-5.0063 1.0015,-3.0039 0,-1.0015 6.0077,0 0,2.0027 1.0012,3.0039 2.0027,6.0077 3.0036,0 2.0027,-6.0077 1.0012,-3.0039 0,-2.0027 6.0077,0 0,1.0015 1.0015,3.0039 4.005,5.0063 3.0039,-1.0012 1.0012,-6.0078 0,-4.0051 -1.0012,-1.0014 6.0078,-2.0024 0,1.0012 3.0038,3.0038 4.0051,4.0051 3.0039,-2.0024 -1.0012,-6.0077 -1.0012,-3.0039 -1.0015,-1.0015 5.0066,-4.0051 1.0012,1.0012 3.0038,2.0027 5.0066,3.0039 3.0039,-3.0039 -3.0039,-5.0065 -2.0027,-3.0039 -1.0012,-1.0012 4.0051,-5.0066 1.0015,1.0015 3.0038,1.0012 6.0078,1.0012 2.0024,-3.0039 -4.0051,-4.005 -3.0039,-3.0039 -1.0012,0 2.0024,-6.0077 1.0015,1.0011 4.0051,0 6.0077,-1.0011 1.0012,-3.0039 -5.0062,-4.0051 -3.0039,-1.0015 -1.0015,0 0,-6.0077 z"
         style="fill:none;stroke:#ff0000;stroke-width:0.3716695;stroke-linecap:butt;stroke-linejoin:miter;stroke-miterlimit:2.66040587;stroke-dasharray:none;stroke-opacity:1"
         id="path98"
         inkscape:connector-curvature="0" /></g><path
       d="m 993.7377,867.8627 c -4.3741,0 -7.92,-3.5458 -7.92,-7.92 0,-4.3741 3.5459,-7.92 7.92,-7.92 4.3742,0 7.92,3.5459 7.92,7.92 0,4.3742 -3.5458,7.92 -7.92,7.92 z"
       style="fill:none;stroke:#ff0000;stroke-width:0.80000001;stroke-linecap:butt;stroke-linejoin:miter;stroke-miterlimit:2.66040587;stroke-dasharray:none;stroke-opacity:1"
       id="path100"
       inkscape:connector-curvature="0" /><path
       d="m 1003.2253,759.5832 c 47.7723,4.4595 85.8628,42.2578 90.7758,89.8966 m 0.043,20.5058 c -4.7138,47.6561 -42.6189,85.5573 -90.2773,90.2645 m -20.0094,0.005 c -47.8625,-4.7044 -85.898,-42.8854 -90.3776,-90.813 m -0.002,-18.9734 c 4.4827,-48.0878 42.7456,-86.3694 90.8255,-90.8807"
       style="fill:none;stroke:#ff0000;stroke-width:0.80000001;stroke-linecap:butt;stroke-linejoin:miter;stroke-miterlimit:2.66040587;stroke-dasharray:none;stroke-opacity:1"
       id="path102"
       inkscape:connector-curvature="0" /><path
       d="m 1028.7261,868.4529 c -3.0776,12.6972 -12.8872,22.7648 -25.4367,26.2091 m -18.6429,0.1231 c -12.5742,-3.2718 -22.4745,-13.1707 -25.7488,-25.7432 m 0.085,-18.5195 c 3.4625,-12.8053 13.8135,-22.781 26.8314,-25.7049 m 17.9467,0.5389 c 12.1765,3.5223 21.6972,13.3013 24.8536,25.6286"
       style="fill:none;stroke:#ff0000;stroke-width:0.80000001;stroke-linecap:butt;stroke-linejoin:miter;stroke-miterlimit:2.66040587;stroke-dasharray:none;stroke-opacity:1"
       id="path104"
       inkscape:connector-curvature="0" /><path
       d="m 1093.7387,850.4526 -65.0016,0 m -69.4998,0 -65.4988,0 m 0,18.5001 64.4987,0 m 70.4999,0 65.0016,0"
       style="fill:none;stroke:#ff0000;stroke-width:0.80000001;stroke-linecap:butt;stroke-linejoin:miter;stroke-miterlimit:2.66040587;stroke-dasharray:none;stroke-opacity:1"
       id="path106"
       inkscape:connector-curvature="0" /><path
       d="m 1002.9886,959.7027 -3e-4,-65.2473 m 0,-69.5004 3e-4,-65.2524 m -18.5,0 0,65.2527 m 0,70.0001 0,64.7473"
       style="fill:none;stroke:#ff0000;stroke-width:0.80000001;stroke-linecap:butt;stroke-linejoin:miter;stroke-miterlimit:2.66040587;stroke-dasharray:none;stroke-opacity:1"
       id="path108"
       inkscape:connector-curvature="0" /><path
       d="m 1225.2107,1202.5281 c 0,9.9411 8.0589,18 18,18 9.9411,0 18,-8.0589 18,-18 0,-9.9411 -8.0589,-18 -18,-18 -9.9411,0 -18,8.0589 -18,18 z"
       style="fill:none;stroke:#ff0000;stroke-width:0.8;stroke-linecap:butt;stroke-linejoin:miter;stroke-miterlimit:2.66040587;stroke-dasharray:none;stroke-opacity:1"
       id="path110"
       inkscape:connector-curvature="0" /><path
       d="m 1235.2907,1202.5281 c 0,4.3742 3.5458,7.92 7.92,7.92 4.3741,0 7.92,-3.5458 7.92,-7.92 0,-4.3741 -3.5459,-7.92 -7.92,-7.92 -4.3742,0 -7.92,3.5459 -7.92,7.92 z"
       style="fill:none;stroke:#ff0000;stroke-width:0.8;stroke-linecap:butt;stroke-linejoin:miter;stroke-miterlimit:2.66040587;stroke-dasharray:none;stroke-opacity:1"
       id="path112"
       inkscape:connector-curvature="0" /><path
       d="m 1225.2107,1158.5279 c 0,9.9411 8.0589,18 18,18 9.9411,0 18,-8.0589 18,-18 0,-9.9411 -8.0589,-18 -18,-18 -9.9411,0 -18,8.0589 -18,18 z"
       style="fill:none;stroke:#ff0000;stroke-width:0.8;stroke-linecap:butt;stroke-linejoin:miter;stroke-miterlimit:2.66040587;stroke-dasharray:none;stroke-opacity:1"
       id="path114"
       inkscape:connector-curvature="0" /><path
       d="m 1235.2907,1158.5279 c 0,4.3741 3.5458,7.92 7.92,7.92 4.3741,0 7.92,-3.5459 7.92,-7.92 0,-4.3741 -3.5459,-7.92 -7.92,-7.92 -4.3742,0 -7.92,3.5459 -7.92,7.92 z"
       style="fill:none;stroke:#ff0000;stroke-width:0.8;stroke-linecap:butt;stroke-linejoin:miter;stroke-miterlimit:2.66040587;stroke-dasharray:none;stroke-opacity:1"
       id="path116"
       inkscape:connector-curvature="0" /><path
       d="m 1269.2103,1158.5282 c 0,9.9411 8.0589,18 18,18 9.9411,0 18,-8.0589 18,-18 0,-9.9411 -8.0589,-18 -18,-18 -9.9411,0 -18,8.0589 -18,18 z"
       style="fill:none;stroke:#ff0000;stroke-width:0.8;stroke-linecap:butt;stroke-linejoin:miter;stroke-miterlimit:2.66040587;stroke-dasharray:none;stroke-opacity:1"
       id="path118"
       inkscape:connector-curvature="0" /><path
       d="m 1279.2903,1158.5282 c 0,4.3741 3.5459,7.92 7.92,7.92 4.3742,0 7.92,-3.5459 7.92,-7.92 0,-4.3742 -3.5458,-7.92 -7.92,-7.92 -4.3741,0 -7.92,3.5458 -7.92,7.92 z"
       style="fill:none;stroke:#ff0000;stroke-width:0.8;stroke-linecap:butt;stroke-linejoin:miter;stroke-miterlimit:2.66040587;stroke-dasharray:none;stroke-opacity:1"
       id="path120"
       inkscape:connector-curvature="0" /><path
       d="m 1269.2106,1204.5283 c 0,9.9411 8.0589,18 18,18 9.9411,0 18,-8.0589 18,-18 0,-9.9412 -8.0589,-18 -18,-18 -9.9411,0 -18,8.0588 -18,18 z"
       style="fill:none;stroke:#ff0000;stroke-width:0.8;stroke-linecap:butt;stroke-linejoin:miter;stroke-miterlimit:2.66040587;stroke-dasharray:none;stroke-opacity:1"
       id="path122"
       inkscape:connector-curvature="0" /><path
       d="m 1279.2906,1204.5283 c 0,4.3741 3.5459,7.92 7.92,7.92 4.3742,0 7.92,-3.5459 7.92,-7.92 0,-4.3742 -3.5458,-7.92 -7.92,-7.92 -4.3741,0 -7.92,3.5458 -7.92,7.92 z"
       style="fill:none;stroke:#ff0000;stroke-width:0.8;stroke-linecap:butt;stroke-linejoin:miter;stroke-miterlimit:2.66040587;stroke-dasharray:none;stroke-opacity:1"
       id="path124"
       inkscape:connector-curvature="0" /><path
       d="m 1269.2106,1246.5281 c 0,9.9411 8.0589,18 18,18 9.9411,0 18,-8.0589 18,-18 0,-9.9411 -8.0589,-18 -18,-18 -9.9411,0 -18,8.0589 -18,18 z"
       style="fill:none;stroke:#ff0000;stroke-width:0.8;stroke-linecap:butt;stroke-linejoin:miter;stroke-miterlimit:2.66040587;stroke-dasharray:none;stroke-opacity:1"
       id="path126"
       inkscape:connector-curvature="0" /><path
       d="m 1279.2906,1246.5281 c 0,4.3741 3.5459,7.92 7.92,7.92 4.3742,0 7.92,-3.5459 7.92,-7.92 0,-4.3742 -3.5458,-7.92 -7.92,-7.92 -4.3741,0 -7.92,3.5458 -7.92,7.92 z"
       style="fill:none;stroke:#ff0000;stroke-width:0.8;stroke-linecap:butt;stroke-linejoin:miter;stroke-miterlimit:2.66040587;stroke-dasharray:none;stroke-opacity:1"
       id="path128"
       inkscape:connector-curvature="0" /><path
       d="m 1177.2105,1204.5283 c 0,9.9411 8.0589,18 18,18 9.9411,0 18,-8.0589 18,-18 0,-9.9412 -8.0589,-18 -18,-18 -9.9411,0 -18,8.0588 -18,18 z"
       style="fill:none;stroke:#ff0000;stroke-width:0.8;stroke-linecap:butt;stroke-linejoin:miter;stroke-miterlimit:2.66040587;stroke-dasharray:none;stroke-opacity:1"
       id="path130"
       inkscape:connector-curvature="0" /><path
       d="m 1187.2905,1204.5283 c 0,4.3741 3.5458,7.92 7.92,7.92 4.3741,0 7.92,-3.5459 7.92,-7.92 0,-4.3742 -3.5459,-7.92 -7.92,-7.92 -4.3742,0 -7.92,3.5458 -7.92,7.92 z"
       style="fill:none;stroke:#ff0000;stroke-width:0.8;stroke-linecap:butt;stroke-linejoin:miter;stroke-miterlimit:2.66040587;stroke-dasharray:none;stroke-opacity:1"
       id="path132"
       inkscape:connector-curvature="0" /><path
       d="m 1177.2105,1244.5279 c 0,9.9411 8.0589,18 18,18 9.9411,0 18,-8.0589 18,-18 0,-9.9411 -8.0589,-18 -18,-18 -9.9411,0 -18,8.0589 -18,18 z"
       style="fill:none;stroke:#ff0000;stroke-width:0.8;stroke-linecap:butt;stroke-linejoin:miter;stroke-miterlimit:2.66040587;stroke-dasharray:none;stroke-opacity:1"
       id="path134"
       inkscape:connector-curvature="0" /><path
       d="m 1187.2905,1244.5279 c 0,4.3742 3.5458,7.92 7.92,7.92 4.3741,0 7.92,-3.5458 7.92,-7.92 0,-4.3741 -3.5459,-7.92 -7.92,-7.92 -4.3742,0 -7.92,3.5459 -7.92,7.92 z"
       style="fill:none;stroke:#ff0000;stroke-width:0.8;stroke-linecap:butt;stroke-linejoin:miter;stroke-miterlimit:2.66040587;stroke-dasharray:none;stroke-opacity:1"
       id="path136"
       inkscape:connector-curvature="0" /><path
       d="m 820.7541,1232.1561 c 8.5317,-5.1026 11.3113,-16.1552 6.2087,-24.6869 -5.1026,-8.5317 -16.1555,-11.3114 -24.6872,-6.2087 -0.8172,0.4887 -2.2913,1.6228 -2.2913,1.6228 -15.8411,-1.2299 -85.6661,18.2738 -124.486,57.0158 -1.8972,1.893 -1.9372,10.0241 0.0961,8.3463 65.9994,-54.4717 118.6685,-46.387 118.6926,-46.3065 0.419,1.3728 1.0094,2.7204 1.7799,4.0088 5.1026,8.5314 16.1555,11.3114 24.6872,6.2084 z"
       style="fill:none;stroke:#ff0000;stroke-width:0.8;stroke-linecap:butt;stroke-linejoin:miter;stroke-miterlimit:2.66040587;stroke-dasharray:none;stroke-opacity:1"
       id="path138"
       inkscape:connector-curvature="0" /><path
       d="m 815.6925,1223.3259 c 3.7534,-2.2447 4.9763,-7.1073 2.7315,-10.8604 -2.2448,-3.7533 -7.107,-4.9762 -10.8604,-2.7314 -3.7533,2.2447 -4.9762,7.1073 -2.7314,10.8604 2.2447,3.7533 7.1073,4.9762 10.8603,2.7314 z"
       style="fill:none;stroke:#ff0000;stroke-width:0.8;stroke-linecap:butt;stroke-linejoin:miter;stroke-miterlimit:2.66040587;stroke-dasharray:none;stroke-opacity:1"
       id="path140"
       inkscape:connector-curvature="0" /><g
       id="g142"
       transform="matrix(2.11474,0,0,2.11474,24.468498,39.149597)"
       style="stroke:#ff0000;stroke-width:0.37829709;stroke-miterlimit:2.66040587;stroke-dasharray:none"><path
         d="m 624.8032,187.4415 4.9927,-0.9986 5.9916,-1.9973 0,-3.9943 -5.9916,-1.9973 -4.9927,-0.9987 0,-4.9929 4.9927,-1.997 4.993,-2.9957 -0.9984,-3.9946 -4.993,-0.9983 -5.9915,0 -0.9987,-4.993 4.993,-2.9959 3.9943,-2.9956 -0.9987,-3.9943 -5.9913,0 -4.9929,0 -1.9973,-3.9943 3.9943,-2.996 3.9945,-4.9929 -1.9972,-2.9957 -4.993,0 -5.9916,1.997 -1.997,-3.994 2.9957,-3.9946 2.9956,-4.9929 -1.997,-2.9957 -4.9929,0.9987 -4.993,1.997 -2.9956,-3.9943 2.9956,-3.9943 1.9973,-4.993 -2.9959,-2.9959 -4.993,1.9973 -3.9943,2.9956 -3.9943,-2.9956 1.997,-4.993 0.9987,-4.9929 -2.9957,-1.997 -4.9929,2.9956 -3.9943,2.9957 -3.9943,-1.997 1.997,-5.9916 0,-4.9929 -2.9957,-1.9973 -4.9929,3.9946 -2.9959,3.9943 -3.9943,-1.9973 0,-4.9927 0,-5.9916 -3.9943,-0.9986 -2.9957,3.9943 -2.9959,4.9929 -4.993,-0.9986 0,-5.9916 -0.9983,-4.993 -3.9946,-0.9983 -2.9957,4.9929 -1.997,4.9927 -4.9929,0 -0.9987,-4.9927 -1.9973,-5.9916 -3.9943,0 -1.9973,5.9916 -0.9983,4.9927 -4.993,0 -1.9973,-4.9927 -2.9956,-4.9929 -3.9943,0.9983 -0.9987,4.993 0,5.9916 -4.9929,0.9986 -2.9959,-4.9929 -2.9957,-3.9943 -3.9943,0.9986 0,5.9916 0,4.9927 -3.9943,1.9973 -2.9959,-3.9943 -4.993,-3.9946 -2.9956,1.9973 0,4.9929 1.9973,5.9916 -3.9946,1.997 -3.9943,-2.9957 -4.993,-2.9956 -2.9956,1.997 0.9986,4.9929 1.997,4.993 -3.9943,2.9956 -3.9943,-2.9956 -4.9929,-1.9973 -2.9957,2.9959 1.9971,4.993 2.9959,3.9943 -2.9959,3.9943 -4.993,-1.997 -4.9929,-0.9987 -1.997,2.9957 2.9956,4.9929 2.9959,3.9946 -1.9972,3.994 -5.9916,-1.997 -4.993,0 -1.997,2.9957 3.9943,4.9929 3.9943,2.996 -1.9973,3.9943 -4.9929,0 -5.9913,0 -0.9987,3.9943 3.9943,2.9956 4.993,2.9959 -0.9987,4.993 -5.9913,0 -4.9929,0.9983 -0.9987,3.9946 4.993,2.9957 4.9929,1.997 0,4.9929 -4.9929,0.9987 -5.9916,1.9973 0,3.9943 5.9916,1.9973 4.9929,0.9986 0,4.9927 -4.9929,1.9973 -4.993,2.9956 0.9987,3.9943 4.9929,0.9987 5.9913,0 0.9987,4.9929 -4.993,2.9959 -3.9943,2.9957 0.9987,3.9943 5.9913,0 4.9929,0 1.9973,3.9943 -3.9943,2.9959 -3.9943,4.993 1.997,2.9956 4.993,0 5.9916,-1.9973 1.9972,3.9946 -2.9959,3.9943 -2.9956,4.993 1.997,2.9956 4.9929,-0.9986 4.993,-1.997 2.9959,3.9943 -2.9959,3.9943 -1.9971,4.9929 2.9957,2.9957 4.9929,-1.997 3.9943,-2.996 3.9943,2.996 -1.997,4.9929 -0.9986,4.9929 2.9956,1.9971 4.993,-2.9957 3.9943,-2.9959 3.9946,1.9973 -1.9973,5.9915 0,4.993 2.9956,1.997 4.993,-3.9943 2.9959,-3.9943 3.9943,1.9973 0,4.9932 0,5.991 3.9943,0.9987 2.9957,-3.9943 2.9959,-4.993 4.9929,0.9987 0,5.9913 0.9987,4.9932 3.9943,0.9984 2.9956,-4.993 1.9973,-4.9929 4.993,0 0.9983,4.9929 1.9973,5.9916 3.9943,0 1.9973,-5.9916 0.9987,-4.9929 4.9929,0 1.997,4.9929 2.9957,4.993 3.9946,-0.9984 0.9983,-4.9932 0,-5.9913 4.993,-0.9987 2.9959,4.993 2.9957,3.9943 3.9943,-0.9987 0,-5.991 0,-4.9932 3.9943,-1.9973 2.9959,3.9943 4.9929,3.9943 2.9957,-1.997 0,-4.993 -1.997,-5.9915 3.9943,-1.9973 3.9943,2.9959 4.9929,2.9957 2.9957,-1.9971 -0.9987,-4.9929 -1.997,-4.9929 3.9943,-2.996 3.9943,2.996 4.993,1.997 2.9959,-2.9957 -1.9973,-4.9929 -2.9956,-3.9943 2.9956,-3.9943 4.993,1.997 4.9929,0.9986 1.997,-2.9956 -2.9956,-4.993 -2.9957,-3.9943 1.997,-3.9946 5.9916,1.9973 4.993,0 1.9972,-2.9956 -3.9945,-4.993 -3.9943,-2.9959 1.9973,-3.9943 4.9929,0 5.9913,0 0.9987,-3.9943 -3.9943,-2.9957 -4.993,-2.9959 0.9987,-4.9929 5.9915,0 4.993,-0.9987 0.9984,-3.9943 -4.993,-2.9956 -4.9927,-1.9973 0,-4.9927 z"
         style="fill:none;stroke:#ff0000;stroke-width:0.37829709;stroke-linecap:butt;stroke-linejoin:miter;stroke-miterlimit:2.66040587;stroke-dasharray:none;stroke-opacity:1"
         id="path144"
         inkscape:connector-curvature="0" /></g><path
       d="m 1142.8584,433.4692 c 4.3741,0 7.92,-3.5458 7.92,-7.92 0,-4.3741 -3.5459,-7.92 -7.92,-7.92 -4.3742,0 -7.92,3.5459 -7.92,7.92 0,4.3742 3.5458,7.92 7.92,7.92 z"
       style="fill:none;stroke:#ff0000;stroke-width:0.80000001;stroke-linecap:butt;stroke-linejoin:miter;stroke-miterlimit:2.66040587;stroke-dasharray:none;stroke-opacity:1"
       id="path146"
       inkscape:connector-curvature="0" /><path
       d="m 1154.9864,597.9303 c 85.9485,-5.9593 154.5914,-74.7689 160.2893,-160.7879 m -0.019,-23.4684 c -5.8274,-85.8588 -74.3709,-154.5083 -160.1858,-160.4999 m -24.6373,0.0151 c -85.6979,6.0885 -154.1228,74.6679 -159.9699,160.4313 m -0.0535,23.0428 c 5.4584,85.9935 73.8167,154.8986 159.5761,161.2137"
       style="fill:none;stroke:#ff0000;stroke-width:0.80000001;stroke-linecap:butt;stroke-linejoin:miter;stroke-miterlimit:2.66040587;stroke-dasharray:none;stroke-opacity:1"
       id="path148"
       inkscape:connector-curvature="0" /><path
       d="m 1315.2513,413.407 -137.749,0 m -68.5001,0 -138.7508,0 m 0,23 138.2508,0 m 68.5003,0 138.2488,0"
       style="fill:none;stroke:#ff0000;stroke-width:0.80000001;stroke-linecap:butt;stroke-linejoin:miter;stroke-miterlimit:2.66040587;stroke-dasharray:none;stroke-opacity:1"
       id="path150"
       inkscape:connector-curvature="0" /><path
       d="m 1131.2514,459.1573 0,138.25 m 23.4997,0 0,-137.2502 m 0,-67.5 -0.4997,-140.2497 m -23,0 0,138.7499"
       style="fill:none;stroke:#ff0000;stroke-width:0.80000001;stroke-linecap:butt;stroke-linejoin:miter;stroke-miterlimit:2.66040587;stroke-dasharray:none;stroke-opacity:1"
       id="path152"
       inkscape:connector-curvature="0" /><path
       d="m 1108.4515,436.1729 c 3.4191,11.0872 12.05,19.8884 23.0315,23.5423 m 23.7325,-0.3427 c 10.4933,-3.8344 18.7024,-12.4135 22.0311,-23.1395 m -0.2806,-22.2324 c -3.4804,-10.2827 -11.4806,-18.4816 -21.6355,-22.2321 m -24.3623,-0.2095 c -10.2079,3.5705 -18.3175,11.6098 -21.9835,21.7723"
       style="fill:none;stroke:#ff0000;stroke-width:0.80000001;stroke-linecap:butt;stroke-linejoin:miter;stroke-miterlimit:2.66040587;stroke-dasharray:none;stroke-opacity:1"
       id="path154"
       inkscape:connector-curvature="0" /><path
       d="m 783.9658,261.3059 c 21.5127,0.4022 38.4273,0.0779 59.94,0.4801 -0.5831,-18.841 5.5964,-66.4772 54.2633,-80.3182 -38.9293,46.1962 14.8873,66.8568 31.7081,65.4619 30.9999,-3.5833 41.7537,-18.563 41.7537,-41.8964 -0.6602,-33.1225 -10,-56.6668 -54,-64 -18.5,0 -37,2e-4 -55.5001,2e-4 -44.7193,14.7561 -73.2968,48.1116 -69.8748,64.4999 l -8.2902,-0.1279"
       style="fill:none;stroke:#ff0000;stroke-width:0.8;stroke-linecap:butt;stroke-linejoin:miter;stroke-miterlimit:2.66040587;stroke-dasharray:none;stroke-opacity:1"
       id="path156"
       inkscape:connector-curvature="0" /><path
       d="m 784.0786,205.1093 -108,0 m 0,55.9239 0,811.0715 17.579,0 -0.006,14.4615 14.7007,0.25 0.2702,-14.7115 43.2799,0 -0.3982,14.4615 14.9502,-0.4998 -0.364,-14.2118 17.9881,0.2501 0,-810.8218"
       style="fill:none;stroke:#ff0000;stroke-width:0.8;stroke-linecap:butt;stroke-linejoin:miter;stroke-miterlimit:2.66040587;stroke-dasharray:none;stroke-opacity:1"
       id="path158"
       inkscape:connector-curvature="0" /><path
       d="m 676.0312,261.3059 c -21.5126,0.4022 -38.4273,0.0779 -59.94,0.4801 0.5831,-18.841 -5.5964,-66.4772 -54.2633,-80.3182 38.9293,46.1962 -14.8873,66.8568 -31.7081,65.4619 -30.9999,-3.5833 -41.7537,-18.563 -41.7537,-41.8964 0.6602,-33.1225 10,-56.6668 54,-64 18.5,0 37,2e-4 55.5001,2e-4 44.7193,14.7561 73.2968,48.1116 69.8748,64.4999 l 8.2902,-0.1279"
       style="fill:none;stroke:#ff0000;stroke-width:0.8;stroke-linecap:butt;stroke-linejoin:miter;stroke-miterlimit:2.66040587;stroke-dasharray:none;stroke-opacity:1"
       id="path160"
       inkscape:connector-curvature="0" /><path
       d="m 704.2204,253.785 54,0 0,-14.4 -54,0 0,14.4 z"
       style="fill:none;stroke:#ff0000;stroke-width:0.8;stroke-linecap:butt;stroke-linejoin:miter;stroke-miterlimit:2.66040587;stroke-dasharray:none;stroke-opacity:1"
       id="path162"
       inkscape:connector-curvature="0" /><path
       d="m 729.7696,941.8997 c 7.3565,0 13.32,-5.9635 13.32,-13.32 0,-7.3564 -5.9635,-13.32 -13.32,-13.32 -7.3565,0 -13.32,5.9636 -13.32,13.32 0,7.3565 5.9635,13.32 13.32,13.32 z"
       style="fill:none;stroke:#ff0000;stroke-width:0.8;stroke-linecap:butt;stroke-linejoin:miter;stroke-miterlimit:2.66040587;stroke-dasharray:none;stroke-opacity:1"
       id="path164"
       inkscape:connector-curvature="0" /><path
       d="m 729.3297,775.0996 c 7.3564,0 13.32,-5.9636 13.32,-13.32 0,-7.3565 -5.9636,-13.32 -13.32,-13.32 -7.3565,0 -13.32,5.9635 -13.32,13.32 0,7.3564 5.9635,13.32 13.32,13.32 z"
       style="fill:none;stroke:#ff0000;stroke-width:0.8;stroke-linecap:butt;stroke-linejoin:miter;stroke-miterlimit:2.66040587;stroke-dasharray:none;stroke-opacity:1"
       id="path166"
       inkscape:connector-curvature="0" /><path
       d="m 730.2268,521.4458 c -7.3564,0 -13.32,-5.9635 -13.32,-13.32 0,-7.3564 5.9636,-13.32 13.32,-13.32 7.3565,0 13.32,5.9636 13.32,13.32 0,7.3565 -5.9635,13.32 -13.32,13.32 z"
       style="fill:none;stroke:#ff0000;stroke-width:0.8;stroke-linecap:butt;stroke-linejoin:miter;stroke-miterlimit:2.66040587;stroke-dasharray:none;stroke-opacity:1"
       id="path168"
       inkscape:connector-curvature="0" /><path
       d="m 176.0369,220.7993 c 7.2113,-2.3473 12.4234,-9.125 12.4234,-17.1195 0,-9.9411 -8.0589,-18 -18,-18 -9.9411,0 -18,8.0589 -18,18 0,7.6153 4.7296,14.1262 11.4111,16.7559"
       style="fill:none;stroke:#ff0000;stroke-width:0.8;stroke-linecap:butt;stroke-linejoin:miter;stroke-miterlimit:2.66040587;stroke-dasharray:none;stroke-opacity:1"
       id="path170"
       inkscape:connector-curvature="0" /><path
       d="m 170.4603,195.7598 c -4.3742,0 -7.92,3.5458 -7.92,7.92 0,4.3741 3.5458,7.92 7.92,7.92 4.3741,0 7.92,-3.5459 7.92,-7.92 0,-4.3742 -3.5459,-7.92 -7.92,-7.92 z"
       style="fill:none;stroke:#ff0000;stroke-width:0.8;stroke-linecap:butt;stroke-linejoin:miter;stroke-miterlimit:2.66040587;stroke-dasharray:none;stroke-opacity:1"
       id="path172"
       inkscape:connector-curvature="0" /><path
       d="m 163.8955,220.7494 0.4862,338.5083 m 0.0181,12.5 0.4958,345.0135 -23.2503,0 -0.525,-21.0521 -10.4086,0.1092 0.1066,33.5185 34.0773,-0.0774 11.9999,0 m 0,0 35.9671,-0.0451 -0.0646,-32.754 -10.8777,0.0425 -0.0246,20.3834 -25.0002,0 m 0,0 -0.4961,-345.1385 m -0.0184,-12.75 -0.4856,-338.2583"
       style="fill:none;stroke:#ff0000;stroke-width:0.8;stroke-linecap:butt;stroke-linejoin:miter;stroke-miterlimit:2.66040587;stroke-dasharray:none;stroke-opacity:1"
       id="path174"
       inkscape:connector-curvature="0" /><path
       d="m 164.8956,558.9312 -23.2503,0 -0.525,-21.0521 -10.4086,0.1092 0.1066,33.5185 34.0773,-0.0774 m 11.9999,0 35.9671,-0.0451 -0.0646,-32.754 -10.8777,0.0425 -0.0246,20.3834 -25.0002,0"
       style="fill:none;stroke:#ff0000;stroke-width:0.8;stroke-linecap:butt;stroke-linejoin:miter;stroke-miterlimit:2.66040587;stroke-dasharray:none;stroke-opacity:1"
       id="path176"
       inkscape:connector-curvature="0" /><path
       d="m 1482.7686,807.4704 c 7.9038,2.2663 35.7828,8.3469 60.4372,5.8631 l 0,0 c 32.9995,-3.2496 63.0983,-19.9131 62.7233,-49.2879 -0.9587,-12.3333 -11.5157,-23.9414 -25.0994,-22.2747 -18.6667,2.8333 -22.3452,23.8473 -12.6113,35.7803 -7.1898,16.9702 -69.0948,-1.0669 -70.5345,-9.0969 l -0.106,-204.6583 29.4599,0.0241 0.037,-14.6489 -29.5038,-0.1253 -0.7112,-218.2402 35.8089,0.6942 c 2.6779,5.5701 8.1496,12.8432 22.919,12.9997 11.4491,-0.7744 17.7347,-14.2047 17.8081,-20.2913 -0.1018,-6.5579 -4.8475,-18.6797 -19.1996,-19.8 -12.5249,0.527 -19.4613,8.7999 -20.9685,12.6573 l -35.1728,-0.2092 -0.3592,-11.9613 -14.4657,-9e-4"
       style="fill:none;stroke:#ff0000;stroke-width:0.8;stroke-linecap:butt;stroke-linejoin:miter;stroke-miterlimit:2.66040587;stroke-dasharray:none;stroke-opacity:1"
       id="path178"
       inkscape:connector-curvature="0" /><path
       d="m 1570.0725,762.0021 c 0,7.3565 5.9636,13.32 13.32,13.32 7.3565,0 13.32,-5.9635 13.32,-13.32 0,-7.3565 -5.9635,-13.32 -13.32,-13.32 -7.3564,0 -13.32,5.9635 -13.32,13.32 z"
       style="fill:none;stroke:#ff0000;stroke-width:0.8;stroke-linecap:butt;stroke-linejoin:miter;stroke-miterlimit:2.66040587;stroke-dasharray:none;stroke-opacity:1"
       id="path180"
       inkscape:connector-curvature="0" /><path
       d="m 1497.9583,787.4226 0,14.4 14.4,0 0,-14.4 -14.4,0 z"
       style="fill:none;stroke:#ff0000;stroke-width:0.8;stroke-linecap:butt;stroke-linejoin:miter;stroke-miterlimit:2.66040587;stroke-dasharray:none;stroke-opacity:1"
       id="path182"
       inkscape:connector-curvature="0" /><path
       d="m 1539.9961,323.9884 c 0,7.3565 5.9635,13.32 13.32,13.32 7.3565,0 13.32,-5.9635 13.32,-13.32 0,-7.3565 -5.9635,-13.32 -13.32,-13.32 -7.3565,0 -13.32,5.9635 -13.32,13.32 z"
       style="fill:none;stroke:#ff0000;stroke-width:0.8;stroke-linecap:butt;stroke-linejoin:miter;stroke-miterlimit:2.66040587;stroke-dasharray:none;stroke-opacity:1"
       id="path184"
       inkscape:connector-curvature="0" /><path
       d="m 1423.0956,813.3335 c -32.9995,-3.2496 -63.0984,-19.9131 -62.7233,-49.2879 0.9586,-12.3333 11.5157,-23.9414 25.0993,-22.2747 18.6667,2.8333 22.3453,23.8473 12.6114,35.7803 7.1898,16.9702 69.0947,-1.0669 70.5344,-9.0969 l 0.1061,-204.6583 -29.4599,0.0241 -0.037,-14.6489 29.5039,-0.1253 0.7112,-218.2402 -35.809,0.6942 c -2.6779,5.5701 -8.1496,12.8432 -22.9189,12.9997 -11.4492,-0.7744 -17.7347,-14.2047 -17.8081,-20.2913 0.1017,-6.5579 4.8475,-18.6797 19.1996,-19.8 12.5249,0.527 19.4612,8.7999 20.9684,12.6573 l 35.1729,-0.2092 0.3591,-11.9613 14.4658,-9e-4 c 0.4439,60.768 0.077,472.318 0.4612,502.5762 -7.9039,2.2663 -35.7829,8.3469 -60.4372,5.8631 z"
       style="fill:none;stroke:#ff0000;stroke-width:0.8;stroke-linecap:butt;stroke-linejoin:miter;stroke-miterlimit:2.66040587;stroke-dasharray:none;stroke-opacity:1"
       id="path186"
       inkscape:connector-curvature="0" /><path
       d="m 1396.2288,762.0021 c 0,7.3565 -5.9635,13.32 -13.32,13.32 -7.3565,0 -13.32,-5.9635 -13.32,-13.32 0,-7.3565 5.9635,-13.32 13.32,-13.32 7.3565,0 13.32,5.9635 13.32,13.32 z"
       style="fill:none;stroke:#ff0000;stroke-width:0.8;stroke-linecap:butt;stroke-linejoin:miter;stroke-miterlimit:2.66040587;stroke-dasharray:none;stroke-opacity:1"
       id="path188"
       inkscape:connector-curvature="0" /><path
       d="m 1468.3431,787.4226 0,14.4 -14.4,0 0,-14.4 14.4,0 z"
       style="fill:none;stroke:#ff0000;stroke-width:0.8;stroke-linecap:butt;stroke-linejoin:miter;stroke-miterlimit:2.66040587;stroke-dasharray:none;stroke-opacity:1"
       id="path190"
       inkscape:connector-curvature="0" /><path
       d="m 1426.3053,323.9884 c 0,7.3565 -5.9636,13.32 -13.32,13.32 -7.3565,0 -13.32,-5.9635 -13.32,-13.32 0,-7.3565 5.9635,-13.32 13.32,-13.32 7.3564,0 13.32,5.9635 13.32,13.32 z"
       style="fill:none;stroke:#ff0000;stroke-width:0.8;stroke-linecap:butt;stroke-linejoin:miter;stroke-miterlimit:2.66040587;stroke-dasharray:none;stroke-opacity:1"
       id="path192"
       inkscape:connector-curvature="0" /></g></svg>