<?xml version="1.0" encoding="UTF-8" standalone="no"?>
<!-- Created with Inkscape (http://www.inkscape.org/) -->

<svg
   xmlns:dc="http://purl.org/dc/elements/1.1/"
   xmlns:cc="http://creativecommons.org/ns#"
   xmlns:rdf="http://www.w3.org/1999/02/22-rdf-syntax-ns#"
   xmlns:svg="http://www.w3.org/2000/svg"
   xmlns="http://www.w3.org/2000/svg"
   xmlns:sodipodi="http://sodipodi.sourceforge.net/DTD/sodipodi-0.dtd"
   xmlns:inkscape="http://www.inkscape.org/namespaces/inkscape"
   id="svg2"
   version="1.1"
   inkscape:version="0.91 r13725"
   xml:space="preserve"
   width="2160"
   height="1620"
   viewBox="0 0 2160 1620"
   sodipodi:docname="Galileo_Pendulum2.svg"><metadata
     id="metadata8"><rdf:RDF><cc:Work
         rdf:about=""><dc:format>image/svg+xml</dc:format><dc:type
           rdf:resource="http://purl.org/dc/dcmitype/StillImage" /><dc:title></dc:title></cc:Work></rdf:RDF></metadata><defs
     id="defs6" /><sodipodi:namedview
     pagecolor="#ffffff"
     bordercolor="#666666"
     borderopacity="1"
     objecttolerance="10"
     gridtolerance="10"
     guidetolerance="10"
     inkscape:pageopacity="0"
     inkscape:pageshadow="2"
     inkscape:window-width="1280"
     inkscape:window-height="963"
     id="namedview4"
     showgrid="false"
     inkscape:zoom="0.43988233"
     inkscape:cx="740.13638"
     inkscape:cy="810"
     inkscape:window-x="0"
     inkscape:window-y="0"
     inkscape:window-maximized="1"
     inkscape:current-layer="g10" /><g
     id="g10"
     inkscape:groupmode="layer"
     inkscape:label="Galileo_Pendulum"
     transform="matrix(1.25,0,0,-1.25,0,1620)"><path
       inkscape:connector-curvature="0"
       id="path14"
       style="fill:none;stroke:#ff0000;stroke-width:0.8;stroke-linecap:butt;stroke-linejoin:miter;stroke-miterlimit:2.63446259;stroke-dasharray:none;stroke-opacity:1"
       d="m 449.51675,1064.4694 10.55805,-2.1114 12.67067,-4.2237 0,-8.4469 -12.67067,-4.2236 -10.55805,-2.112 0,-10.5587 10.55805,-4.2231 10.5589,-6.3351 -2.11136,-8.4482 -10.55869,-2.1105 -12.67067,0 -2.11199,-10.5589 10.55889,-6.33557 8.44691,-6.33512 -2.11199,-8.44691 -12.67004,0 -10.55869,0 -4.22377,-8.44691 8.44691,-6.33555 8.44754,-10.55889 -4.22377,-6.33492 -10.5589,0 -12.67068,4.22314 -4.22313,-8.44691 6.33513,-8.4469 6.33491,-10.55869 -4.22314,-6.33513 -10.55868,2.11178 -10.5589,4.22335 -6.33491,-8.44691 6.33491,-8.4469 4.22377,-10.5589 -6.33555,-6.33555 -10.55889,4.22377 -8.44691,6.33492 -8.44691,-6.33492 4.22335,-10.55889 2.11178,-10.55869 -6.33513,-4.22314 -10.55868,6.33492 -8.44691,6.33513 -8.4469,-4.22314 4.22313,-12.67068 0,-10.55889 -6.33491,-4.22377 -10.5589,8.44754 -6.33555,8.4469 -8.4469,-4.22377 0,-10.55868 0,-12.67004 -8.44691,-2.11199 -6.33513,8.4469 -6.33555,10.5589 -10.55889,-2.11199 0,-12.67068 -2.11115,-10.55868 -8.44754,-2.11136 -6.33513,10.5589 -4.22313,10.55805 -10.55869,0 -2.11199,-10.55805 -4.22356,-12.67068 -8.4469,0 -4.22377,12.67068 -2.11136,10.55805 -10.55868,0 -4.22377,-10.55805 -6.33513,-10.5589 -8.44691,2.11136 -2.11178,10.55868 0,12.67068 -10.55889,2.11199 -6.33555,-10.5589 -6.33513,-8.4469 -8.44691,2.11199 0,12.67004 0,10.55868 -8.4469,4.22377 -6.33555,-8.4469 -10.5589,-8.44754 -6.33491,4.22377 0,10.55889 4.22377,12.67068 -8.44754,4.22314 -8.44691,-6.33513 -10.55868,-6.33492 -6.33513,4.22314 2.11199,10.55869 4.22314,10.55889 -8.44691,6.33492 -8.44691,-6.33492 -10.558893,-4.22377 -6.334916,6.33555 4.223136,10.5589 6.33555,8.4469 -6.33555,8.44691 -10.558897,-4.22335 -10.558685,-2.11178 -4.223136,6.33513 6.334915,10.55869 6.335761,8.4469 -4.22377,8.44691 -12.670676,-4.22314 -10.558897,0 -4.223136,6.33492 8.446906,10.55889 8.446906,6.33555 -4.22377,8.44691 -10.558685,0 -12.670042,0 -2.111991,8.44691 8.446906,6.33512 10.558897,6.33557 -2.111991,10.5589 -12.670042,0 -10.558685,2.1105 -2.111991,8.4482 10.558897,6.3351 10.558685,4.2231 0,10.5587 -10.558685,2.112 -12.670676,4.2236 0,8.4469 12.670676,4.2237 10.558685,2.1114 0,10.5587 -10.558685,4.2237 -10.558897,6.3352 2.111991,8.4469 10.558685,2.1118 12.670042,0 2.111991,10.5589 -10.558897,6.3355 -8.446906,6.3351 2.111991,8.4469 12.670042,0 10.558685,0 4.22377,8.4469 -8.446906,6.3356 -8.446906,10.5589 4.223136,6.3349 10.558897,0 12.670676,-4.2238 4.22377,8.4469 -6.335761,8.4476 -6.334915,10.5587 4.223136,6.3351 10.558685,-2.112 10.558897,-4.2231 6.33555,8.4469 -6.33555,8.4469 -4.223136,10.5589 6.334916,6.3349 10.558893,-4.2231 8.44691,-6.3356 8.44691,6.3356 -4.22314,10.5589 -2.11199,10.5586 6.33513,4.2232 10.55868,-6.3349 8.44691,-6.3362 8.44754,4.2242 -4.22377,12.6706 0,10.5589 6.33491,4.2232 10.5589,-8.4469 6.33555,-8.4469 8.4469,4.2231 0,10.5593 0,12.6701 8.44691,2.112 6.33513,-8.447 6.33555,-10.5588 10.55889,2.1119 0,12.6694 2.11178,10.5594 8.44691,2.112 6.33513,-10.5589 4.22377,-10.5587 10.55868,0 2.11136,10.5587 4.22377,12.6706 8.4469,0 4.22356,-12.6706 2.11199,-10.5587 10.55869,0 4.22313,10.5587 6.33513,10.5589 8.44754,-2.112 2.11115,-10.5594 0,-12.6694 10.55889,-2.1119 6.33555,10.5588 6.33513,8.447 8.44691,-2.112 0,-12.6701 0,-10.5593 8.4469,-4.2231 6.33555,8.4469 10.5589,8.4469 6.33491,-4.2232 0,-10.5589 -4.22313,-12.6706 8.4469,-4.2242 8.44691,6.3362 10.55868,6.3349 6.33513,-4.2232 -2.11178,-10.5586 -4.22335,-10.5589 8.44691,-6.3356 8.44691,6.3356 10.55889,4.2231 6.33555,-6.3349 -4.22377,-10.5589 -6.33491,-8.4469 6.33491,-8.4469 10.5589,4.2231 10.55868,2.112 4.22314,-6.3351 -6.33491,-10.5587 -6.33513,-8.4476 4.22313,-8.4469 12.67068,4.2238 10.5589,0 4.22377,-6.3349 -8.44754,-10.5589 -8.44691,-6.3356 4.22377,-8.4469 10.55869,0 12.67004,0 2.11199,-8.4469 -8.44691,-6.3351 -10.55889,-6.3355 2.11199,-10.5589 12.67067,0 10.55869,-2.1118 2.11136,-8.4469 -10.5589,-6.3352 -10.55805,-4.2237 0,-10.5587 z" /><path
       d="m 246.6094,1062.3997 c 4.3741,0 7.92,-3.5459 7.92,-7.92 0,-4.3742 -3.5459,-7.92 -7.92,-7.92 -4.3742,0 -7.92,3.5458 -7.92,7.92 0,4.3741 3.5458,7.92 7.92,7.92 z"
       style="fill:none;stroke:#ff0000;stroke-width:0.8;stroke-linecap:butt;stroke-linejoin:miter;stroke-miterlimit:2.63446259;stroke-dasharray:none;stroke-opacity:1"
       id="path16"
       inkscape:connector-curvature="0" /><path
       d="m 258.7374,1226.8607 c 85.9484,-5.9593 154.5914,-74.7689 160.2893,-160.7879 m -0.019,-23.4683 C 413.1802,956.7456 344.6368,888.0962 258.8219,882.1046 m -24.6374,0.015 c -85.6978,6.0886 -154.1228,74.668 -159.9698,160.4313 m -0.0536,23.0429 c 5.4584,85.9935 73.8168,154.8986 159.5761,161.2136"
       style="fill:none;stroke:#ff0000;stroke-width:0.8;stroke-linecap:butt;stroke-linejoin:miter;stroke-miterlimit:2.63446259;stroke-dasharray:none;stroke-opacity:1"
       id="path18"
       inkscape:connector-curvature="0" /><path
       d="m 419.0023,1042.3375 -137.749,0 m -68.5001,0 -138.7508,0 m 0,23 138.2508,0 m 68.5003,0 138.2488,0"
       style="fill:none;stroke:#ff0000;stroke-width:0.8;stroke-linecap:butt;stroke-linejoin:miter;stroke-miterlimit:2.63446259;stroke-dasharray:none;stroke-opacity:1"
       id="path20"
       inkscape:connector-curvature="0" /><path
       d="m 235.0023,1088.0878 0,138.2499 m 23.4998,0 0,-137.2501 m 0,-67.5 -0.4997,-140.2498 m -23.0001,0 0,138.75"
       style="fill:none;stroke:#ff0000;stroke-width:0.8;stroke-linecap:butt;stroke-linejoin:miter;stroke-miterlimit:2.63446259;stroke-dasharray:none;stroke-opacity:1"
       id="path22"
       inkscape:connector-curvature="0" /><path
       d="m 212.2024,1065.1034 c 3.4192,11.0871 12.0501,19.8884 23.0315,23.5423 m 23.7325,-0.3427 c 10.4933,-3.8345 18.7025,-12.4135 22.0312,-23.1395 m -0.2807,-22.2324 c -3.4803,-10.2827 -11.4806,-18.4817 -21.6354,-22.2322 m -24.3624,-0.2095 c -10.2078,3.5706 -18.3174,11.6099 -21.9835,21.7724"
       style="fill:none;stroke:#ff0000;stroke-width:0.8;stroke-linecap:butt;stroke-linejoin:miter;stroke-miterlimit:2.63446259;stroke-dasharray:none;stroke-opacity:1"
       id="path24"
       inkscape:connector-curvature="0" /><path
       d="m 430.5453,890.5918 c 3.5787,0 6.48,-2.901 6.48,-6.48 0,-3.579 -2.9013,-6.48 -6.48,-6.48 -3.5788,0 -6.48,2.901 -6.48,6.48 0,3.579 2.9012,6.48 6.48,6.48 z"
       style="fill:none;stroke:#ff0000;stroke-width:0.8;stroke-linecap:butt;stroke-linejoin:miter;stroke-miterlimit:2.63446259;stroke-dasharray:none;stroke-opacity:1"
       id="path26"
       inkscape:connector-curvature="0" /><path
       d="m 462.5453,908.3421 c 3.5787,0 6.48,-2.901 6.48,-6.48 0,-3.579 -2.9013,-6.48 -6.48,-6.48 -3.5787,0 -6.48,2.901 -6.48,6.48 0,3.579 2.9013,6.48 6.48,6.48 z"
       style="fill:none;stroke:#ff0000;stroke-width:0.8;stroke-linecap:butt;stroke-linejoin:miter;stroke-miterlimit:2.63446259;stroke-dasharray:none;stroke-opacity:1"
       id="path28"
       inkscape:connector-curvature="0" /><path
       d="m 499.2953,908.0918 c 3.5788,0 6.48,-2.901 6.48,-6.48 0,-3.579 -2.9012,-6.48 -6.48,-6.48 -3.5787,0 -6.48,2.901 -6.48,6.48 0,3.579 2.9013,6.48 6.48,6.48 z"
       style="fill:none;stroke:#ff0000;stroke-width:0.8;stroke-linecap:butt;stroke-linejoin:miter;stroke-miterlimit:2.63446259;stroke-dasharray:none;stroke-opacity:1"
       id="path30"
       inkscape:connector-curvature="0" /><path
       d="m 531.7954,889.592 c 3.5787,0 6.48,-2.9009 6.48,-6.48 0,-3.579 -2.9013,-6.48 -6.48,-6.48 -3.5787,0 -6.48,2.901 -6.48,6.48 0,3.5791 2.9013,6.48 6.48,6.48 z"
       style="fill:none;stroke:#ff0000;stroke-width:0.8;stroke-linecap:butt;stroke-linejoin:miter;stroke-miterlimit:2.63446259;stroke-dasharray:none;stroke-opacity:1"
       id="path32"
       inkscape:connector-curvature="0" /><path
       d="m 550.7955,858.0917 c 3.5787,0 6.48,-2.9009 6.48,-6.48 0,-3.579 -2.9013,-6.48 -6.48,-6.48 -3.5788,0 -6.48,2.901 -6.48,6.48 0,3.5791 2.9012,6.48 6.48,6.48 z"
       style="fill:none;stroke:#ff0000;stroke-width:0.8;stroke-linecap:butt;stroke-linejoin:miter;stroke-miterlimit:2.63446259;stroke-dasharray:none;stroke-opacity:1"
       id="path34"
       inkscape:connector-curvature="0" /><path
       d="m 549.7954,820.3416 c 3.5787,0 6.48,-2.9009 6.48,-6.48 0,-3.579 -2.9013,-6.48 -6.48,-6.48 -3.5787,0 -6.48,2.901 -6.48,6.48 0,3.5791 2.9013,6.48 6.48,6.48 z"
       style="fill:none;stroke:#ff0000;stroke-width:0.8;stroke-linecap:butt;stroke-linejoin:miter;stroke-miterlimit:2.63446259;stroke-dasharray:none;stroke-opacity:1"
       id="path36"
       inkscape:connector-curvature="0" /><path
       d="m 531.5454,787.5916 c 3.5787,0 6.48,-2.901 6.48,-6.48 0,-3.5791 -2.9013,-6.48 -6.48,-6.48 -3.5788,0 -6.48,2.9009 -6.48,6.48 0,3.579 2.9012,6.48 6.48,6.48 z"
       style="fill:none;stroke:#ff0000;stroke-width:0.8;stroke-linecap:butt;stroke-linejoin:miter;stroke-miterlimit:2.63446259;stroke-dasharray:none;stroke-opacity:1"
       id="path38"
       inkscape:connector-curvature="0" /><path
       d="m 499.7954,769.8416 c 3.5787,0 6.48,-2.901 6.48,-6.48 0,-3.579 -2.9013,-6.48 -6.48,-6.48 -3.5788,0 -6.48,2.901 -6.48,6.48 0,3.579 2.9012,6.48 6.48,6.48 z"
       style="fill:none;stroke:#ff0000;stroke-width:0.8;stroke-linecap:butt;stroke-linejoin:miter;stroke-miterlimit:2.63446259;stroke-dasharray:none;stroke-opacity:1"
       id="path40"
       inkscape:connector-curvature="0" /><path
       d="m 411.5455,858.0917 c 3.5787,0 6.48,-2.9009 6.48,-6.48 0,-3.579 -2.9013,-6.48 -6.48,-6.48 -3.5788,0 -6.48,2.901 -6.48,6.48 0,3.5791 2.9012,6.48 6.48,6.48 z"
       style="fill:none;stroke:#ff0000;stroke-width:0.8;stroke-linecap:butt;stroke-linejoin:miter;stroke-miterlimit:2.63446259;stroke-dasharray:none;stroke-opacity:1"
       id="path42"
       inkscape:connector-curvature="0" /><path
       d="m 412.2952,820.3416 c 3.5788,0 6.48,-2.9009 6.48,-6.48 0,-3.579 -2.9012,-6.48 -6.48,-6.48 -3.5787,0 -6.48,2.901 -6.48,6.48 0,3.5791 2.9013,6.48 6.48,6.48 z"
       style="fill:none;stroke:#ff0000;stroke-width:0.8;stroke-linecap:butt;stroke-linejoin:miter;stroke-miterlimit:2.63446259;stroke-dasharray:none;stroke-opacity:1"
       id="path44"
       inkscape:connector-curvature="0" /><path
       d="m 430.5453,788.0916 c 3.5787,0 6.48,-2.901 6.48,-6.48 0,-3.579 -2.9013,-6.48 -6.48,-6.48 -3.5788,0 -6.48,2.901 -6.48,6.48 0,3.579 2.9012,6.48 6.48,6.48 z"
       style="fill:none;stroke:#ff0000;stroke-width:0.8;stroke-linecap:butt;stroke-linejoin:miter;stroke-miterlimit:2.63446259;stroke-dasharray:none;stroke-opacity:1"
       id="path46"
       inkscape:connector-curvature="0" /><path
       d="m 462.2953,769.2015 c 3.7185,0 6.7331,-3.0623 6.7331,-6.84 0,-3.7777 -3.0146,-6.84 -6.7331,-6.84 -3.7185,0 -6.7332,3.0623 -6.7332,6.84 0,3.7777 3.0147,6.84 6.7332,6.84 z"
       style="fill:none;stroke:#ff0000;stroke-width:0.8;stroke-linecap:butt;stroke-linejoin:miter;stroke-miterlimit:2.63446259;stroke-dasharray:none;stroke-opacity:1"
       id="path48"
       inkscape:connector-curvature="0" /><path
       d="m 481.1403,840.2528 c 4.3744,0 7.9208,-3.5465 7.9208,-7.9209 0,-4.3744 -3.5464,-7.9208 -7.9208,-7.9208 -4.3744,0 -7.9209,3.5464 -7.9209,7.9208 0,4.3744 3.5465,7.9209 7.9209,7.9209 z"
       style="fill:none;stroke:#ff0000;stroke-width:0.8;stroke-linecap:butt;stroke-linejoin:miter;stroke-miterlimit:2.63446259;stroke-dasharray:none;stroke-opacity:1"
       id="path50"
       inkscape:connector-curvature="0" /><path
       d="m 481.1403,922.8917 c 49.7055,0 89.9997,-40.3304 89.9997,-90.0816 0,-49.7509 -40.2942,-90.0813 -89.9997,-90.0813 -49.7055,0 -89.9997,40.3304 -89.9997,90.0813 0,49.7512 40.2942,90.0816 89.9997,90.0816 z"
       style="fill:none;stroke:#ff0000;stroke-width:0.8;stroke-linecap:butt;stroke-linejoin:miter;stroke-miterlimit:2.63446259;stroke-dasharray:none;stroke-opacity:1"
       id="path52"
       inkscape:connector-curvature="0" /><path
       d="m 489.7548,890.3667 c 25.2056,-3.7425 45.1389,-23.6488 48.9228,-48.8412 m -0.0147,-17.53 c -3.8395,-25.2734 -23.9366,-45.2066 -49.2897,-48.7993 m -16.793,0.0459 c -25.2159,3.7151 -45.1684,23.6056 -48.9778,48.7911 m -0.1248,16.683 c 3.4835,25.6422 23.6707,45.9757 49.2415,49.68"
       style="fill:none;stroke:#ff0000;stroke-width:0.8;stroke-linecap:butt;stroke-linejoin:miter;stroke-miterlimit:2.63446259;stroke-dasharray:none;stroke-opacity:1"
       id="path54"
       inkscape:connector-curvature="0" /><path
       d="m 490.208,867.6584 c 12.6111,-3.2723 22.5372,-13.2095 25.7928,-25.8276 m 0.0102,-18.0017 c -3.1989,-12.4566 -12.8965,-22.3075 -25.265,-25.7233 m -17.765,-0.3671 c -12.9361,2.9971 -23.2007,12.9685 -26.619,25.7381 m -0.0839,18.3481 c 3.2771,12.7105 13.3226,22.7021 26.0637,25.9024"
       style="fill:none;stroke:#ff0000;stroke-width:0.8;stroke-linecap:butt;stroke-linejoin:miter;stroke-miterlimit:2.63446259;stroke-dasharray:none;stroke-opacity:1"
       id="path56"
       inkscape:connector-curvature="0" /><path
       d="m 538.5875,823.5116 -22.8351,0 m -69.2501,0 -22.8186,0 m -0.0924,18 22.4113,0 m 70.0001,0 22.6749,0.0139"
       style="fill:none;stroke:#ff0000;stroke-width:0.8;stroke-linecap:butt;stroke-linejoin:miter;stroke-miterlimit:2.63446259;stroke-dasharray:none;stroke-opacity:1"
       id="path58"
       inkscape:connector-curvature="0" /><path
       d="m 489.7548,890.3667 0.6179,-22.7851 m 0,-70.0002 -0.9995,-22.3852 m -16.793,0.0459 -0.2075,22.3393 m 0,70.2502 0.3464,22.5646"
       style="fill:none;stroke:#ff0000;stroke-width:0.8;stroke-linecap:butt;stroke-linejoin:miter;stroke-miterlimit:2.63446259;stroke-dasharray:none;stroke-opacity:1"
       id="path60"
       inkscape:connector-curvature="0" /><path
       d="m 433.2107,1256.5278 c 0,9.9411 8.0589,18 18,18 9.9411,0 18,-8.0589 18,-18 0,-9.9411 -8.0589,-18 -18,-18 -9.9411,0 -18,8.0589 -18,18 z"
       style="fill:none;stroke:#ff0000;stroke-width:0.8;stroke-linecap:butt;stroke-linejoin:miter;stroke-miterlimit:2.63446259;stroke-dasharray:none;stroke-opacity:1"
       id="path62"
       inkscape:connector-curvature="0" /><path
       d="m 443.2907,1256.5278 c 0,4.3742 3.5458,7.92 7.92,7.92 4.3741,0 7.92,-3.5458 7.92,-7.92 0,-4.3741 -3.5459,-7.92 -7.92,-7.92 -4.3742,0 -7.92,3.5459 -7.92,7.92 z"
       style="fill:none;stroke:#ff0000;stroke-width:0.8;stroke-linecap:butt;stroke-linejoin:miter;stroke-miterlimit:2.63446259;stroke-dasharray:none;stroke-opacity:1"
       id="path64"
       inkscape:connector-curvature="0" /><path
       d="m 475.2108,1256.5278 c 0,9.9411 8.0589,18 18,18 9.9411,0 18,-8.0589 18,-18 0,-9.9411 -8.0589,-18 -18,-18 -9.9411,0 -18,8.0589 -18,18 z"
       style="fill:none;stroke:#ff0000;stroke-width:0.8;stroke-linecap:butt;stroke-linejoin:miter;stroke-miterlimit:2.63446259;stroke-dasharray:none;stroke-opacity:1"
       id="path66"
       inkscape:connector-curvature="0" /><path
       d="m 485.2908,1256.5278 c 0,4.3742 3.5458,7.92 7.92,7.92 4.3741,0 7.92,-3.5458 7.92,-7.92 0,-4.3741 -3.5459,-7.92 -7.92,-7.92 -4.3742,0 -7.92,3.5459 -7.92,7.92 z"
       style="fill:none;stroke:#ff0000;stroke-width:0.8;stroke-linecap:butt;stroke-linejoin:miter;stroke-miterlimit:2.63446259;stroke-dasharray:none;stroke-opacity:1"
       id="path68"
       inkscape:connector-curvature="0" /><path
       d="m 383.2106,1254.5277 c 0,9.9411 8.0589,18 18,18 9.9411,0 18,-8.0589 18,-18 0,-9.9411 -8.0589,-18 -18,-18 -9.9411,0 -18,8.0589 -18,18 z"
       style="fill:none;stroke:#ff0000;stroke-width:0.8;stroke-linecap:butt;stroke-linejoin:miter;stroke-miterlimit:2.63446259;stroke-dasharray:none;stroke-opacity:1"
       id="path70"
       inkscape:connector-curvature="0" /><path
       d="m 393.2906,1254.5277 c 0,4.3742 3.5459,7.92 7.92,7.92 4.3742,0 7.92,-3.5458 7.92,-7.92 0,-4.3741 -3.5458,-7.92 -7.92,-7.92 -4.3741,0 -7.92,3.5459 -7.92,7.92 z"
       style="fill:none;stroke:#ff0000;stroke-width:0.8;stroke-linecap:butt;stroke-linejoin:miter;stroke-miterlimit:2.63446259;stroke-dasharray:none;stroke-opacity:1"
       id="path72"
       inkscape:connector-curvature="0" /><path
       d="m 467.2108,1210.5281 c 0,9.9411 8.0589,18 18,18 9.9411,0 18,-8.0589 18,-18 0,-9.9411 -8.0589,-18 -18,-18 -9.9411,0 -18,8.0589 -18,18 z"
       style="fill:none;stroke:#ff0000;stroke-width:0.8;stroke-linecap:butt;stroke-linejoin:miter;stroke-miterlimit:2.63446259;stroke-dasharray:none;stroke-opacity:1"
       id="path74"
       inkscape:connector-curvature="0" /><path
       d="m 477.2908,1210.5281 c 0,4.3741 3.5459,7.92 7.92,7.92 4.3742,0 7.92,-3.5459 7.92,-7.92 0,-4.3742 -3.5458,-7.92 -7.92,-7.92 -4.3741,0 -7.92,3.5458 -7.92,7.92 z"
       style="fill:none;stroke:#ff0000;stroke-width:0.8;stroke-linecap:butt;stroke-linejoin:miter;stroke-miterlimit:2.63446259;stroke-dasharray:none;stroke-opacity:1"
       id="path76"
       inkscape:connector-curvature="0" /><path
       d="m 511.2108,1212.5282 c 0,9.9411 8.0589,18 18,18 9.9411,0 18,-8.0589 18,-18 0,-9.9411 -8.0589,-18 -18,-18 -9.9411,0 -18,8.0589 -18,18 z"
       style="fill:none;stroke:#ff0000;stroke-width:0.8;stroke-linecap:butt;stroke-linejoin:miter;stroke-miterlimit:2.63446259;stroke-dasharray:none;stroke-opacity:1"
       id="path78"
       inkscape:connector-curvature="0" /><path
       d="m 521.2908,1212.5282 c 0,4.3741 3.5458,7.92 7.92,7.92 4.3741,0 7.92,-3.5459 7.92,-7.92 0,-4.3742 -3.5459,-7.92 -7.92,-7.92 -4.3742,0 -7.92,3.5458 -7.92,7.92 z"
       style="fill:none;stroke:#ff0000;stroke-width:0.8;stroke-linecap:butt;stroke-linejoin:miter;stroke-miterlimit:2.63446259;stroke-dasharray:none;stroke-opacity:1"
       id="path80"
       inkscape:connector-curvature="0" /><path
       d="m 419.2106,1212.5282 c 0,9.9411 8.0589,18 18,18 9.9411,0 18,-8.0589 18,-18 0,-9.9411 -8.0589,-18 -18,-18 -9.9411,0 -18,8.0589 -18,18 z"
       style="fill:none;stroke:#ff0000;stroke-width:0.8;stroke-linecap:butt;stroke-linejoin:miter;stroke-miterlimit:2.63446259;stroke-dasharray:none;stroke-opacity:1"
       id="path82"
       inkscape:connector-curvature="0" /><path
       d="m 429.2906,1212.5282 c 0,4.3741 3.5459,7.92 7.92,7.92 4.3742,0 7.92,-3.5459 7.92,-7.92 0,-4.3742 -3.5458,-7.92 -7.92,-7.92 -4.3741,0 -7.92,3.5458 -7.92,7.92 z"
       style="fill:none;stroke:#ff0000;stroke-width:0.8;stroke-linecap:butt;stroke-linejoin:miter;stroke-miterlimit:2.63446259;stroke-dasharray:none;stroke-opacity:1"
       id="path84"
       inkscape:connector-curvature="0" /><path
       d="m 517.2109,1254.528 c 0,9.9411 8.0589,18 18,18 9.9411,0 18,-8.0589 18,-18 0,-9.9411 -8.0589,-18 -18,-18 -9.9411,0 -18,8.0589 -18,18 z"
       style="fill:none;stroke:#ff0000;stroke-width:0.8;stroke-linecap:butt;stroke-linejoin:miter;stroke-miterlimit:2.63446259;stroke-dasharray:none;stroke-opacity:1"
       id="path86"
       inkscape:connector-curvature="0" /><path
       d="m 527.2909,1254.528 c 0,4.3741 3.5458,7.92 7.92,7.92 4.3741,0 7.92,-3.5459 7.92,-7.92 0,-4.3741 -3.5459,-7.92 -7.92,-7.92 -4.3742,0 -7.92,3.5459 -7.92,7.92 z"
       style="fill:none;stroke:#ff0000;stroke-width:0.8;stroke-linecap:butt;stroke-linejoin:miter;stroke-miterlimit:2.63446259;stroke-dasharray:none;stroke-opacity:1"
       id="path88"
       inkscape:connector-curvature="0" /><path
       d="m 569.1305,1227.1683 c 0,9.9411 8.0589,18 18,18 9.9411,0 18,-8.0589 18,-18 0,-9.9411 -8.0589,-18 -18,-18 -9.9411,0 -18,8.0589 -18,18 z"
       style="fill:none;stroke:#ff0000;stroke-width:0.8;stroke-linecap:butt;stroke-linejoin:miter;stroke-miterlimit:2.63446259;stroke-dasharray:none;stroke-opacity:1"
       id="path90"
       inkscape:connector-curvature="0" /><path
       d="m 579.2105,1227.1683 c 0,4.3741 3.5459,7.92 7.92,7.92 4.3742,0 7.92,-3.5459 7.92,-7.92 0,-4.3742 -3.5458,-7.92 -7.92,-7.92 -4.3741,0 -7.92,3.5458 -7.92,7.92 z"
       style="fill:none;stroke:#ff0000;stroke-width:0.8;stroke-linecap:butt;stroke-linejoin:miter;stroke-miterlimit:2.63446259;stroke-dasharray:none;stroke-opacity:1"
       id="path92"
       inkscape:connector-curvature="0" /><path
       d="m 478.4151,1170.2568 25.9999,0 0,-57.6 -25.9999,0 0,57.6 z"
       style="fill:none;stroke:#ff0000;stroke-width:0.8;stroke-linecap:butt;stroke-linejoin:miter;stroke-miterlimit:2.63446259;stroke-dasharray:none;stroke-opacity:1"
       id="path94"
       inkscape:connector-curvature="0" /><path
       inkscape:connector-curvature="0"
       id="path98"
       style="fill:none;stroke:#ff0000;stroke-width:0.8;stroke-linecap:butt;stroke-linejoin:miter;stroke-miterlimit:2.63446259;stroke-dasharray:none;stroke-opacity:1"
       d="m 279.39124,719.09975 4.31136,0 6.46509,-2.15568 12.93128,-4.31071 0,-6.46445 -12.93128,-4.31071 -6.46509,-2.15568 -4.31136,0 0,-12.93128 2.15568,0 6.46639,-2.15503 10.77516,-8.62078 -2.15438,-6.46617 -12.93149,-2.1546 -8.62078,0 -2.15611,2.1546 -4.31007,-12.93149 2.15504,0 6.46553,-6.4651 8.62077,-8.62078 -4.31006,-6.46617 -12.93128,2.15568 -6.4651,2.15438 -2.15632,2.15611 -8.62056,-10.77688 2.15482,-2.15439 4.31071,-6.46639 6.46574,-10.7756 -6.46574,-6.46639 -10.77624,6.46639 -6.46575,4.31072 -2.15503,2.15438 -10.77624,-8.62077 2.15546,-2.15504 2.15503,-6.46639 2.15504,-12.93127 -6.46553,-4.31007 -8.62078,8.62078 -6.46574,6.46617 0,2.15439 -12.93128,-4.31006 2.15503,-4.3105 0,-6.4651 -2.15503,-12.93149 -6.46574,-2.15568 -8.62078,10.77581 -2.15503,6.46575 0,2.15632 -12.93128,0 0,-4.31071 -2.15568,-6.46639 -4.31071,-12.93127 -6.4651,0 -4.31006,12.93127 -2.15568,6.46639 0,4.31071 -12.93127,0 0,-2.15632 -2.15504,-6.46575 -8.62077,-10.77581 -6.46618,2.15568 -2.15439,12.93149 0,6.4651 2.15439,4.3105 -12.93149,4.31006 0,-2.15439 -6.4651,-6.46617 -8.62056,-8.62078 -6.46639,4.31007 2.155678,12.93127 2.154388,6.46639 2.156324,2.15504 -10.777102,8.62077 -2.154387,-2.15438 -6.466175,-4.31072 -10.775811,-6.46639 -6.46639,6.46639 6.46639,10.7756 4.310712,6.46639 2.154387,2.15439 -8.620777,10.77688 -2.155033,-2.15611 -6.466175,-2.15438 -12.931489,-2.15568 -4.310066,6.46617 8.620777,8.62078 6.466175,6.4651 2.154603,0 -4.310066,12.93149 -4.310712,-2.1546 -6.465099,0 -12.931489,2.1546 -2.155463,6.46617 10.775595,8.62078 6.465745,2.15503 2.156324,0 0,12.93128 -4.310712,0 -6.46639,2.15568 -12.931274,4.31071 0,6.46445 12.931274,4.31071 6.46639,2.15568 4.310712,0 0,12.93128 -2.156324,0 -6.465745,2.15503 -10.775595,8.62078 2.155463,6.46617 12.931489,2.15439 6.465099,0 4.310712,-2.15439 4.310066,12.93149 -2.154603,0 -6.466175,6.4651 -8.620777,8.62056 4.310066,6.46639 12.931489,-2.15568 6.466175,-2.15503 2.155033,-2.15568 8.620777,10.7771 -2.154387,2.15439 -4.310712,6.46618 -6.46639,10.77581 6.46639,6.46574 10.775811,-6.46574 6.466175,-4.31072 2.154387,-2.15503 10.777102,8.62142 -2.156324,2.15568 -2.154388,6.4651 -2.155678,12.93128 6.46639,4.31006 8.62056,-8.62078 6.4651,-6.46553 0,-2.15503 12.93149,4.3105 -2.15439,2.15568 0,8.62077 2.15439,12.93128 6.46618,2.15439 8.62077,-10.77495 2.15504,-6.46639 0,-2.15568 12.93127,0 0,4.31135 2.15568,6.4651 4.31006,12.93128 6.4651,0 4.31071,-12.93128 2.15568,-6.4651 0,-4.31135 12.93128,0 0,2.15568 2.15503,6.46639 8.62078,10.77495 6.46574,-2.15439 2.15503,-12.93128 0,-8.62077 -2.15503,-2.15568 12.93128,-4.3105 0,2.15503 6.46574,6.46553 8.62078,8.62078 6.46553,-4.31006 -2.15504,-12.93128 -2.15503,-6.4651 -2.15546,-2.15568 10.77624,-8.62142 2.15503,2.15503 6.46575,4.31072 10.77624,6.46574 6.46574,-6.46574 -6.46574,-10.77581 -4.31071,-6.46618 -2.15482,-2.15439 8.62056,-10.7771 2.15632,2.15568 6.4651,2.15503 12.93128,2.15568 4.31006,-6.46639 -8.62077,-8.62056 -6.46553,-6.4651 -2.15504,0 4.31007,-12.93149 2.15611,2.15439 8.62078,0 12.93149,-2.15439 2.15438,-6.46617 -10.77516,-8.62078 -6.46639,-2.15503 -2.15568,0 0,-12.93128 z" /><path
       d="m 158.8269,717.8301 c -4.3741,0 -7.92,-3.5459 -7.92,-7.92 0,-4.3742 3.5459,-7.92 7.92,-7.92 4.3741,0 7.92,3.5458 7.92,7.92 0,4.3741 -3.5459,7.92 -7.92,7.92 z"
       style="fill:none;stroke:#ff0000;stroke-width:0.8;stroke-linecap:butt;stroke-linejoin:miter;stroke-miterlimit:2.63446259;stroke-dasharray:none;stroke-opacity:1"
       id="path100"
       inkscape:connector-curvature="0" /><path
       d="m 168.3145,609.5506 c 47.7722,4.4594 85.8628,42.2577 90.7758,89.8965 m 0.0425,20.5058 c -4.7137,47.6561 -42.6189,85.5573 -90.2772,90.2645 m -20.0095,0.005 C 100.9837,805.5181 62.9481,767.3371 58.4685,719.4095 M 58.4663,700.436 c 4.4827,-48.0877 42.7456,-86.3693 90.8254,-90.8807"
       style="fill:none;stroke:#ff0000;stroke-width:0.8;stroke-linecap:butt;stroke-linejoin:miter;stroke-miterlimit:2.63446259;stroke-dasharray:none;stroke-opacity:1"
       id="path102"
       inkscape:connector-curvature="0" /><path
       d="m 193.8152,718.4203 c -3.0776,12.6972 -12.8871,22.7647 -25.4367,26.2091 m -18.6429,0.123 c -12.5742,-3.2717 -22.4745,-13.1706 -25.7488,-25.7431 m 0.0851,-18.5196 c 3.4625,-12.8052 13.8135,-22.7809 26.8313,-25.7048 m 17.9467,0.5388 c 12.1765,3.5223 21.6972,13.3013 24.8536,25.6286"
       style="fill:none;stroke:#ff0000;stroke-width:0.8;stroke-linecap:butt;stroke-linejoin:miter;stroke-miterlimit:2.63446259;stroke-dasharray:none;stroke-opacity:1"
       id="path104"
       inkscape:connector-curvature="0" /><path
       d="m 258.8278,700.42 -65.0015,0 m -69.4999,0 -65.4987,0 m 0,18.5 64.4987,0 m 70.4999,0 65.0015,0"
       style="fill:none;stroke:#ff0000;stroke-width:0.8;stroke-linecap:butt;stroke-linejoin:miter;stroke-miterlimit:2.63446259;stroke-dasharray:none;stroke-opacity:1"
       id="path106"
       inkscape:connector-curvature="0" /><path
       d="m 168.0778,809.67 -3e-4,-65.2473 m 0,-69.5004 3e-4,-65.2524 m -18.5001,0 0,65.2527 m 0,70.0002 0,64.7472"
       style="fill:none;stroke:#ff0000;stroke-width:0.8;stroke-linecap:butt;stroke-linejoin:miter;stroke-miterlimit:2.63446259;stroke-dasharray:none;stroke-opacity:1"
       id="path108"
       inkscape:connector-curvature="0" /><path
       d="m 1569.0163,958.7758 c -0.4022,21.5127 -0.078,38.4273 -0.4801,59.94 18.841,-0.5831 66.4772,5.5965 80.3182,54.2633 -46.1962,-38.9293 -66.8568,14.8873 -65.4619,31.7081 3.5833,31 18.563,41.7538 41.8964,41.7538 33.1225,-0.6602 56.6668,-10.0001 64,-54 0,-18.5001 -2e-4,-37.0001 -2e-4,-55.5001 -14.7561,-44.7194 -48.1116,-73.2969 -64.4998,-69.8749 l 0.1278,-8.2902"
       style="fill:none;stroke:#ff0000;stroke-width:0.8;stroke-linecap:butt;stroke-linejoin:miter;stroke-miterlimit:2.63446259;stroke-dasharray:none;stroke-opacity:1"
       id="path110"
       inkscape:connector-curvature="0" /><path
       d="m 1625.2129,958.8886 0,-108 m -55.9239,0 -811.0715,0 0,17.5791 -14.4615,-0.006 -0.25,14.7008 14.7115,0.2701 0,43.28 -14.4615,-0.3983 0.4998,14.9502 14.2118,-0.364 -0.2501,17.9881 m 786.3143,0 24.5075,0"
       style="fill:none;stroke:#ff0000;stroke-width:0.8;stroke-linecap:butt;stroke-linejoin:miter;stroke-miterlimit:2.63446259;stroke-dasharray:none;stroke-opacity:1"
       id="path112"
       inkscape:connector-curvature="0" /><path
       d="m 1569.0163,850.8413 c -0.4022,-21.5127 -0.078,-38.4273 -0.4801,-59.94 18.841,0.5831 66.4772,-5.5964 80.3182,-54.2633 -46.1962,38.9293 -66.8568,-14.8873 -65.4619,-31.7081 3.5833,-31 18.563,-41.7538 41.8964,-41.7538 33.1225,0.6602 56.6668,10.0001 64,54 0,18.5001 -2e-4,37.0001 -2e-4,55.5001 -14.7561,44.7194 -48.1116,73.2969 -64.4998,69.8749 l 0.1278,8.2902"
       style="fill:none;stroke:#ff0000;stroke-width:0.8;stroke-linecap:butt;stroke-linejoin:miter;stroke-miterlimit:2.63446259;stroke-dasharray:none;stroke-opacity:1"
       id="path114"
       inkscape:connector-curvature="0" /><path
       d="m 1576.5372,879.0304 0,54 14.4,0 0,-54 -14.4,0 z"
       style="fill:none;stroke:#ff0000;stroke-width:0.8;stroke-linecap:butt;stroke-linejoin:miter;stroke-miterlimit:2.63446259;stroke-dasharray:none;stroke-opacity:1"
       id="path116"
       inkscape:connector-curvature="0" /><path
       d="m 888.4225,904.5797 c 0,7.3564 5.9635,13.32 13.32,13.32 7.3564,0 13.32,-5.9636 13.32,-13.32 0,-7.3565 -5.9636,-13.32 -13.32,-13.32 -7.3565,0 -13.32,5.9635 -13.32,13.32 z"
       style="fill:none;stroke:#ff0000;stroke-width:0.8;stroke-linecap:butt;stroke-linejoin:miter;stroke-miterlimit:2.63446259;stroke-dasharray:none;stroke-opacity:1"
       id="path118"
       inkscape:connector-curvature="0" /><path
       d="m 1055.2226,904.1397 c 0,7.3565 5.9636,13.32 13.32,13.32 7.3565,0 13.32,-5.9635 13.32,-13.32 0,-7.3565 -5.9635,-13.32 -13.32,-13.32 -7.3564,0 -13.32,5.9635 -13.32,13.32 z"
       style="fill:none;stroke:#ff0000;stroke-width:0.8;stroke-linecap:butt;stroke-linejoin:miter;stroke-miterlimit:2.63446259;stroke-dasharray:none;stroke-opacity:1"
       id="path120"
       inkscape:connector-curvature="0" /><path
       d="m 1308.8764,905.0369 c 0,-7.3565 5.9635,-13.32 13.32,-13.32 7.3565,0 13.32,5.9635 13.32,13.32 0,7.3565 -5.9635,13.32 -13.32,13.32 -7.3565,0 -13.32,-5.9635 -13.32,-13.32 z"
       style="fill:none;stroke:#ff0000;stroke-width:0.8;stroke-linecap:butt;stroke-linejoin:miter;stroke-miterlimit:2.63446259;stroke-dasharray:none;stroke-opacity:1"
       id="path122"
       inkscape:connector-curvature="0" /><path
       d="m 733.7786,959.0811 c 0.4023,-21.5127 0.078,-38.4273 0.4802,-59.94 -18.841,0.5831 -66.4772,-5.5964 -80.3182,-54.2633 46.1962,38.9293 66.8568,-14.8873 65.4619,-31.7081 -3.5833,-31 -18.563,-41.7538 -41.8964,-41.7538 -33.1225,0.6602 -56.6668,10.0001 -64.0001,54 0,18.5001 3e-4,37.0001 3e-4,55.5001 14.7561,44.7194 48.1116,73.2969 64.4998,69.8749 l -0.1278,8.2902"
       style="fill:none;stroke:#ff0000;stroke-width:0.8;stroke-linecap:butt;stroke-linejoin:miter;stroke-miterlimit:2.63446259;stroke-dasharray:none;stroke-opacity:1"
       id="path124"
       inkscape:connector-curvature="0" /><path
       d="m 677.5821,958.9683 0,108 m 55.9239,0 811.0714,0 0,-17.5791 14.4616,0.01 0.25,-14.7008 -14.7116,-0.2701 0,-43.28 14.4616,0.3983 -0.4998,-14.9502 -14.2118,0.364 0.25,-17.9881 -810.8217,0"
       style="fill:none;stroke:#ff0000;stroke-width:0.8;stroke-linecap:butt;stroke-linejoin:miter;stroke-miterlimit:2.63446259;stroke-dasharray:none;stroke-opacity:1"
       id="path126"
       inkscape:connector-curvature="0" /><path
       d="m 733.7786,1067.0156 c 0.4023,21.5127 0.078,38.4273 0.4802,59.94 -18.841,-0.5831 -66.4772,5.5965 -80.3182,54.2634 46.1962,-38.9294 66.8568,14.8872 65.4619,31.708 -3.5833,31 -18.563,41.7538 -41.8964,41.7538 -33.1225,-0.6602 -56.6668,-10.0001 -64.0001,-54 0,-18.5 3e-4,-37.0001 3e-4,-55.5001 14.7561,-44.7194 48.1116,-73.2969 64.4998,-69.8749 l -0.1278,-8.2902"
       style="fill:none;stroke:#ff0000;stroke-width:0.8;stroke-linecap:butt;stroke-linejoin:miter;stroke-miterlimit:2.63446259;stroke-dasharray:none;stroke-opacity:1"
       id="path128"
       inkscape:connector-curvature="0" /><path
       d="m 726.2578,1038.8265 0,-54 -14.4,0 0,54 14.4,0 z"
       style="fill:none;stroke:#ff0000;stroke-width:0.8;stroke-linecap:butt;stroke-linejoin:miter;stroke-miterlimit:2.63446259;stroke-dasharray:none;stroke-opacity:1"
       id="path130"
       inkscape:connector-curvature="0" /><path
       d="m 1414.3725,1013.2773 c 0,-7.3565 -5.9635,-13.32 -13.32,-13.32 -7.3564,0 -13.32,5.9635 -13.32,13.32 0,7.3564 5.9636,13.32 13.32,13.32 7.3565,0 13.32,-5.9636 13.32,-13.32 z"
       style="fill:none;stroke:#ff0000;stroke-width:0.8;stroke-linecap:butt;stroke-linejoin:miter;stroke-miterlimit:2.63446259;stroke-dasharray:none;stroke-opacity:1"
       id="path132"
       inkscape:connector-curvature="0" /><path
       d="m 1247.5723,1013.7172 c 0,-7.3565 -5.9635,-13.32 -13.32,-13.32 -7.3564,0 -13.32,5.9635 -13.32,13.32 0,7.3565 5.9636,13.32 13.32,13.32 7.3565,0 13.32,-5.9635 13.32,-13.32 z"
       style="fill:none;stroke:#ff0000;stroke-width:0.8;stroke-linecap:butt;stroke-linejoin:miter;stroke-miterlimit:2.63446259;stroke-dasharray:none;stroke-opacity:1"
       id="path134"
       inkscape:connector-curvature="0" /><path
       d="m 993.9186,1012.82 c 0,7.3565 -5.9635,13.32 -13.32,13.32 -7.3565,0 -13.32,-5.9635 -13.32,-13.32 0,-7.3564 5.9635,-13.32 13.32,-13.32 7.3565,0 13.32,5.9636 13.32,13.32 z"
       style="fill:none;stroke:#ff0000;stroke-width:0.8;stroke-linecap:butt;stroke-linejoin:miter;stroke-miterlimit:2.63446259;stroke-dasharray:none;stroke-opacity:1"
       id="path136"
       inkscape:connector-curvature="0" /><path
       d="m 488.4681,1094.8482 42.2867,0 0,-103.415 -42.2867,0 0,103.415 z"
       style="fill:none;stroke:#ff0000;stroke-width:0.8;stroke-linecap:butt;stroke-linejoin:miter;stroke-miterlimit:2.63446259;stroke-dasharray:none;stroke-opacity:1"
       id="path138"
       inkscape:connector-curvature="0" /><path
       d="m 488.4681,991.4332 42.2867,103.415"
       style="fill:none;stroke:#ff0000;stroke-width:0.8;stroke-linecap:butt;stroke-linejoin:miter;stroke-miterlimit:2.63446259;stroke-dasharray:none;stroke-opacity:1"
       id="path140"
       inkscape:connector-curvature="0" /><path
       d="m 334.0684,721.4905 c -2.3474,-7.2114 -9.125,-12.4234 -17.1196,-12.4234 -9.9411,0 -18,8.0589 -18,18 0,9.9411 8.0589,18 18,18 7.6153,0 14.1262,-4.7297 16.7559,-11.4112"
       style="fill:none;stroke:#ff0000;stroke-width:0.8;stroke-linecap:butt;stroke-linejoin:miter;stroke-miterlimit:2.63446259;stroke-dasharray:none;stroke-opacity:1"
       id="path142"
       inkscape:connector-curvature="0" /><path
       d="m 309.0288,727.0671 c 0,4.3741 3.5459,7.92 7.92,7.92 4.3742,0 7.92,-3.5459 7.92,-7.92 0,-4.3742 -3.5458,-7.92 -7.92,-7.92 -4.3741,0 -7.92,3.5458 -7.92,7.92 z"
       style="fill:none;stroke:#ff0000;stroke-width:0.8;stroke-linecap:butt;stroke-linejoin:miter;stroke-miterlimit:2.63446259;stroke-dasharray:none;stroke-opacity:1"
       id="path144"
       inkscape:connector-curvature="0" /><path
       d="m 334.0185,733.6318 338.5083,-0.4861 m 12.4999,-0.0182 345.0135,-0.4958 0,23.2504 -21.052,0.525 0.1091,10.4085 33.5185,-0.1066 -0.077,-34.0773 0,-11.9999 m 0,0 -0.045,-35.9671 -32.7541,0.0647 0.043,10.8776 20.3833,0.0247 0,25.0001 m 0,0 -345.1385,0.4961 m -12.7499,0.0184 -338.2583,0.4856"
       style="fill:none;stroke:#ff0000;stroke-width:0.8;stroke-linecap:butt;stroke-linejoin:miter;stroke-miterlimit:2.63446259;stroke-dasharray:none;stroke-opacity:1"
       id="path146"
       inkscape:connector-curvature="0" /><path
       d="m 672.2002,732.6317 0,23.2504 -21.052,0.525 0.1091,10.4085 33.5185,-0.1066 -0.0773,-34.0773 m 0,-11.9999 -0.0451,-35.9671 -32.7541,0.0647 0.0426,10.8776 20.3833,0.0247 0,25.0001"
       style="fill:none;stroke:#ff0000;stroke-width:0.8;stroke-linecap:butt;stroke-linejoin:miter;stroke-miterlimit:2.63446259;stroke-dasharray:none;stroke-opacity:1"
       id="path148"
       inkscape:connector-curvature="0" /><path
       d="m 163.1906,1139.0604 c -4.3742,0 -7.92,-3.5458 -7.92,-7.92 0,-4.3741 3.5458,-7.92 7.92,-7.92 4.3741,0 7.92,3.5459 7.92,7.92 0,4.3742 -3.5459,7.92 -7.92,7.92 z"
       style="fill:none;stroke:#ff0000;stroke-width:0.8;stroke-linecap:butt;stroke-linejoin:miter;stroke-miterlimit:2.63446259;stroke-dasharray:none;stroke-opacity:1"
       id="path150"
       inkscape:connector-curvature="0" /><path
       inkscape:connector-curvature="0"
       id="path154"
       style="fill:none;stroke:#ff0000;stroke-width:0.8;stroke-linecap:butt;stroke-linejoin:miter;stroke-miterlimit:2.63446259;stroke-dasharray:none;stroke-opacity:1"
       d="m 178.37131,1145.6123 6.07905,6.3199 1.80209,1.1295 c 3.08272,0.7124 5.6027,1.7373 9.06051,1.262 1.60922,-0.1203 2.65733,-1.3666 3.89196,-2.4873 0.42805,-1.7824 0.10629,-3.1897 -0.1528,-5.66 l -4.89321,-5.729 -1.80209,-1.1295 -8.98061,-3.1115 -0.13323,-9.9861 10.23458,-2.8698 2.84025,-2.3048 c 0.61941,-0.9477 1.23723,-1.8969 1.8558,-2.8449 0.50229,-2.5935 0.56692,-4.5614 -0.55566,-7.4044 -1.55291,-1.3966 -2.82434,-2.9432 -6.61176,-3.1367 l -4.32631,1.1833 -3.50615,1.5892 -4.85208,6.1269 -9.01815,-5.6799 2.40859,-8.7406 -0.006,-2.1277 -2.61908,-6.6503 c -0.6995,-0.8784 -1.67006,-2.3149 -5.3286,-3.5408 -2.09445,0.203 -3.37672,1.2181 -4.78375,3.4204 l -2.15519,6.8149 0.006,2.1269 2.15107,8.501 -10.29318,5.9782 -4.97214,-5.34 c -0.69769,-0.3552 -1.39553,-0.7098 -2.09321,-1.065 l -9.19264,-1.1396 c -1.27314,0.2885 -3.07746,0.7339 -3.88228,2.366 -0.40734,1.4427 -0.65872,2.9477 -0.41008,4.7339 1.74617,3.0421 3.4608,4.6168 5.92603,6.9713 l 1.24537,0.7496 8.39072,1.4332 -0.50958,11.0149 -7.5211,2.0136 -1.74857,1.1001 c -2.02289,2.414 -3.67066,4.3292 -5.19366,7.3682 -1.04047,2.2079 -0.83227,3.1025 -0.30994,5.122 0.93178,1.5186 1.73921,2.0364 3.54662,2.3043 l 7.8023,-0.3373 2.48182,-1.6503 7.16532,-6.5987 9.33565,5.5575 -1.74975,8.3392 0.006,2.1269 c 0.84967,4.3598 0.0562,2.5123 1.69345,7.1447 1.3354,0.961 2.31534,2.5227 5.03701,2.7286 2.00004,-0.1728 3.84462,-1.5521 5.06373,-2.8977 l 1.97823,-5.8213 0.36025,-3.1296 -2.3339,-9.1196 9.57272,-5.0238 z" /><path
       d="m 1253.6493,1220.2475 0,-29.8556 -4.2234,-3e-4 -0.049,-14.5199 -14.6449,0.25 0.3192,14.3949 -17.875,3e-4 -0.1279,-14.7563 -134.903,-0.3314 m -70.0353,-0.1721 -0.027,14.3881 -14.974,0.345 6e-4,-14.7696 m -219.0745,-0.5406 0.2744,14.5953 -14.972,-0.1278 0.1978,-14.4621 m -10.7311,-0.064 0,51.501"
       style="fill:none;stroke:#ff0000;stroke-width:0.8;stroke-linecap:butt;stroke-linejoin:miter;stroke-miterlimit:2.63446259;stroke-dasharray:none;stroke-opacity:1"
       id="path156"
       inkscape:connector-curvature="0" /><path
       d="m 1253.6493,1220.8215 0,48.0305 -4.2234,3e-4 -0.049,14.5199 -14.6449,-0.25 0.3192,-14.3949 -17.875,-3e-4 -0.1279,14.7563 -204.9383,0.5035 -0.027,-14.3881 -14.974,-0.345 6e-4,14.7696 -219.3579,0.5406 -0.009,-14.5953 -16.7049,0.1278 -0.0677,14.4939 -8.1658,0.032 0,-59.3008"
       style="fill:none;stroke:#ff0000;stroke-width:0.8;stroke-linecap:butt;stroke-linejoin:miter;stroke-miterlimit:2.63446259;stroke-dasharray:none;stroke-opacity:1"
       id="path158"
       inkscape:connector-curvature="0" /><path
       d="m 750.1105,1067.1341 0,108 331.2,0 0,-108 -331.2,0 z"
       style="fill:none;stroke:#ff0000;stroke-width:0.8;stroke-linecap:butt;stroke-linejoin:miter;stroke-miterlimit:2.63446259;stroke-dasharray:none;stroke-opacity:1"
       id="path160"
       inkscape:connector-curvature="0" /><path
       d="m 756.849,1085.5936 0,14.4 14.4,0 0,-14.4 -14.4,0 z"
       style="fill:none;stroke:#ff0000;stroke-width:0.8;stroke-linecap:butt;stroke-linejoin:miter;stroke-miterlimit:2.63446259;stroke-dasharray:none;stroke-opacity:1"
       id="path162"
       inkscape:connector-curvature="0" /><path
       d="m 757.349,1143.2937 0,14.4 14.4,0 0,-14.4 -14.4,0 z"
       style="fill:none;stroke:#ff0000;stroke-width:0.8;stroke-linecap:butt;stroke-linejoin:miter;stroke-miterlimit:2.63446259;stroke-dasharray:none;stroke-opacity:1"
       id="path164"
       inkscape:connector-curvature="0" /><path
       d="m 1059.969,1085.5936 0,14.4 14.4,0 0,-14.4 -14.4,0 z"
       style="fill:none;stroke:#ff0000;stroke-width:0.8;stroke-linecap:butt;stroke-linejoin:miter;stroke-miterlimit:2.63446259;stroke-dasharray:none;stroke-opacity:1"
       id="path166"
       inkscape:connector-curvature="0" /><path
       d="m 1060.469,1143.2937 0,14.4 14.4,0 0,-14.4 -14.4,0 z"
       style="fill:none;stroke:#ff0000;stroke-width:0.8;stroke-linecap:butt;stroke-linejoin:miter;stroke-miterlimit:2.63446259;stroke-dasharray:none;stroke-opacity:1"
       id="path168"
       inkscape:connector-curvature="0" /><path
       d="m 1043.9688,1113.5937 0,14.4 14.4,0 0,-14.4 -14.4,0 z"
       style="fill:none;stroke:#ff0000;stroke-width:0.8;stroke-linecap:butt;stroke-linejoin:miter;stroke-miterlimit:2.63446259;stroke-dasharray:none;stroke-opacity:1"
       id="path170"
       inkscape:connector-curvature="0" /><path
       d="m 948.7485,1113.0936 0,14.4 14.4,0 0,-14.4 -14.4,0 z"
       style="fill:none;stroke:#ff0000;stroke-width:0.8;stroke-linecap:butt;stroke-linejoin:miter;stroke-miterlimit:2.63446259;stroke-dasharray:none;stroke-opacity:1"
       id="path172"
       inkscape:connector-curvature="0" /><path
       d="m 1549.0358,723.1657 c 2.2663,-7.9038 8.3469,-35.7828 5.8632,-60.4372 l 0,0 c -3.2497,-32.9995 -19.9131,-63.0983 -49.288,-62.7233 -12.3333,0.9587 -23.9414,11.5157 -22.2747,25.0994 2.8333,18.6667 23.8474,22.3452 35.7804,12.6113 16.9701,7.1898 -1.067,69.0948 -9.097,70.5345 l -204.6583,0.106 0.024,-29.4599 -14.6489,-0.0368 -0.1253,29.5038 -218.2402,0.7112 0.6942,-35.8089 c 5.5701,-2.6779 12.8432,-8.1496 12.9997,-22.919 -0.7744,-11.4491 -14.2047,-17.7347 -20.2912,-17.8081 -6.558,0.1018 -18.6798,4.8475 -19.8,19.1996 0.5269,12.5249 8.7998,19.4613 12.6572,20.9685 l -0.2092,35.1728 -11.9613,0.3592 -9e-4,14.4657"
       style="fill:none;stroke:#ff0000;stroke-width:0.8;stroke-linecap:butt;stroke-linejoin:miter;stroke-miterlimit:2.63446259;stroke-dasharray:none;stroke-opacity:1"
       id="path174"
       inkscape:connector-curvature="0" /><path
       d="m 1503.5675,635.8618 c 7.3565,0 13.32,-5.9636 13.32,-13.32 0,-7.3565 -5.9635,-13.32 -13.32,-13.32 -7.3565,0 -13.32,5.9635 -13.32,13.32 0,7.3564 5.9635,13.32 13.32,13.32 z"
       style="fill:none;stroke:#ff0000;stroke-width:0.8;stroke-linecap:butt;stroke-linejoin:miter;stroke-miterlimit:2.63446259;stroke-dasharray:none;stroke-opacity:1"
       id="path176"
       inkscape:connector-curvature="0" /><path
       d="m 1528.988,707.976 14.4,0 0,-14.4 -14.4,0 0,14.4 z"
       style="fill:none;stroke:#ff0000;stroke-width:0.8;stroke-linecap:butt;stroke-linejoin:miter;stroke-miterlimit:2.63446259;stroke-dasharray:none;stroke-opacity:1"
       id="path178"
       inkscape:connector-curvature="0" /><path
       d="m 1065.5538,665.9382 c 7.3565,0 13.32,-5.9635 13.32,-13.32 0,-7.3565 -5.9635,-13.32 -13.32,-13.32 -7.3565,0 -13.32,5.9635 -13.32,13.32 0,7.3565 5.9635,13.32 13.32,13.32 z"
       style="fill:none;stroke:#ff0000;stroke-width:0.8;stroke-linecap:butt;stroke-linejoin:miter;stroke-miterlimit:2.63446259;stroke-dasharray:none;stroke-opacity:1"
       id="path180"
       inkscape:connector-curvature="0" /><path
       d="m 1554.899,782.8387 c -3.2497,32.9995 -19.9131,63.0984 -49.288,62.7233 -12.3333,-0.9586 -23.9414,-11.5157 -22.2747,-25.0993 2.8333,-18.6667 23.8474,-22.3453 35.7804,-12.6114 16.9701,-7.1898 -1.067,-69.0947 -9.097,-70.5344 l -204.6583,-0.1061 0.024,29.4599 -14.6489,0.0369 -0.1253,-29.5039 -218.2402,-0.7112 0.6942,35.809 c 5.5701,2.6779 12.8432,8.1496 12.9997,22.9189 -0.7744,11.4492 -14.2047,17.7347 -20.2912,17.8081 -6.558,-0.1017 -18.6798,-4.8475 -19.8,-19.1996 0.5269,-12.5249 8.7998,-19.4612 12.6572,-20.9684 l -0.2092,-35.1729 -11.9613,-0.3591 -9e-4,-14.4658 c 60.768,-0.4439 472.318,-0.0765 502.5762,-0.4612 2.2663,7.9039 8.3469,35.7829 5.8632,60.4372 z"
       style="fill:none;stroke:#ff0000;stroke-width:0.8;stroke-linecap:butt;stroke-linejoin:miter;stroke-miterlimit:2.63446259;stroke-dasharray:none;stroke-opacity:1"
       id="path182"
       inkscape:connector-curvature="0" /><path
       d="m 1503.5675,809.7055 c 7.3565,0 13.32,5.9635 13.32,13.32 0,7.3565 -5.9635,13.32 -13.32,13.32 -7.3565,0 -13.32,-5.9635 -13.32,-13.32 0,-7.3565 5.9635,-13.32 13.32,-13.32 z"
       style="fill:none;stroke:#ff0000;stroke-width:0.8;stroke-linecap:butt;stroke-linejoin:miter;stroke-miterlimit:2.63446259;stroke-dasharray:none;stroke-opacity:1"
       id="path184"
       inkscape:connector-curvature="0" /><path
       d="m 1528.988,737.5912 14.4,0 0,14.4 -14.4,0 0,-14.4 z"
       style="fill:none;stroke:#ff0000;stroke-width:0.8;stroke-linecap:butt;stroke-linejoin:miter;stroke-miterlimit:2.63446259;stroke-dasharray:none;stroke-opacity:1"
       id="path186"
       inkscape:connector-curvature="0" /><path
       d="m 1065.5538,779.629 c 7.3565,0 13.32,5.9636 13.32,13.32 0,7.3565 -5.9635,13.32 -13.32,13.32 -7.3565,0 -13.32,-5.9635 -13.32,-13.32 0,-7.3564 5.9635,-13.32 13.32,-13.32 z"
       style="fill:none;stroke:#ff0000;stroke-width:0.8;stroke-linecap:butt;stroke-linejoin:miter;stroke-miterlimit:2.63446259;stroke-dasharray:none;stroke-opacity:1"
       id="path188"
       inkscape:connector-curvature="0" /><path
       d="m 1149.6781,842.0023 c -9.9411,0 -18,-8.0589 -18,-18 0,-9.9411 8.0589,-18 18,-18 0.9522,0 2.7995,0.2166 2.7995,0.2166 12.9637,-9.1866 89.9377,-31.9312 143.1409,-18.603 1.0794,0.2705 65.3898,20.2074 100.6667,26.5377 11.6836,2.0965 25.598,-4.631 34.5138,-10.637 2.7201,-1.8323 -1.8176,-18.8235 -0.6568,-19.0491 1.66,-0.3226 12.5895,17.8554 12.3254,18.7427 -2.5988,8.7185 -33.0492,23.4187 -45.1999,21.6649 -29.6742,-4.2832 -92.2785,-23.9411 -105.9999,-25.6907 -23.4875,-2.9951 -44.2768,-6.1818 -61.2382,-3.5209 -41.3178,6.482 -62.8957,23.9284 -62.8815,23.9848 0.3452,1.3932 0.53,2.8528 0.53,4.354 0,9.9411 -8.0589,18 -18,18 z"
       style="fill:none;stroke:#ff0000;stroke-width:0.8;stroke-linecap:butt;stroke-linejoin:miter;stroke-miterlimit:2.63446259;stroke-dasharray:none;stroke-opacity:1"
       id="path190"
       inkscape:connector-curvature="0" /><path
       d="m 1149.1503,831.7054 c -4.3741,0 -7.92,-3.5458 -7.92,-7.92 0,-4.3741 3.5459,-7.92 7.92,-7.92 4.3742,0 7.92,3.5459 7.92,7.92 0,4.3742 -3.5458,7.92 -7.92,7.92 z"
       style="fill:none;stroke:#ff0000;stroke-width:0.8;stroke-linecap:butt;stroke-linejoin:miter;stroke-miterlimit:2.63446259;stroke-dasharray:none;stroke-opacity:1"
       id="path192"
       inkscape:connector-curvature="0" /><path
       d="m 1491.1637,783.411 c 9.4869,-2.9701 14.7699,-13.0688 11.7994,-22.5558 -2.9701,-9.487 -13.0688,-14.7699 -22.5558,-11.7998 -0.9085,0.2846 -2.607,1.0432 -2.607,1.0432 -15.116,-4.8935 -101.6807,1.042 -148.4717,29.6583 -2.2915,1.4014 -4.2233,9.2951 -1.8547,8.138 76.8909,-37.5608 140.334,-20.6808 140.3388,-20.5969 0.087,1.4327 0.3464,2.8809 0.7948,4.3135 2.9705,9.487 13.0692,14.7699 22.5562,11.7995 z"
       style="fill:none;stroke:#ff0000;stroke-width:0.8;stroke-linecap:butt;stroke-linejoin:miter;stroke-miterlimit:2.63446259;stroke-dasharray:none;stroke-opacity:1"
       id="path194"
       inkscape:connector-curvature="0" /><path
       d="m 1488.3032,773.6431 c 4.1735,-1.3065 6.4976,-5.7492 5.1908,-9.9227 -1.3065,-4.1737 -5.7492,-6.4978 -9.9227,-5.191 -4.1737,1.3067 -6.4975,5.7492 -5.191,9.9229 1.3067,4.1735 5.7492,6.4976 9.9229,5.1908 z"
       style="fill:none;stroke:#ff0000;stroke-width:0.8;stroke-linecap:butt;stroke-linejoin:miter;stroke-miterlimit:2.63446259;stroke-dasharray:none;stroke-opacity:1"
       id="path196"
       inkscape:connector-curvature="0" /><path
       d="m 1118.1059,796.3988 c -9.8487,-1.3507 -16.7378,-10.4301 -15.3871,-20.2788 1.351,-9.8489 10.4301,-16.738 20.2791,-15.3873 0.9434,0.1296 2.7442,0.595 2.7442,0.595 14.0916,-7.3397 85.9745,-16.7612 136.8723,3.6678 2.4874,0.998 5.7107,8.4631 3.1825,7.7162 -82.0673,-24.2485 -127.3547,3.831 -127.3454,3.9146 0.1528,1.4272 0.1375,2.8981 -0.067,4.3855 -1.3507,9.849 -10.4301,16.738 -20.279,15.387 z"
       style="fill:none;stroke:#ff0000;stroke-width:0.8;stroke-linecap:butt;stroke-linejoin:miter;stroke-miterlimit:2.63446259;stroke-dasharray:none;stroke-opacity:1"
       id="path198"
       inkscape:connector-curvature="0" /><path
       d="m 1119.3018,786.2913 c -4.3328,-0.5944 -7.3636,-4.5884 -6.7691,-8.9212 0.5941,-4.3327 4.5884,-7.3635 8.9212,-6.7691 4.3327,0.5941 7.3632,4.5884 6.7691,8.9212 -0.5944,4.3327 -4.5884,7.3632 -8.9212,6.7691 z"
       style="fill:none;stroke:#ff0000;stroke-width:0.8;stroke-linecap:butt;stroke-linejoin:miter;stroke-miterlimit:2.63446259;stroke-dasharray:none;stroke-opacity:1"
       id="path200"
       inkscape:connector-curvature="0" /><path
       d="m 0.6092,531.97 1732.0002,4"
       style="fill:none;stroke:#ff0000;stroke-width:0.8;stroke-linecap:butt;stroke-linejoin:miter;stroke-miterlimit:2.63446259;stroke-dasharray:none;stroke-opacity:1"
       id="path202"
       inkscape:connector-curvature="0" /><path
       d="m 514.436,1121.6582 c 0,9.9411 8.0589,18 18,18 9.9411,0 18,-8.0589 18,-18 0,-9.9411 -8.0589,-18 -18,-18 -9.9411,0 -18,8.0589 -18,18 z"
       style="fill:none;stroke:#ff0000;stroke-width:0.8;stroke-linecap:butt;stroke-linejoin:miter;stroke-miterlimit:2.63446259;stroke-dasharray:none;stroke-opacity:1"
       id="path204"
       inkscape:connector-curvature="0" /><path
       d="m 524.516,1121.6582 c 0,4.3742 3.5459,7.92 7.92,7.92 4.3742,0 7.92,-3.5458 7.92,-7.92 0,-4.3741 -3.5458,-7.92 -7.92,-7.92 -4.3741,0 -7.92,3.5459 -7.92,7.92 z"
       style="fill:none;stroke:#ff0000;stroke-width:0.8;stroke-linecap:butt;stroke-linejoin:miter;stroke-miterlimit:2.63446259;stroke-dasharray:none;stroke-opacity:1"
       id="path206"
       inkscape:connector-curvature="0" /><path
       d="m 520.4361,1163.658 c 0,9.9411 8.0589,18 18,18 9.9411,0 18,-8.0589 18,-18 0,-9.9411 -8.0589,-18 -18,-18 -9.9411,0 -18,8.0589 -18,18 z"
       style="fill:none;stroke:#ff0000;stroke-width:0.8;stroke-linecap:butt;stroke-linejoin:miter;stroke-miterlimit:2.63446259;stroke-dasharray:none;stroke-opacity:1"
       id="path208"
       inkscape:connector-curvature="0" /><path
       d="m 530.5161,1163.658 c 0,4.3742 3.5459,7.92 7.92,7.92 4.3742,0 7.92,-3.5458 7.92,-7.92 0,-4.3741 -3.5458,-7.92 -7.92,-7.92 -4.3741,0 -7.92,3.5459 -7.92,7.92 z"
       style="fill:none;stroke:#ff0000;stroke-width:0.8;stroke-linecap:butt;stroke-linejoin:miter;stroke-miterlimit:2.63446259;stroke-dasharray:none;stroke-opacity:1"
       id="path210"
       inkscape:connector-curvature="0" /><path
       d="m 572.3558,1136.2983 c 0,9.9411 8.0589,18 18,18 9.9411,0 18,-8.0589 18,-18 0,-9.9411 -8.0589,-18 -18,-18 -9.9411,0 -18,8.0589 -18,18 z"
       style="fill:none;stroke:#ff0000;stroke-width:0.8;stroke-linecap:butt;stroke-linejoin:miter;stroke-miterlimit:2.63446259;stroke-dasharray:none;stroke-opacity:1"
       id="path212"
       inkscape:connector-curvature="0" /><path
       d="m 582.4358,1136.2983 c 0,4.3742 3.5458,7.92 7.92,7.92 4.3741,0 7.92,-3.5458 7.92,-7.92 0,-4.3741 -3.5459,-7.92 -7.92,-7.92 -4.3742,0 -7.92,3.5459 -7.92,7.92 z"
       style="fill:none;stroke:#ff0000;stroke-width:0.8;stroke-linecap:butt;stroke-linejoin:miter;stroke-miterlimit:2.63446259;stroke-dasharray:none;stroke-opacity:1"
       id="path214"
       inkscape:connector-curvature="0" /><path
       d="m 591.6067,1263.3885 c 0,9.9411 8.0589,18 18,18 9.9411,0 18,-8.0589 18,-18 0,-9.9411 -8.0589,-18 -18,-18 -9.9411,0 -18,8.0589 -18,18 z"
       style="fill:none;stroke:#ff0000;stroke-width:0.8;stroke-linecap:butt;stroke-linejoin:miter;stroke-miterlimit:2.63446259;stroke-dasharray:none;stroke-opacity:1"
       id="path216"
       inkscape:connector-curvature="0" /><path
       d="m 601.6867,1263.3885 c 0,4.3742 3.5459,7.92 7.92,7.92 4.3742,0 7.92,-3.5458 7.92,-7.92 0,-4.3741 -3.5458,-7.92 -7.92,-7.92 -4.3741,0 -7.92,3.5459 -7.92,7.92 z"
       style="fill:none;stroke:#ff0000;stroke-width:0.8;stroke-linecap:butt;stroke-linejoin:miter;stroke-miterlimit:2.63446259;stroke-dasharray:none;stroke-opacity:1"
       id="path218"
       inkscape:connector-curvature="0" /><path
       d="m 561.5266,1179.3886 c 0,9.9411 8.0589,18 18,18 9.9411,0 18,-8.0589 18,-18 0,-9.9411 -8.0589,-18 -18,-18 -9.9411,0 -18,8.0589 -18,18 z"
       style="fill:none;stroke:#ff0000;stroke-width:0.8;stroke-linecap:butt;stroke-linejoin:miter;stroke-miterlimit:2.63446259;stroke-dasharray:none;stroke-opacity:1"
       id="path220"
       inkscape:connector-curvature="0" /><path
       d="m 571.6066,1179.3886 c 0,4.3742 3.5458,7.92 7.92,7.92 4.3741,0 7.92,-3.5458 7.92,-7.92 0,-4.3741 -3.5459,-7.92 -7.92,-7.92 -4.3742,0 -7.92,3.5459 -7.92,7.92 z"
       style="fill:none;stroke:#ff0000;stroke-width:0.8;stroke-linecap:butt;stroke-linejoin:miter;stroke-miterlimit:2.63446259;stroke-dasharray:none;stroke-opacity:1"
       id="path222"
       inkscape:connector-curvature="0" /><path
       d="m 549.6066,1097.3086 c 0,9.9411 8.0589,18 18,18 9.9411,0 18,-8.0589 18,-18 0,-9.9411 -8.0589,-18 -18,-18 -9.9411,0 -18,8.0589 -18,18 z"
       style="fill:none;stroke:#ff0000;stroke-width:0.8;stroke-linecap:butt;stroke-linejoin:miter;stroke-miterlimit:2.63446259;stroke-dasharray:none;stroke-opacity:1"
       id="path224"
       inkscape:connector-curvature="0" /><path
       d="m 559.6866,1097.3086 c 0,4.3742 3.5459,7.92 7.92,7.92 4.3742,0 7.92,-3.5458 7.92,-7.92 0,-4.3741 -3.5458,-7.92 -7.92,-7.92 -4.3741,0 -7.92,3.5459 -7.92,7.92 z"
       style="fill:none;stroke:#ff0000;stroke-width:0.8;stroke-linecap:butt;stroke-linejoin:miter;stroke-miterlimit:2.63446259;stroke-dasharray:none;stroke-opacity:1"
       id="path226"
       inkscape:connector-curvature="0" /><path
       d="m 591.6866,1085.3887 c 0,9.9411 8.0589,18 18,18 9.9411,0 18,-8.0589 18,-18 0,-9.9411 -8.0589,-18 -18,-18 -9.9411,0 -18,8.0589 -18,18 z"
       style="fill:none;stroke:#ff0000;stroke-width:0.8;stroke-linecap:butt;stroke-linejoin:miter;stroke-miterlimit:2.63446259;stroke-dasharray:none;stroke-opacity:1"
       id="path228"
       inkscape:connector-curvature="0" /><path
       d="m 601.7666,1085.3887 c 0,4.3741 3.5459,7.92 7.92,7.92 4.3742,0 7.92,-3.5459 7.92,-7.92 0,-4.3742 -3.5458,-7.92 -7.92,-7.92 -4.3741,0 -7.92,3.5458 -7.92,7.92 z"
       style="fill:none;stroke:#ff0000;stroke-width:0.8;stroke-linecap:butt;stroke-linejoin:miter;stroke-miterlimit:2.63446259;stroke-dasharray:none;stroke-opacity:1"
       id="path230"
       inkscape:connector-curvature="0" /><path
       d="m 539.6066,1053.3084 c 0,9.9411 8.0588,18 18,18 9.9411,0 18,-8.0589 18,-18 0,-9.9411 -8.0589,-18 -18,-18 -9.9412,0 -18,8.0589 -18,18 z"
       style="fill:none;stroke:#ff0000;stroke-width:0.8;stroke-linecap:butt;stroke-linejoin:miter;stroke-miterlimit:2.63446259;stroke-dasharray:none;stroke-opacity:1"
       id="path232"
       inkscape:connector-curvature="0" /><path
       d="m 549.6866,1053.3084 c 0,4.3742 3.5458,7.92 7.92,7.92 4.3741,0 7.92,-3.5458 7.92,-7.92 0,-4.3741 -3.5459,-7.92 -7.92,-7.92 -4.3742,0 -7.92,3.5459 -7.92,7.92 z"
       style="fill:none;stroke:#ff0000;stroke-width:0.8;stroke-linecap:butt;stroke-linejoin:miter;stroke-miterlimit:2.63446259;stroke-dasharray:none;stroke-opacity:1"
       id="path234"
       inkscape:connector-curvature="0" /><path
       d="m 579.6065,1041.4687 c 0,9.9411 8.0589,18 18,18 9.9411,0 18,-8.0589 18,-18 0,-9.9411 -8.0589,-18 -18,-18 -9.9411,0 -18,8.0589 -18,18 z"
       style="fill:none;stroke:#ff0000;stroke-width:0.8;stroke-linecap:butt;stroke-linejoin:miter;stroke-miterlimit:2.63446259;stroke-dasharray:none;stroke-opacity:1"
       id="path236"
       inkscape:connector-curvature="0" /><path
       d="m 589.6865,1041.4687 c 0,4.3741 3.5459,7.92 7.92,7.92 4.3742,0 7.92,-3.5459 7.92,-7.92 0,-4.3742 -3.5458,-7.92 -7.92,-7.92 -4.3741,0 -7.92,3.5458 -7.92,7.92 z"
       style="fill:none;stroke:#ff0000;stroke-width:0.8;stroke-linecap:butt;stroke-linejoin:miter;stroke-miterlimit:2.63446259;stroke-dasharray:none;stroke-opacity:1"
       id="path238"
       inkscape:connector-curvature="0" /><path
       d="m 541.6866,1005.3884 c 0,9.9411 8.0589,18 18,18 9.9411,0 18,-8.0589 18,-18 0,-9.9411 -8.0589,-18 -18,-18 -9.9411,0 -18,8.0589 -18,18 z"
       style="fill:none;stroke:#ff0000;stroke-width:0.8;stroke-linecap:butt;stroke-linejoin:miter;stroke-miterlimit:2.63446259;stroke-dasharray:none;stroke-opacity:1"
       id="path240"
       inkscape:connector-curvature="0" /><path
       d="m 551.7666,1005.3884 c 0,4.3742 3.5459,7.92 7.92,7.92 4.3742,0 7.92,-3.5458 7.92,-7.92 0,-4.3741 -3.5458,-7.92 -7.92,-7.92 -4.3741,0 -7.92,3.5459 -7.92,7.92 z"
       style="fill:none;stroke:#ff0000;stroke-width:0.8;stroke-linecap:butt;stroke-linejoin:miter;stroke-miterlimit:2.63446259;stroke-dasharray:none;stroke-opacity:1"
       id="path242"
       inkscape:connector-curvature="0" /><path
       d="m 585.6066,997.3885 c 0,9.9411 8.0589,18 18,18 9.9411,0 18,-8.0589 18,-18 0,-9.9411 -8.0589,-18 -18,-18 -9.9411,0 -18,8.0589 -18,18 z"
       style="fill:none;stroke:#ff0000;stroke-width:0.8;stroke-linecap:butt;stroke-linejoin:miter;stroke-miterlimit:2.63446259;stroke-dasharray:none;stroke-opacity:1"
       id="path244"
       inkscape:connector-curvature="0" /><path
       d="m 595.6866,997.3885 c 0,4.3741 3.5459,7.92 7.92,7.92 4.3742,0 7.92,-3.5459 7.92,-7.92 0,-4.3741 -3.5458,-7.92 -7.92,-7.92 -4.3741,0 -7.92,3.5459 -7.92,7.92 z"
       style="fill:none;stroke:#ff0000;stroke-width:0.8;stroke-linecap:butt;stroke-linejoin:miter;stroke-miterlimit:2.63446259;stroke-dasharray:none;stroke-opacity:1"
       id="path246"
       inkscape:connector-curvature="0" /><path
       d="m 531.6066,955.3884 c 0,9.9411 8.0589,18 18,18 9.9411,0 18,-8.0589 18,-18 0,-9.9411 -8.0589,-18 -18,-18 -9.9411,0 -18,8.0589 -18,18 z"
       style="fill:none;stroke:#ff0000;stroke-width:0.8;stroke-linecap:butt;stroke-linejoin:miter;stroke-miterlimit:2.63446259;stroke-dasharray:none;stroke-opacity:1"
       id="path248"
       inkscape:connector-curvature="0" /><path
       d="m 541.6866,955.3884 c 0,4.3742 3.5459,7.92 7.92,7.92 4.3742,0 7.92,-3.5458 7.92,-7.92 0,-4.3741 -3.5458,-7.92 -7.92,-7.92 -4.3741,0 -7.92,3.5459 -7.92,7.92 z"
       style="fill:none;stroke:#ff0000;stroke-width:0.8;stroke-linecap:butt;stroke-linejoin:miter;stroke-miterlimit:2.63446259;stroke-dasharray:none;stroke-opacity:1"
       id="path250"
       inkscape:connector-curvature="0" /><path
       d="m 579.6867,943.3885 c 0,9.9411 8.0589,18 18,18 9.9411,0 18,-8.0589 18,-18 0,-9.9411 -8.0589,-18 -18,-18 -9.9411,0 -18,8.0589 -18,18 z"
       style="fill:none;stroke:#ff0000;stroke-width:0.8;stroke-linecap:butt;stroke-linejoin:miter;stroke-miterlimit:2.63446259;stroke-dasharray:none;stroke-opacity:1"
       id="path252"
       inkscape:connector-curvature="0" /><path
       d="m 589.7667,943.3885 c 0,4.3741 3.5459,7.92 7.92,7.92 4.3742,0 7.92,-3.5459 7.92,-7.92 0,-4.3741 -3.5458,-7.92 -7.92,-7.92 -4.3741,0 -7.92,3.5459 -7.92,7.92 z"
       style="fill:none;stroke:#ff0000;stroke-width:0.8;stroke-linecap:butt;stroke-linejoin:miter;stroke-miterlimit:2.63446259;stroke-dasharray:none;stroke-opacity:1"
       id="path254"
       inkscape:connector-curvature="0" /><path
       d="m 477.6866,951.3884 c 0,9.9411 8.0588,18 18,18 9.9411,0 18,-8.0589 18,-18 0,-9.9411 -8.0589,-18 -18,-18 -9.9412,0 -18,8.0589 -18,18 z"
       style="fill:none;stroke:#ff0000;stroke-width:0.8;stroke-linecap:butt;stroke-linejoin:miter;stroke-miterlimit:2.63446259;stroke-dasharray:none;stroke-opacity:1"
       id="path256"
       inkscape:connector-curvature="0" /><path
       d="m 487.7666,951.3884 c 0,4.3742 3.5458,7.92 7.92,7.92 4.3741,0 7.92,-3.5458 7.92,-7.92 0,-4.3741 -3.5459,-7.92 -7.92,-7.92 -4.3742,0 -7.92,3.5459 -7.92,7.92 z"
       style="fill:none;stroke:#ff0000;stroke-width:0.8;stroke-linecap:butt;stroke-linejoin:miter;stroke-miterlimit:2.63446259;stroke-dasharray:none;stroke-opacity:1"
       id="path258"
       inkscape:connector-curvature="0" /><path
       d="m 543.6065,909.3886 c 0,9.9411 8.0589,18 18,18 9.9411,0 18,-8.0589 18,-18 0,-9.9411 -8.0589,-18 -18,-18 -9.9411,0 -18,8.0589 -18,18 z"
       style="fill:none;stroke:#ff0000;stroke-width:0.8;stroke-linecap:butt;stroke-linejoin:miter;stroke-miterlimit:2.63446259;stroke-dasharray:none;stroke-opacity:1"
       id="path260"
       inkscape:connector-curvature="0" /><path
       d="m 553.6865,909.3886 c 0,4.3742 3.5459,7.92 7.92,7.92 4.3742,0 7.92,-3.5458 7.92,-7.92 0,-4.3741 -3.5458,-7.92 -7.92,-7.92 -4.3741,0 -7.92,3.5459 -7.92,7.92 z"
       style="fill:none;stroke:#ff0000;stroke-width:0.8;stroke-linecap:butt;stroke-linejoin:miter;stroke-miterlimit:2.63446259;stroke-dasharray:none;stroke-opacity:1"
       id="path262"
       inkscape:connector-curvature="0" /><path
       d="m 1269.1066,1199.3885 0,54 54,0 0,26.7627 288,0 0,-26.7627 54,0 0,-54 -54,0 0,-26.7628 -288,0 0,26.7628 -54,0 z"
       style="fill:none;stroke:#ff0000;stroke-width:0.8;stroke-linecap:butt;stroke-linejoin:miter;stroke-miterlimit:2.63446259;stroke-dasharray:none;stroke-opacity:1"
       id="path264"
       inkscape:connector-curvature="0" /><path
       d="m 1287.3464,1218.7483 0,14.4 36,0 0,-14.4 -36,0 z"
       style="fill:none;stroke:#ff0000;stroke-width:0.8;stroke-linecap:butt;stroke-linejoin:miter;stroke-miterlimit:2.63446259;stroke-dasharray:none;stroke-opacity:1"
       id="path266"
       inkscape:connector-curvature="0" /><path
       d="m 1612.7864,1218.7483 0,14.4 36,0 0,-14.4 -36,0 z"
       style="fill:none;stroke:#ff0000;stroke-width:0.8;stroke-linecap:butt;stroke-linejoin:miter;stroke-miterlimit:2.63446259;stroke-dasharray:none;stroke-opacity:1"
       id="path268"
       inkscape:connector-curvature="0" /><path
       d="m 317.1898,992.8074 c -4.3742,0 -7.92,-3.5458 -7.92,-7.92 0,-4.3741 3.5458,-7.92 7.92,-7.92 4.3741,0 7.92,3.5459 7.92,7.92 0,4.3742 -3.5459,7.92 -7.92,7.92 z"
       style="fill:none;stroke:#ff0000;stroke-width:0.8;stroke-linecap:butt;stroke-linejoin:miter;stroke-miterlimit:2.63446259;stroke-dasharray:none;stroke-opacity:1"
       id="path270"
       inkscape:connector-curvature="0" /><path
       inkscape:connector-curvature="0"
       id="path274"
       style="fill:none;stroke:#ff0000;stroke-width:0.8;stroke-linecap:butt;stroke-linejoin:miter;stroke-miterlimit:2.63446259;stroke-dasharray:none;stroke-opacity:1"
       d="m 332.36997,999.35903 6.07905,6.31987 1.80209,1.1295 c 3.08272,0.7124 5.60288,1.7374 9.06051,1.262 1.60933,-0.1205 2.65762,-1.3666 3.89207,-2.4874 0.42824,-1.7824 0.10618,-3.1896 -0.15292,-5.65988 l -4.89309,-5.72916 -1.80209,-1.12953 -8.98061,-3.11151 -0.13305,-9.98596 10.23458,-2.86984 2.84008,-2.30492 c 0.61929,-0.94752 1.23711,-1.89672 1.85567,-2.8447 0.50206,-2.59318 0.56711,-4.56128 -0.55565,-7.40444 -1.5528,-1.39674 -2.82423,-2.9433 -6.61176,-3.13669 l -4.32601,1.18328 -3.50645,1.58926 -4.85197,6.12675 -9.01827,-5.67972 2.40878,-8.74054 -0.007,-2.1278 -2.61896,-6.65048 c -0.69949,-0.87841 -1.66999,-2.31459 -5.3286,-3.54084 -2.09445,0.20301 -3.37684,1.21833 -4.78386,3.42059 l -2.15508,6.81473 0.005,2.12712 2.15103,8.50145 -10.29313,5.97777 -4.97215,-5.34 c -0.69768,-0.35525 -1.39552,-0.70983 -2.0932,-1.06508 l -9.19253,-1.13971 c -1.27326,0.28867 -3.07792,0.73455 -3.88228,2.366 -0.40734,1.44262 -0.65883,2.94786 -0.41008,4.73388 1.74605,3.0423 3.46098,4.61687 5.92621,6.97139 l 1.24526,0.74977 8.39072,1.43327 -0.50964,11.01458 -7.52092,2.01368 -1.74887,1.10016 c -2.02312,2.41434 -3.67048,4.3293 -5.19366,7.36822 -1.04048,2.2079 -0.83215,3.1024 -0.31028,5.1226 0.93212,1.518 1.73954,2.0358 3.54696,2.3037 l 7.80248,-0.3372 2.48164,-1.6504 7.16562,-6.59879 9.33535,5.55759 -1.74957,8.3393 0.006,2.1268 c 0.84967,4.3598 0.0562,2.5123 1.69362,7.1448 1.33552,0.9608 2.31516,2.5226 5.03684,2.7285 2.00004,-0.1728 3.84427,-1.5515 5.06402,-2.8977 l 1.97794,-5.8213 0.36036,-3.1298 -2.33402,-9.1194 9.57273,-5.02377 z" /></g></svg>